%TF.GenerationSoftware,KiCad,Pcbnew,(6.0.9)*%
%TF.CreationDate,2022-11-16T17:04:13-08:00*%
%TF.ProjectId,ECE 411,45434520-3431-4312-9e6b-696361645f70,rev?*%
%TF.SameCoordinates,Original*%
%TF.FileFunction,Copper,L1,Top*%
%TF.FilePolarity,Positive*%
%FSLAX46Y46*%
G04 Gerber Fmt 4.6, Leading zero omitted, Abs format (unit mm)*
G04 Created by KiCad (PCBNEW (6.0.9)) date 2022-11-16 17:04:13*
%MOMM*%
%LPD*%
G01*
G04 APERTURE LIST*
%TA.AperFunction,ComponentPad*%
%ADD10R,1.700000X1.700000*%
%TD*%
%TA.AperFunction,ComponentPad*%
%ADD11O,1.700000X1.700000*%
%TD*%
%TA.AperFunction,ComponentPad*%
%ADD12O,1.727200X1.727200*%
%TD*%
%TA.AperFunction,ViaPad*%
%ADD13C,0.700000*%
%TD*%
%TA.AperFunction,Conductor*%
%ADD14C,0.500000*%
%TD*%
G04 APERTURE END LIST*
D10*
%TO.P,J1,1,Pin_1*%
%TO.N,Net-(J1-Pad1)*%
X115652000Y-68052000D03*
D11*
%TO.P,J1,2,Pin_2*%
%TO.N,Net-(J1-Pad2)*%
X115652000Y-70592000D03*
%TO.P,J1,3,Pin_3*%
%TO.N,Net-(J1-Pad3)*%
X115652000Y-73132000D03*
%TO.P,J1,4,Pin_4*%
%TO.N,Net-(J1-Pad4)*%
X115652000Y-75672000D03*
%TO.P,J1,5,Pin_5*%
%TO.N,GND*%
X115652000Y-78212000D03*
%TD*%
D10*
%TO.P,J4,1,Pin_1*%
%TO.N,Net-(J4-Pad1)*%
X145460000Y-77002000D03*
D11*
%TO.P,J4,2,Pin_2*%
%TO.N,Net-(J4-Pad2)*%
X145460000Y-74462000D03*
%TO.P,J4,3,Pin_3*%
%TO.N,Net-(J1-Pad4)*%
X145460000Y-71922000D03*
%TO.P,J4,4,Pin_4*%
%TO.N,GND*%
X145460000Y-69382000D03*
%TD*%
D10*
%TO.P,J3,1,Pin_1*%
%TO.N,GND*%
X134112000Y-101600000D03*
D11*
%TO.P,J3,2,Pin_2*%
%TO.N,Net-(J3-Pad2)*%
X131572000Y-101600000D03*
%TO.P,J3,3,Pin_3*%
%TO.N,Net-(J2-Pad1)*%
X129032000Y-101600000D03*
%TD*%
D10*
%TO.P,J2,1,Pin_1*%
%TO.N,Net-(J2-Pad1)*%
X112746000Y-100756000D03*
D11*
%TO.P,J2,2,Pin_2*%
%TO.N,GND*%
X115286000Y-100756000D03*
%TD*%
D12*
%TO.P,XA1,*%
%TO.N,*%
X136400000Y-108770000D03*
%TO.P,XA1,3V3,3.3V*%
%TO.N,unconnected-(XA1-Pad3V3)*%
X144020000Y-108770000D03*
%TO.P,XA1,5V1,5V*%
%TO.N,Net-(J1-Pad4)*%
X146560000Y-108770000D03*
%TO.P,XA1,5V2,SPI_5V*%
%TO.N,unconnected-(XA1-Pad5V2)*%
X174627000Y-80830000D03*
%TO.P,XA1,A0,A0*%
%TO.N,unconnected-(XA1-PadA0)*%
X159260000Y-108770000D03*
%TO.P,XA1,A1,A1*%
%TO.N,unconnected-(XA1-PadA1)*%
X161800000Y-108770000D03*
%TO.P,XA1,A2,A2*%
%TO.N,unconnected-(XA1-PadA2)*%
X164340000Y-108770000D03*
%TO.P,XA1,A3,A3*%
%TO.N,unconnected-(XA1-PadA3)*%
X166880000Y-108770000D03*
%TO.P,XA1,A4,A4*%
%TO.N,unconnected-(XA1-PadA4)*%
X169420000Y-108770000D03*
%TO.P,XA1,A5,A5*%
%TO.N,unconnected-(XA1-PadA5)*%
X171960000Y-108770000D03*
%TO.P,XA1,AREF,AREF*%
%TO.N,unconnected-(XA1-PadAREF)*%
X132336000Y-60510000D03*
%TO.P,XA1,D0,D0_RX0*%
%TO.N,unconnected-(XA1-PadD0)*%
X171960000Y-60510000D03*
%TO.P,XA1,D1,D1_TX0*%
%TO.N,unconnected-(XA1-PadD1)*%
X169420000Y-60510000D03*
%TO.P,XA1,D2,D2_INT0*%
%TO.N,Net-(J1-Pad3)*%
X166880000Y-60510000D03*
%TO.P,XA1,D3,D3_INT1*%
%TO.N,Net-(J1-Pad2)*%
X164340000Y-60510000D03*
%TO.P,XA1,D4,D4*%
%TO.N,Net-(J1-Pad1)*%
X161800000Y-60510000D03*
%TO.P,XA1,D5,D5*%
%TO.N,unconnected-(XA1-PadD5)*%
X159260000Y-60510000D03*
%TO.P,XA1,D6,D6*%
%TO.N,unconnected-(XA1-PadD6)*%
X156720000Y-60510000D03*
%TO.P,XA1,D7,D7*%
%TO.N,unconnected-(XA1-PadD7)*%
X154180000Y-60510000D03*
%TO.P,XA1,D8,D8*%
%TO.N,unconnected-(XA1-PadD8)*%
X150116000Y-60510000D03*
%TO.P,XA1,D9,D9*%
%TO.N,unconnected-(XA1-PadD9)*%
X147576000Y-60510000D03*
%TO.P,XA1,D10,D10_CS*%
%TO.N,unconnected-(XA1-PadD10)*%
X145036000Y-60510000D03*
%TO.P,XA1,D11,D11*%
%TO.N,unconnected-(XA1-PadD11)*%
X142496000Y-60510000D03*
%TO.P,XA1,D12,D12*%
%TO.N,unconnected-(XA1-PadD12)*%
X139956000Y-60510000D03*
%TO.P,XA1,D13,D13*%
%TO.N,unconnected-(XA1-PadD13)*%
X137416000Y-60510000D03*
%TO.P,XA1,GND1,GND*%
%TO.N,GND*%
X134876000Y-60510000D03*
%TO.P,XA1,GND2,GND*%
%TO.N,unconnected-(XA1-PadGND2)*%
X149100000Y-108770000D03*
%TO.P,XA1,GND3,GND*%
%TO.N,unconnected-(XA1-PadGND3)*%
X151640000Y-108770000D03*
%TO.P,XA1,GND4,SPI_GND*%
%TO.N,unconnected-(XA1-PadGND4)*%
X174627000Y-85910000D03*
%TO.P,XA1,IORF,IOREF*%
%TO.N,unconnected-(XA1-PadIORF)*%
X138940000Y-108770000D03*
%TO.P,XA1,MISO,SPI_MISO*%
%TO.N,unconnected-(XA1-PadMISO)*%
X172087000Y-80830000D03*
%TO.P,XA1,MOSI,SPI_MOSI*%
%TO.N,unconnected-(XA1-PadMOSI)*%
X174627000Y-83370000D03*
%TO.P,XA1,RST1,RESET*%
%TO.N,unconnected-(XA1-PadRST1)*%
X141480000Y-108770000D03*
%TO.P,XA1,RST2,SPI_RESET*%
%TO.N,unconnected-(XA1-PadRST2)*%
X172087000Y-85910000D03*
%TO.P,XA1,SCK,SPI_SCK*%
%TO.N,unconnected-(XA1-PadSCK)*%
X172087000Y-83370000D03*
%TO.P,XA1,SCL,SCL*%
%TO.N,Net-(J4-Pad1)*%
X127256000Y-60510000D03*
%TO.P,XA1,SDA,SDA*%
%TO.N,Net-(J4-Pad2)*%
X129796000Y-60510000D03*
%TO.P,XA1,VIN,VIN*%
%TO.N,Net-(J3-Pad2)*%
X154180000Y-108770000D03*
%TD*%
D13*
%TO.N,GND*%
X122428000Y-102870000D03*
X159004000Y-65024000D03*
X122936000Y-78486000D03*
X158496000Y-75692000D03*
X168656000Y-91186000D03*
X171704000Y-65278000D03*
X142748000Y-104140000D03*
X134366000Y-93726000D03*
X147066000Y-92202000D03*
X112268000Y-84074000D03*
X170688000Y-76454000D03*
X150876000Y-104140000D03*
X165100000Y-104394000D03*
X136652000Y-64770000D03*
X156972000Y-91440000D03*
X122682000Y-92710000D03*
X148590000Y-64770000D03*
X121412000Y-65024000D03*
%TD*%
D14*
%TO.N,Net-(J1-Pad1)*%
X121392000Y-68052000D02*
X134366000Y-81026000D01*
X161800000Y-60510000D02*
X161800000Y-76202000D01*
X157226000Y-81026000D02*
X161800000Y-76452000D01*
X134366000Y-81026000D02*
X157226000Y-81026000D01*
X161800000Y-76452000D02*
X161800000Y-76202000D01*
X115652000Y-68052000D02*
X121392000Y-68052000D01*
%TO.N,Net-(J1-Pad2)*%
X157480000Y-83820000D02*
X164340000Y-76960000D01*
X133858000Y-83820000D02*
X157480000Y-83820000D01*
X120630000Y-70592000D02*
X133858000Y-83820000D01*
X164340000Y-76960000D02*
X164340000Y-60510000D01*
X115652000Y-70592000D02*
X120630000Y-70592000D01*
%TO.N,Net-(J1-Pad3)*%
X119614000Y-73132000D02*
X133350000Y-86868000D01*
X157734000Y-86868000D02*
X166880000Y-77722000D01*
X133350000Y-86868000D02*
X157734000Y-86868000D01*
X166880000Y-77722000D02*
X166880000Y-60510000D01*
X115652000Y-73132000D02*
X119614000Y-73132000D01*
%TO.N,Net-(J2-Pad1)*%
X112746000Y-100756000D02*
X112746000Y-97820000D01*
X112746000Y-97820000D02*
X114554000Y-96012000D01*
X127000000Y-96012000D02*
X129032000Y-98044000D01*
X114554000Y-96012000D02*
X127000000Y-96012000D01*
X129032000Y-98044000D02*
X129032000Y-101600000D01*
%TO.N,Net-(J3-Pad2)*%
X151130000Y-90170000D02*
X154180000Y-93220000D01*
X131572000Y-93218000D02*
X134620000Y-90170000D01*
X154180000Y-93220000D02*
X154180000Y-100332000D01*
X134620000Y-90170000D02*
X151130000Y-90170000D01*
X154180000Y-100332000D02*
X154180000Y-108770000D01*
X131572000Y-101600000D02*
X131572000Y-93218000D01*
%TO.N,Net-(J4-Pad1)*%
X127254000Y-70358000D02*
X127256000Y-70356000D01*
X133898000Y-77002000D02*
X127254000Y-70358000D01*
X145460000Y-77002000D02*
X133898000Y-77002000D01*
X127256000Y-70356000D02*
X127256000Y-60510000D01*
%TO.N,Net-(J4-Pad2)*%
X129796000Y-69340000D02*
X129796000Y-60510000D01*
X145460000Y-74462000D02*
X134152000Y-74462000D01*
X129794000Y-69342000D02*
X129796000Y-69340000D01*
X134152000Y-74462000D02*
X129794000Y-70104000D01*
X129794000Y-70104000D02*
X129794000Y-69342000D01*
%TD*%
%TA.AperFunction,Conductor*%
%TO.N,GND*%
G36*
X180790121Y-54376002D02*
G01*
X180836614Y-54429658D01*
X180848000Y-54482000D01*
X180848000Y-113666000D01*
X180827998Y-113734121D01*
X180774342Y-113780614D01*
X180722000Y-113792000D01*
X107822000Y-113792000D01*
X107753879Y-113771998D01*
X107707386Y-113718342D01*
X107696000Y-113666000D01*
X107696000Y-108902703D01*
X120320743Y-108902703D01*
X120358268Y-109187734D01*
X120434129Y-109465036D01*
X120435813Y-109468984D01*
X120482632Y-109578748D01*
X120546923Y-109729476D01*
X120558693Y-109749142D01*
X120681835Y-109954897D01*
X120694561Y-109976161D01*
X120874313Y-110200528D01*
X121082851Y-110398423D01*
X121316317Y-110566186D01*
X121320112Y-110568195D01*
X121320113Y-110568196D01*
X121341869Y-110579715D01*
X121570392Y-110700712D01*
X121840373Y-110799511D01*
X122121264Y-110860755D01*
X122149841Y-110863004D01*
X122344282Y-110878307D01*
X122344291Y-110878307D01*
X122346739Y-110878500D01*
X122502271Y-110878500D01*
X122504407Y-110878354D01*
X122504418Y-110878354D01*
X122712548Y-110864165D01*
X122712554Y-110864164D01*
X122716825Y-110863873D01*
X122721020Y-110863004D01*
X122721022Y-110863004D01*
X122857583Y-110834724D01*
X122998342Y-110805574D01*
X123269343Y-110709607D01*
X123524812Y-110577750D01*
X123528313Y-110575289D01*
X123528317Y-110575287D01*
X123642417Y-110495096D01*
X123760023Y-110412441D01*
X123970622Y-110216740D01*
X124152713Y-109994268D01*
X124302927Y-109749142D01*
X124341034Y-109662333D01*
X124416757Y-109489830D01*
X124418483Y-109485898D01*
X124497244Y-109209406D01*
X124537751Y-108924784D01*
X124537845Y-108906951D01*
X124539235Y-108641583D01*
X124539235Y-108641576D01*
X124539257Y-108637297D01*
X124526463Y-108540113D01*
X124502292Y-108356522D01*
X124501732Y-108352266D01*
X124425871Y-108074964D01*
X124412015Y-108042479D01*
X124314763Y-107814476D01*
X124314761Y-107814472D01*
X124313077Y-107810524D01*
X124204298Y-107628768D01*
X124167643Y-107567521D01*
X124167640Y-107567517D01*
X124165439Y-107563839D01*
X123985687Y-107339472D01*
X123777149Y-107141577D01*
X123543683Y-106973814D01*
X123521843Y-106962250D01*
X123498654Y-106949972D01*
X123289608Y-106839288D01*
X123019627Y-106740489D01*
X122738736Y-106679245D01*
X122707685Y-106676801D01*
X122515718Y-106661693D01*
X122515709Y-106661693D01*
X122513261Y-106661500D01*
X122357729Y-106661500D01*
X122355593Y-106661646D01*
X122355582Y-106661646D01*
X122147452Y-106675835D01*
X122147446Y-106675836D01*
X122143175Y-106676127D01*
X122138980Y-106676996D01*
X122138978Y-106676996D01*
X122002417Y-106705276D01*
X121861658Y-106734426D01*
X121590657Y-106830393D01*
X121335188Y-106962250D01*
X121331687Y-106964711D01*
X121331683Y-106964713D01*
X121321594Y-106971804D01*
X121099977Y-107127559D01*
X120889378Y-107323260D01*
X120707287Y-107545732D01*
X120557073Y-107790858D01*
X120441517Y-108054102D01*
X120362756Y-108330594D01*
X120322249Y-108615216D01*
X120322227Y-108619505D01*
X120322226Y-108619512D01*
X120321068Y-108840578D01*
X120320743Y-108902703D01*
X107696000Y-108902703D01*
X107696000Y-101654134D01*
X111387500Y-101654134D01*
X111394255Y-101716316D01*
X111445385Y-101852705D01*
X111532739Y-101969261D01*
X111649295Y-102056615D01*
X111785684Y-102107745D01*
X111847866Y-102114500D01*
X113644134Y-102114500D01*
X113706316Y-102107745D01*
X113842705Y-102056615D01*
X113959261Y-101969261D01*
X114046615Y-101852705D01*
X114081636Y-101759288D01*
X114090798Y-101734848D01*
X114133440Y-101678084D01*
X114200001Y-101653384D01*
X114269350Y-101668592D01*
X114304017Y-101696580D01*
X114329218Y-101725673D01*
X114336580Y-101732883D01*
X114500434Y-101868916D01*
X114508881Y-101874831D01*
X114692756Y-101982279D01*
X114702042Y-101986729D01*
X114901001Y-102062703D01*
X114910899Y-102065579D01*
X115014250Y-102086606D01*
X115028299Y-102085410D01*
X115032000Y-102075065D01*
X115032000Y-102074517D01*
X115540000Y-102074517D01*
X115544064Y-102088359D01*
X115557478Y-102090393D01*
X115564184Y-102089534D01*
X115574262Y-102087392D01*
X115778255Y-102026191D01*
X115787842Y-102022433D01*
X115979095Y-101928739D01*
X115987945Y-101923464D01*
X116161328Y-101799792D01*
X116169200Y-101793139D01*
X116320052Y-101642812D01*
X116326730Y-101634965D01*
X116451003Y-101462020D01*
X116456313Y-101453183D01*
X116550670Y-101262267D01*
X116554469Y-101252672D01*
X116616377Y-101048910D01*
X116618555Y-101038837D01*
X116619986Y-101027962D01*
X116617775Y-101013778D01*
X116604617Y-101010000D01*
X115558115Y-101010000D01*
X115542876Y-101014475D01*
X115541671Y-101015865D01*
X115540000Y-101023548D01*
X115540000Y-102074517D01*
X115032000Y-102074517D01*
X115032000Y-100483885D01*
X115540000Y-100483885D01*
X115544475Y-100499124D01*
X115545865Y-100500329D01*
X115553548Y-100502000D01*
X116604344Y-100502000D01*
X116617875Y-100498027D01*
X116619180Y-100488947D01*
X116577214Y-100321875D01*
X116573894Y-100312124D01*
X116488972Y-100116814D01*
X116484105Y-100107739D01*
X116368426Y-99928926D01*
X116362136Y-99920757D01*
X116218806Y-99763240D01*
X116211273Y-99756215D01*
X116044139Y-99624222D01*
X116035552Y-99618517D01*
X115849117Y-99515599D01*
X115839705Y-99511369D01*
X115638959Y-99440280D01*
X115628988Y-99437646D01*
X115557837Y-99424972D01*
X115544540Y-99426432D01*
X115540000Y-99440989D01*
X115540000Y-100483885D01*
X115032000Y-100483885D01*
X115032000Y-99439102D01*
X115028082Y-99425758D01*
X115013806Y-99423771D01*
X114975324Y-99429660D01*
X114965288Y-99432051D01*
X114762868Y-99498212D01*
X114753359Y-99502209D01*
X114564463Y-99600542D01*
X114555738Y-99606036D01*
X114385433Y-99733905D01*
X114377726Y-99740748D01*
X114300478Y-99821584D01*
X114238954Y-99857014D01*
X114168042Y-99853557D01*
X114110255Y-99812311D01*
X114091402Y-99778763D01*
X114049767Y-99667703D01*
X114046615Y-99659295D01*
X113959261Y-99542739D01*
X113842705Y-99455385D01*
X113706316Y-99404255D01*
X113644134Y-99397500D01*
X113630500Y-99397500D01*
X113562379Y-99377498D01*
X113515886Y-99323842D01*
X113504500Y-99271500D01*
X113504500Y-98186371D01*
X113524502Y-98118250D01*
X113541405Y-98097276D01*
X114831276Y-96807405D01*
X114893588Y-96773379D01*
X114920371Y-96770500D01*
X126633629Y-96770500D01*
X126701750Y-96790502D01*
X126722724Y-96807405D01*
X128236595Y-98321276D01*
X128270621Y-98383588D01*
X128273500Y-98410371D01*
X128273500Y-100407655D01*
X128253498Y-100475776D01*
X128223153Y-100508415D01*
X128131100Y-100577530D01*
X128126965Y-100580635D01*
X127972629Y-100742138D01*
X127846743Y-100926680D01*
X127752688Y-101129305D01*
X127692989Y-101344570D01*
X127669251Y-101566695D01*
X127669548Y-101571848D01*
X127669548Y-101571851D01*
X127678417Y-101725673D01*
X127682110Y-101789715D01*
X127683247Y-101794761D01*
X127683248Y-101794767D01*
X127697606Y-101858475D01*
X127731222Y-102007639D01*
X127815266Y-102214616D01*
X127866942Y-102298944D01*
X127929291Y-102400688D01*
X127931987Y-102405088D01*
X128078250Y-102573938D01*
X128250126Y-102716632D01*
X128443000Y-102829338D01*
X128651692Y-102909030D01*
X128656760Y-102910061D01*
X128656763Y-102910062D01*
X128764017Y-102931883D01*
X128870597Y-102953567D01*
X128875772Y-102953757D01*
X128875774Y-102953757D01*
X129088673Y-102961564D01*
X129088677Y-102961564D01*
X129093837Y-102961753D01*
X129098957Y-102961097D01*
X129098959Y-102961097D01*
X129310288Y-102934025D01*
X129310289Y-102934025D01*
X129315416Y-102933368D01*
X129320366Y-102931883D01*
X129524429Y-102870661D01*
X129524434Y-102870659D01*
X129529384Y-102869174D01*
X129729994Y-102770896D01*
X129911860Y-102641173D01*
X130070096Y-102483489D01*
X130129594Y-102400689D01*
X130200453Y-102302077D01*
X130201776Y-102303028D01*
X130248645Y-102259857D01*
X130318580Y-102247625D01*
X130384026Y-102275144D01*
X130411875Y-102306994D01*
X130471987Y-102405088D01*
X130618250Y-102573938D01*
X130790126Y-102716632D01*
X130983000Y-102829338D01*
X131191692Y-102909030D01*
X131196760Y-102910061D01*
X131196763Y-102910062D01*
X131304017Y-102931883D01*
X131410597Y-102953567D01*
X131415772Y-102953757D01*
X131415774Y-102953757D01*
X131628673Y-102961564D01*
X131628677Y-102961564D01*
X131633837Y-102961753D01*
X131638957Y-102961097D01*
X131638959Y-102961097D01*
X131850288Y-102934025D01*
X131850289Y-102934025D01*
X131855416Y-102933368D01*
X131860366Y-102931883D01*
X132064429Y-102870661D01*
X132064434Y-102870659D01*
X132069384Y-102869174D01*
X132269994Y-102770896D01*
X132451860Y-102641173D01*
X132519331Y-102573938D01*
X132560479Y-102532933D01*
X132622851Y-102499017D01*
X132693658Y-102504205D01*
X132750419Y-102546851D01*
X132767401Y-102577954D01*
X132808676Y-102688054D01*
X132817214Y-102703649D01*
X132893715Y-102805724D01*
X132906276Y-102818285D01*
X133008351Y-102894786D01*
X133023946Y-102903324D01*
X133144394Y-102948478D01*
X133159649Y-102952105D01*
X133210514Y-102957631D01*
X133217328Y-102958000D01*
X133839885Y-102958000D01*
X133855124Y-102953525D01*
X133856329Y-102952135D01*
X133858000Y-102944452D01*
X133858000Y-102939884D01*
X134366000Y-102939884D01*
X134370475Y-102955123D01*
X134371865Y-102956328D01*
X134379548Y-102957999D01*
X135006669Y-102957999D01*
X135013490Y-102957629D01*
X135064352Y-102952105D01*
X135079604Y-102948479D01*
X135200054Y-102903324D01*
X135215649Y-102894786D01*
X135317724Y-102818285D01*
X135330285Y-102805724D01*
X135406786Y-102703649D01*
X135415324Y-102688054D01*
X135460478Y-102567606D01*
X135464105Y-102552351D01*
X135469631Y-102501486D01*
X135470000Y-102494672D01*
X135470000Y-101872115D01*
X135465525Y-101856876D01*
X135464135Y-101855671D01*
X135456452Y-101854000D01*
X134384115Y-101854000D01*
X134368876Y-101858475D01*
X134367671Y-101859865D01*
X134366000Y-101867548D01*
X134366000Y-102939884D01*
X133858000Y-102939884D01*
X133858000Y-101327885D01*
X134366000Y-101327885D01*
X134370475Y-101343124D01*
X134371865Y-101344329D01*
X134379548Y-101346000D01*
X135451884Y-101346000D01*
X135467123Y-101341525D01*
X135468328Y-101340135D01*
X135469999Y-101332452D01*
X135469999Y-100705331D01*
X135469629Y-100698510D01*
X135464105Y-100647648D01*
X135460479Y-100632396D01*
X135415324Y-100511946D01*
X135406786Y-100496351D01*
X135330285Y-100394276D01*
X135317724Y-100381715D01*
X135215649Y-100305214D01*
X135200054Y-100296676D01*
X135079606Y-100251522D01*
X135064351Y-100247895D01*
X135013486Y-100242369D01*
X135006672Y-100242000D01*
X134384115Y-100242000D01*
X134368876Y-100246475D01*
X134367671Y-100247865D01*
X134366000Y-100255548D01*
X134366000Y-101327885D01*
X133858000Y-101327885D01*
X133858000Y-100260116D01*
X133853525Y-100244877D01*
X133852135Y-100243672D01*
X133844452Y-100242001D01*
X133217331Y-100242001D01*
X133210510Y-100242371D01*
X133159648Y-100247895D01*
X133144396Y-100251521D01*
X133023946Y-100296676D01*
X133008351Y-100305214D01*
X132906276Y-100381715D01*
X132893715Y-100394276D01*
X132817214Y-100496351D01*
X132808676Y-100511946D01*
X132767297Y-100622322D01*
X132724655Y-100679087D01*
X132658093Y-100703786D01*
X132588744Y-100688578D01*
X132556121Y-100662891D01*
X132505148Y-100606873D01*
X132505142Y-100606867D01*
X132501670Y-100603051D01*
X132378407Y-100505703D01*
X132337345Y-100447785D01*
X132330500Y-100406821D01*
X132330500Y-93584371D01*
X132350502Y-93516250D01*
X132367405Y-93495276D01*
X134897276Y-90965405D01*
X134959588Y-90931379D01*
X134986371Y-90928500D01*
X150763629Y-90928500D01*
X150831750Y-90948502D01*
X150852724Y-90965405D01*
X153384595Y-93497276D01*
X153418621Y-93559588D01*
X153421500Y-93586371D01*
X153421500Y-107560647D01*
X153401498Y-107628768D01*
X153371153Y-107661407D01*
X153270046Y-107737320D01*
X153270040Y-107737326D01*
X153265905Y-107740430D01*
X153110024Y-107903550D01*
X153107112Y-107907819D01*
X153107106Y-107907827D01*
X153013503Y-108045043D01*
X152958592Y-108090046D01*
X152888067Y-108098217D01*
X152824320Y-108066963D01*
X152803623Y-108042479D01*
X152733634Y-107934291D01*
X152733632Y-107934288D01*
X152730826Y-107929951D01*
X152578977Y-107763071D01*
X152574926Y-107759872D01*
X152574922Y-107759868D01*
X152405966Y-107626434D01*
X152405962Y-107626432D01*
X152401911Y-107623232D01*
X152204383Y-107514191D01*
X151991698Y-107438876D01*
X151941297Y-107429898D01*
X151774657Y-107400214D01*
X151774653Y-107400214D01*
X151769569Y-107399308D01*
X151697574Y-107398429D01*
X151549129Y-107396615D01*
X151549127Y-107396615D01*
X151543959Y-107396552D01*
X151320929Y-107430680D01*
X151106468Y-107500777D01*
X150906335Y-107604960D01*
X150902202Y-107608063D01*
X150902199Y-107608065D01*
X150831154Y-107661407D01*
X150725905Y-107740430D01*
X150570024Y-107903550D01*
X150567112Y-107907819D01*
X150567106Y-107907827D01*
X150473503Y-108045043D01*
X150418592Y-108090046D01*
X150348067Y-108098217D01*
X150284320Y-108066963D01*
X150263623Y-108042479D01*
X150193634Y-107934291D01*
X150193632Y-107934288D01*
X150190826Y-107929951D01*
X150038977Y-107763071D01*
X150034926Y-107759872D01*
X150034922Y-107759868D01*
X149865966Y-107626434D01*
X149865962Y-107626432D01*
X149861911Y-107623232D01*
X149664383Y-107514191D01*
X149451698Y-107438876D01*
X149401297Y-107429898D01*
X149234657Y-107400214D01*
X149234653Y-107400214D01*
X149229569Y-107399308D01*
X149157574Y-107398429D01*
X149009129Y-107396615D01*
X149009127Y-107396615D01*
X149003959Y-107396552D01*
X148780929Y-107430680D01*
X148566468Y-107500777D01*
X148366335Y-107604960D01*
X148362202Y-107608063D01*
X148362199Y-107608065D01*
X148291154Y-107661407D01*
X148185905Y-107740430D01*
X148030024Y-107903550D01*
X148027112Y-107907819D01*
X148027106Y-107907827D01*
X147933503Y-108045043D01*
X147878592Y-108090046D01*
X147808067Y-108098217D01*
X147744320Y-108066963D01*
X147723623Y-108042479D01*
X147653634Y-107934291D01*
X147653632Y-107934288D01*
X147650826Y-107929951D01*
X147498977Y-107763071D01*
X147494926Y-107759872D01*
X147494922Y-107759868D01*
X147325966Y-107626434D01*
X147325962Y-107626432D01*
X147321911Y-107623232D01*
X147124383Y-107514191D01*
X146911698Y-107438876D01*
X146861297Y-107429898D01*
X146694657Y-107400214D01*
X146694653Y-107400214D01*
X146689569Y-107399308D01*
X146617574Y-107398429D01*
X146469129Y-107396615D01*
X146469127Y-107396615D01*
X146463959Y-107396552D01*
X146240929Y-107430680D01*
X146026468Y-107500777D01*
X145826335Y-107604960D01*
X145822202Y-107608063D01*
X145822199Y-107608065D01*
X145751154Y-107661407D01*
X145645905Y-107740430D01*
X145490024Y-107903550D01*
X145487112Y-107907819D01*
X145487106Y-107907827D01*
X145393503Y-108045043D01*
X145338592Y-108090046D01*
X145268067Y-108098217D01*
X145204320Y-108066963D01*
X145183623Y-108042479D01*
X145113634Y-107934291D01*
X145113632Y-107934288D01*
X145110826Y-107929951D01*
X144958977Y-107763071D01*
X144954926Y-107759872D01*
X144954922Y-107759868D01*
X144785966Y-107626434D01*
X144785962Y-107626432D01*
X144781911Y-107623232D01*
X144584383Y-107514191D01*
X144371698Y-107438876D01*
X144321297Y-107429898D01*
X144154657Y-107400214D01*
X144154653Y-107400214D01*
X144149569Y-107399308D01*
X144077574Y-107398429D01*
X143929129Y-107396615D01*
X143929127Y-107396615D01*
X143923959Y-107396552D01*
X143700929Y-107430680D01*
X143486468Y-107500777D01*
X143286335Y-107604960D01*
X143282202Y-107608063D01*
X143282199Y-107608065D01*
X143211154Y-107661407D01*
X143105905Y-107740430D01*
X142950024Y-107903550D01*
X142947112Y-107907819D01*
X142947106Y-107907827D01*
X142853503Y-108045043D01*
X142798592Y-108090046D01*
X142728067Y-108098217D01*
X142664320Y-108066963D01*
X142643623Y-108042479D01*
X142573634Y-107934291D01*
X142573632Y-107934288D01*
X142570826Y-107929951D01*
X142418977Y-107763071D01*
X142414926Y-107759872D01*
X142414922Y-107759868D01*
X142245966Y-107626434D01*
X142245962Y-107626432D01*
X142241911Y-107623232D01*
X142044383Y-107514191D01*
X141831698Y-107438876D01*
X141781297Y-107429898D01*
X141614657Y-107400214D01*
X141614653Y-107400214D01*
X141609569Y-107399308D01*
X141537574Y-107398429D01*
X141389129Y-107396615D01*
X141389127Y-107396615D01*
X141383959Y-107396552D01*
X141160929Y-107430680D01*
X140946468Y-107500777D01*
X140746335Y-107604960D01*
X140742202Y-107608063D01*
X140742199Y-107608065D01*
X140671154Y-107661407D01*
X140565905Y-107740430D01*
X140410024Y-107903550D01*
X140407112Y-107907819D01*
X140407106Y-107907827D01*
X140313503Y-108045043D01*
X140258592Y-108090046D01*
X140188067Y-108098217D01*
X140124320Y-108066963D01*
X140103623Y-108042479D01*
X140033634Y-107934291D01*
X140033632Y-107934288D01*
X140030826Y-107929951D01*
X139878977Y-107763071D01*
X139874926Y-107759872D01*
X139874922Y-107759868D01*
X139705966Y-107626434D01*
X139705962Y-107626432D01*
X139701911Y-107623232D01*
X139504383Y-107514191D01*
X139291698Y-107438876D01*
X139241297Y-107429898D01*
X139074657Y-107400214D01*
X139074653Y-107400214D01*
X139069569Y-107399308D01*
X138997574Y-107398429D01*
X138849129Y-107396615D01*
X138849127Y-107396615D01*
X138843959Y-107396552D01*
X138620929Y-107430680D01*
X138406468Y-107500777D01*
X138206335Y-107604960D01*
X138202202Y-107608063D01*
X138202199Y-107608065D01*
X138131154Y-107661407D01*
X138025905Y-107740430D01*
X137870024Y-107903550D01*
X137867112Y-107907819D01*
X137867106Y-107907827D01*
X137773503Y-108045043D01*
X137718592Y-108090046D01*
X137648067Y-108098217D01*
X137584320Y-108066963D01*
X137563623Y-108042479D01*
X137493634Y-107934291D01*
X137493632Y-107934288D01*
X137490826Y-107929951D01*
X137338977Y-107763071D01*
X137334926Y-107759872D01*
X137334922Y-107759868D01*
X137165966Y-107626434D01*
X137165962Y-107626432D01*
X137161911Y-107623232D01*
X136964383Y-107514191D01*
X136751698Y-107438876D01*
X136701297Y-107429898D01*
X136534657Y-107400214D01*
X136534653Y-107400214D01*
X136529569Y-107399308D01*
X136457574Y-107398429D01*
X136309129Y-107396615D01*
X136309127Y-107396615D01*
X136303959Y-107396552D01*
X136080929Y-107430680D01*
X135866468Y-107500777D01*
X135666335Y-107604960D01*
X135662202Y-107608063D01*
X135662199Y-107608065D01*
X135591154Y-107661407D01*
X135485905Y-107740430D01*
X135330024Y-107903550D01*
X135202878Y-108089940D01*
X135200704Y-108094624D01*
X135200702Y-108094627D01*
X135129402Y-108248231D01*
X135107881Y-108294593D01*
X135047585Y-108512013D01*
X135023609Y-108736362D01*
X135023906Y-108741514D01*
X135023906Y-108741518D01*
X135029618Y-108840578D01*
X135036597Y-108961614D01*
X135037734Y-108966660D01*
X135037735Y-108966666D01*
X135058984Y-109060952D01*
X135086200Y-109181720D01*
X135088142Y-109186502D01*
X135088143Y-109186506D01*
X135124822Y-109276835D01*
X135171086Y-109390769D01*
X135288975Y-109583147D01*
X135436702Y-109753687D01*
X135610299Y-109897810D01*
X135614751Y-109900412D01*
X135614756Y-109900415D01*
X135750107Y-109979508D01*
X135805103Y-110011645D01*
X136015884Y-110092134D01*
X136020952Y-110093165D01*
X136020955Y-110093166D01*
X136129404Y-110115230D01*
X136236981Y-110137117D01*
X136242156Y-110137307D01*
X136242158Y-110137307D01*
X136457292Y-110145196D01*
X136457296Y-110145196D01*
X136462456Y-110145385D01*
X136467576Y-110144729D01*
X136467578Y-110144729D01*
X136536985Y-110135838D01*
X136686253Y-110116716D01*
X136691202Y-110115231D01*
X136691208Y-110115230D01*
X136897413Y-110053365D01*
X136897412Y-110053365D01*
X136902363Y-110051880D01*
X137019964Y-109994268D01*
X137100331Y-109954897D01*
X137100336Y-109954894D01*
X137104982Y-109952618D01*
X137109192Y-109949615D01*
X137109197Y-109949612D01*
X137284455Y-109824601D01*
X137284459Y-109824597D01*
X137288667Y-109821596D01*
X137448487Y-109662333D01*
X137569370Y-109494107D01*
X137625364Y-109450459D01*
X137696068Y-109444013D01*
X137759032Y-109476816D01*
X137779125Y-109501799D01*
X137826275Y-109578743D01*
X137826279Y-109578748D01*
X137828975Y-109583147D01*
X137976702Y-109753687D01*
X138150299Y-109897810D01*
X138154751Y-109900412D01*
X138154756Y-109900415D01*
X138290107Y-109979508D01*
X138345103Y-110011645D01*
X138555884Y-110092134D01*
X138560952Y-110093165D01*
X138560955Y-110093166D01*
X138669404Y-110115230D01*
X138776981Y-110137117D01*
X138782156Y-110137307D01*
X138782158Y-110137307D01*
X138997292Y-110145196D01*
X138997296Y-110145196D01*
X139002456Y-110145385D01*
X139007576Y-110144729D01*
X139007578Y-110144729D01*
X139076985Y-110135838D01*
X139226253Y-110116716D01*
X139231202Y-110115231D01*
X139231208Y-110115230D01*
X139437413Y-110053365D01*
X139437412Y-110053365D01*
X139442363Y-110051880D01*
X139559964Y-109994268D01*
X139640331Y-109954897D01*
X139640336Y-109954894D01*
X139644982Y-109952618D01*
X139649192Y-109949615D01*
X139649197Y-109949612D01*
X139824455Y-109824601D01*
X139824459Y-109824597D01*
X139828667Y-109821596D01*
X139988487Y-109662333D01*
X140109370Y-109494107D01*
X140165364Y-109450459D01*
X140236068Y-109444013D01*
X140299032Y-109476816D01*
X140319125Y-109501799D01*
X140366275Y-109578743D01*
X140366279Y-109578748D01*
X140368975Y-109583147D01*
X140516702Y-109753687D01*
X140690299Y-109897810D01*
X140694751Y-109900412D01*
X140694756Y-109900415D01*
X140830107Y-109979508D01*
X140885103Y-110011645D01*
X141095884Y-110092134D01*
X141100952Y-110093165D01*
X141100955Y-110093166D01*
X141209404Y-110115230D01*
X141316981Y-110137117D01*
X141322156Y-110137307D01*
X141322158Y-110137307D01*
X141537292Y-110145196D01*
X141537296Y-110145196D01*
X141542456Y-110145385D01*
X141547576Y-110144729D01*
X141547578Y-110144729D01*
X141616985Y-110135838D01*
X141766253Y-110116716D01*
X141771202Y-110115231D01*
X141771208Y-110115230D01*
X141977413Y-110053365D01*
X141977412Y-110053365D01*
X141982363Y-110051880D01*
X142099964Y-109994268D01*
X142180331Y-109954897D01*
X142180336Y-109954894D01*
X142184982Y-109952618D01*
X142189192Y-109949615D01*
X142189197Y-109949612D01*
X142364455Y-109824601D01*
X142364459Y-109824597D01*
X142368667Y-109821596D01*
X142528487Y-109662333D01*
X142649370Y-109494107D01*
X142705364Y-109450459D01*
X142776068Y-109444013D01*
X142839032Y-109476816D01*
X142859125Y-109501799D01*
X142906275Y-109578743D01*
X142906279Y-109578748D01*
X142908975Y-109583147D01*
X143056702Y-109753687D01*
X143230299Y-109897810D01*
X143234751Y-109900412D01*
X143234756Y-109900415D01*
X143370107Y-109979508D01*
X143425103Y-110011645D01*
X143635884Y-110092134D01*
X143640952Y-110093165D01*
X143640955Y-110093166D01*
X143749404Y-110115230D01*
X143856981Y-110137117D01*
X143862156Y-110137307D01*
X143862158Y-110137307D01*
X144077292Y-110145196D01*
X144077296Y-110145196D01*
X144082456Y-110145385D01*
X144087576Y-110144729D01*
X144087578Y-110144729D01*
X144156985Y-110135838D01*
X144306253Y-110116716D01*
X144311202Y-110115231D01*
X144311208Y-110115230D01*
X144517413Y-110053365D01*
X144517412Y-110053365D01*
X144522363Y-110051880D01*
X144639964Y-109994268D01*
X144720331Y-109954897D01*
X144720336Y-109954894D01*
X144724982Y-109952618D01*
X144729192Y-109949615D01*
X144729197Y-109949612D01*
X144904455Y-109824601D01*
X144904459Y-109824597D01*
X144908667Y-109821596D01*
X145068487Y-109662333D01*
X145189370Y-109494107D01*
X145245364Y-109450459D01*
X145316068Y-109444013D01*
X145379032Y-109476816D01*
X145399125Y-109501799D01*
X145446275Y-109578743D01*
X145446279Y-109578748D01*
X145448975Y-109583147D01*
X145596702Y-109753687D01*
X145770299Y-109897810D01*
X145774751Y-109900412D01*
X145774756Y-109900415D01*
X145910107Y-109979508D01*
X145965103Y-110011645D01*
X146175884Y-110092134D01*
X146180952Y-110093165D01*
X146180955Y-110093166D01*
X146289404Y-110115230D01*
X146396981Y-110137117D01*
X146402156Y-110137307D01*
X146402158Y-110137307D01*
X146617292Y-110145196D01*
X146617296Y-110145196D01*
X146622456Y-110145385D01*
X146627576Y-110144729D01*
X146627578Y-110144729D01*
X146696985Y-110135838D01*
X146846253Y-110116716D01*
X146851202Y-110115231D01*
X146851208Y-110115230D01*
X147057413Y-110053365D01*
X147057412Y-110053365D01*
X147062363Y-110051880D01*
X147179964Y-109994268D01*
X147260331Y-109954897D01*
X147260336Y-109954894D01*
X147264982Y-109952618D01*
X147269192Y-109949615D01*
X147269197Y-109949612D01*
X147444455Y-109824601D01*
X147444459Y-109824597D01*
X147448667Y-109821596D01*
X147608487Y-109662333D01*
X147729370Y-109494107D01*
X147785364Y-109450459D01*
X147856068Y-109444013D01*
X147919032Y-109476816D01*
X147939125Y-109501799D01*
X147986275Y-109578743D01*
X147986279Y-109578748D01*
X147988975Y-109583147D01*
X148136702Y-109753687D01*
X148310299Y-109897810D01*
X148314751Y-109900412D01*
X148314756Y-109900415D01*
X148450107Y-109979508D01*
X148505103Y-110011645D01*
X148715884Y-110092134D01*
X148720952Y-110093165D01*
X148720955Y-110093166D01*
X148829404Y-110115230D01*
X148936981Y-110137117D01*
X148942156Y-110137307D01*
X148942158Y-110137307D01*
X149157292Y-110145196D01*
X149157296Y-110145196D01*
X149162456Y-110145385D01*
X149167576Y-110144729D01*
X149167578Y-110144729D01*
X149236985Y-110135838D01*
X149386253Y-110116716D01*
X149391202Y-110115231D01*
X149391208Y-110115230D01*
X149597413Y-110053365D01*
X149597412Y-110053365D01*
X149602363Y-110051880D01*
X149719964Y-109994268D01*
X149800331Y-109954897D01*
X149800336Y-109954894D01*
X149804982Y-109952618D01*
X149809192Y-109949615D01*
X149809197Y-109949612D01*
X149984455Y-109824601D01*
X149984459Y-109824597D01*
X149988667Y-109821596D01*
X150148487Y-109662333D01*
X150269370Y-109494107D01*
X150325364Y-109450459D01*
X150396068Y-109444013D01*
X150459032Y-109476816D01*
X150479125Y-109501799D01*
X150526275Y-109578743D01*
X150526279Y-109578748D01*
X150528975Y-109583147D01*
X150676702Y-109753687D01*
X150850299Y-109897810D01*
X150854751Y-109900412D01*
X150854756Y-109900415D01*
X150990107Y-109979508D01*
X151045103Y-110011645D01*
X151255884Y-110092134D01*
X151260952Y-110093165D01*
X151260955Y-110093166D01*
X151369404Y-110115230D01*
X151476981Y-110137117D01*
X151482156Y-110137307D01*
X151482158Y-110137307D01*
X151697292Y-110145196D01*
X151697296Y-110145196D01*
X151702456Y-110145385D01*
X151707576Y-110144729D01*
X151707578Y-110144729D01*
X151776985Y-110135838D01*
X151926253Y-110116716D01*
X151931202Y-110115231D01*
X151931208Y-110115230D01*
X152137413Y-110053365D01*
X152137412Y-110053365D01*
X152142363Y-110051880D01*
X152259964Y-109994268D01*
X152340331Y-109954897D01*
X152340336Y-109954894D01*
X152344982Y-109952618D01*
X152349192Y-109949615D01*
X152349197Y-109949612D01*
X152524455Y-109824601D01*
X152524459Y-109824597D01*
X152528667Y-109821596D01*
X152688487Y-109662333D01*
X152809370Y-109494107D01*
X152865364Y-109450459D01*
X152936068Y-109444013D01*
X152999032Y-109476816D01*
X153019125Y-109501799D01*
X153066275Y-109578743D01*
X153066279Y-109578748D01*
X153068975Y-109583147D01*
X153216702Y-109753687D01*
X153390299Y-109897810D01*
X153394751Y-109900412D01*
X153394756Y-109900415D01*
X153530107Y-109979508D01*
X153585103Y-110011645D01*
X153795884Y-110092134D01*
X153800952Y-110093165D01*
X153800955Y-110093166D01*
X153909404Y-110115230D01*
X154016981Y-110137117D01*
X154022156Y-110137307D01*
X154022158Y-110137307D01*
X154237292Y-110145196D01*
X154237296Y-110145196D01*
X154242456Y-110145385D01*
X154247576Y-110144729D01*
X154247578Y-110144729D01*
X154316985Y-110135838D01*
X154466253Y-110116716D01*
X154471202Y-110115231D01*
X154471208Y-110115230D01*
X154677413Y-110053365D01*
X154677412Y-110053365D01*
X154682363Y-110051880D01*
X154799964Y-109994268D01*
X154880331Y-109954897D01*
X154880336Y-109954894D01*
X154884982Y-109952618D01*
X154889192Y-109949615D01*
X154889197Y-109949612D01*
X155064455Y-109824601D01*
X155064459Y-109824597D01*
X155068667Y-109821596D01*
X155228487Y-109662333D01*
X155360150Y-109479105D01*
X155460118Y-109276835D01*
X155525708Y-109060952D01*
X155543635Y-108924784D01*
X155554721Y-108840578D01*
X155554722Y-108840572D01*
X155555158Y-108837256D01*
X155556802Y-108770000D01*
X155554037Y-108736362D01*
X157883609Y-108736362D01*
X157883906Y-108741514D01*
X157883906Y-108741518D01*
X157889618Y-108840578D01*
X157896597Y-108961614D01*
X157897734Y-108966660D01*
X157897735Y-108966666D01*
X157918984Y-109060952D01*
X157946200Y-109181720D01*
X157948142Y-109186502D01*
X157948143Y-109186506D01*
X157984822Y-109276835D01*
X158031086Y-109390769D01*
X158148975Y-109583147D01*
X158296702Y-109753687D01*
X158470299Y-109897810D01*
X158474751Y-109900412D01*
X158474756Y-109900415D01*
X158610107Y-109979508D01*
X158665103Y-110011645D01*
X158875884Y-110092134D01*
X158880952Y-110093165D01*
X158880955Y-110093166D01*
X158989404Y-110115230D01*
X159096981Y-110137117D01*
X159102156Y-110137307D01*
X159102158Y-110137307D01*
X159317292Y-110145196D01*
X159317296Y-110145196D01*
X159322456Y-110145385D01*
X159327576Y-110144729D01*
X159327578Y-110144729D01*
X159396985Y-110135838D01*
X159546253Y-110116716D01*
X159551202Y-110115231D01*
X159551208Y-110115230D01*
X159757413Y-110053365D01*
X159757412Y-110053365D01*
X159762363Y-110051880D01*
X159879964Y-109994268D01*
X159960331Y-109954897D01*
X159960336Y-109954894D01*
X159964982Y-109952618D01*
X159969192Y-109949615D01*
X159969197Y-109949612D01*
X160144455Y-109824601D01*
X160144459Y-109824597D01*
X160148667Y-109821596D01*
X160308487Y-109662333D01*
X160429370Y-109494107D01*
X160485364Y-109450459D01*
X160556068Y-109444013D01*
X160619032Y-109476816D01*
X160639125Y-109501799D01*
X160686275Y-109578743D01*
X160686279Y-109578748D01*
X160688975Y-109583147D01*
X160836702Y-109753687D01*
X161010299Y-109897810D01*
X161014751Y-109900412D01*
X161014756Y-109900415D01*
X161150107Y-109979508D01*
X161205103Y-110011645D01*
X161415884Y-110092134D01*
X161420952Y-110093165D01*
X161420955Y-110093166D01*
X161529404Y-110115230D01*
X161636981Y-110137117D01*
X161642156Y-110137307D01*
X161642158Y-110137307D01*
X161857292Y-110145196D01*
X161857296Y-110145196D01*
X161862456Y-110145385D01*
X161867576Y-110144729D01*
X161867578Y-110144729D01*
X161936985Y-110135838D01*
X162086253Y-110116716D01*
X162091202Y-110115231D01*
X162091208Y-110115230D01*
X162297413Y-110053365D01*
X162297412Y-110053365D01*
X162302363Y-110051880D01*
X162419964Y-109994268D01*
X162500331Y-109954897D01*
X162500336Y-109954894D01*
X162504982Y-109952618D01*
X162509192Y-109949615D01*
X162509197Y-109949612D01*
X162684455Y-109824601D01*
X162684459Y-109824597D01*
X162688667Y-109821596D01*
X162848487Y-109662333D01*
X162969370Y-109494107D01*
X163025364Y-109450459D01*
X163096068Y-109444013D01*
X163159032Y-109476816D01*
X163179125Y-109501799D01*
X163226275Y-109578743D01*
X163226279Y-109578748D01*
X163228975Y-109583147D01*
X163376702Y-109753687D01*
X163550299Y-109897810D01*
X163554751Y-109900412D01*
X163554756Y-109900415D01*
X163690107Y-109979508D01*
X163745103Y-110011645D01*
X163955884Y-110092134D01*
X163960952Y-110093165D01*
X163960955Y-110093166D01*
X164069404Y-110115230D01*
X164176981Y-110137117D01*
X164182156Y-110137307D01*
X164182158Y-110137307D01*
X164397292Y-110145196D01*
X164397296Y-110145196D01*
X164402456Y-110145385D01*
X164407576Y-110144729D01*
X164407578Y-110144729D01*
X164476985Y-110135838D01*
X164626253Y-110116716D01*
X164631202Y-110115231D01*
X164631208Y-110115230D01*
X164837413Y-110053365D01*
X164837412Y-110053365D01*
X164842363Y-110051880D01*
X164959964Y-109994268D01*
X165040331Y-109954897D01*
X165040336Y-109954894D01*
X165044982Y-109952618D01*
X165049192Y-109949615D01*
X165049197Y-109949612D01*
X165224455Y-109824601D01*
X165224459Y-109824597D01*
X165228667Y-109821596D01*
X165388487Y-109662333D01*
X165509370Y-109494107D01*
X165565364Y-109450459D01*
X165636068Y-109444013D01*
X165699032Y-109476816D01*
X165719125Y-109501799D01*
X165766275Y-109578743D01*
X165766279Y-109578748D01*
X165768975Y-109583147D01*
X165916702Y-109753687D01*
X166090299Y-109897810D01*
X166094751Y-109900412D01*
X166094756Y-109900415D01*
X166230107Y-109979508D01*
X166285103Y-110011645D01*
X166495884Y-110092134D01*
X166500952Y-110093165D01*
X166500955Y-110093166D01*
X166609404Y-110115230D01*
X166716981Y-110137117D01*
X166722156Y-110137307D01*
X166722158Y-110137307D01*
X166937292Y-110145196D01*
X166937296Y-110145196D01*
X166942456Y-110145385D01*
X166947576Y-110144729D01*
X166947578Y-110144729D01*
X167016985Y-110135838D01*
X167166253Y-110116716D01*
X167171202Y-110115231D01*
X167171208Y-110115230D01*
X167377413Y-110053365D01*
X167377412Y-110053365D01*
X167382363Y-110051880D01*
X167499964Y-109994268D01*
X167580331Y-109954897D01*
X167580336Y-109954894D01*
X167584982Y-109952618D01*
X167589192Y-109949615D01*
X167589197Y-109949612D01*
X167764455Y-109824601D01*
X167764459Y-109824597D01*
X167768667Y-109821596D01*
X167928487Y-109662333D01*
X168049370Y-109494107D01*
X168105364Y-109450459D01*
X168176068Y-109444013D01*
X168239032Y-109476816D01*
X168259125Y-109501799D01*
X168306275Y-109578743D01*
X168306279Y-109578748D01*
X168308975Y-109583147D01*
X168456702Y-109753687D01*
X168630299Y-109897810D01*
X168634751Y-109900412D01*
X168634756Y-109900415D01*
X168770107Y-109979508D01*
X168825103Y-110011645D01*
X169035884Y-110092134D01*
X169040952Y-110093165D01*
X169040955Y-110093166D01*
X169149404Y-110115230D01*
X169256981Y-110137117D01*
X169262156Y-110137307D01*
X169262158Y-110137307D01*
X169477292Y-110145196D01*
X169477296Y-110145196D01*
X169482456Y-110145385D01*
X169487576Y-110144729D01*
X169487578Y-110144729D01*
X169556985Y-110135838D01*
X169706253Y-110116716D01*
X169711202Y-110115231D01*
X169711208Y-110115230D01*
X169917413Y-110053365D01*
X169917412Y-110053365D01*
X169922363Y-110051880D01*
X170039964Y-109994268D01*
X170120331Y-109954897D01*
X170120336Y-109954894D01*
X170124982Y-109952618D01*
X170129192Y-109949615D01*
X170129197Y-109949612D01*
X170304455Y-109824601D01*
X170304459Y-109824597D01*
X170308667Y-109821596D01*
X170468487Y-109662333D01*
X170589370Y-109494107D01*
X170645364Y-109450459D01*
X170716068Y-109444013D01*
X170779032Y-109476816D01*
X170799125Y-109501799D01*
X170846275Y-109578743D01*
X170846279Y-109578748D01*
X170848975Y-109583147D01*
X170996702Y-109753687D01*
X171170299Y-109897810D01*
X171174751Y-109900412D01*
X171174756Y-109900415D01*
X171310107Y-109979508D01*
X171365103Y-110011645D01*
X171575884Y-110092134D01*
X171580952Y-110093165D01*
X171580955Y-110093166D01*
X171689404Y-110115230D01*
X171796981Y-110137117D01*
X171802156Y-110137307D01*
X171802158Y-110137307D01*
X172017292Y-110145196D01*
X172017296Y-110145196D01*
X172022456Y-110145385D01*
X172027576Y-110144729D01*
X172027578Y-110144729D01*
X172096985Y-110135838D01*
X172246253Y-110116716D01*
X172251202Y-110115231D01*
X172251208Y-110115230D01*
X172457413Y-110053365D01*
X172457412Y-110053365D01*
X172462363Y-110051880D01*
X172579964Y-109994268D01*
X172660331Y-109954897D01*
X172660336Y-109954894D01*
X172664982Y-109952618D01*
X172669192Y-109949615D01*
X172669197Y-109949612D01*
X172844455Y-109824601D01*
X172844459Y-109824597D01*
X172848667Y-109821596D01*
X173008487Y-109662333D01*
X173140150Y-109479105D01*
X173240118Y-109276835D01*
X173305708Y-109060952D01*
X173323635Y-108924784D01*
X173334721Y-108840578D01*
X173334722Y-108840572D01*
X173335158Y-108837256D01*
X173336802Y-108770000D01*
X173318315Y-108545132D01*
X173263349Y-108326304D01*
X173173380Y-108119391D01*
X173125282Y-108045043D01*
X173053634Y-107934291D01*
X173053632Y-107934288D01*
X173050826Y-107929951D01*
X172898977Y-107763071D01*
X172894926Y-107759872D01*
X172894922Y-107759868D01*
X172725966Y-107626434D01*
X172725962Y-107626432D01*
X172721911Y-107623232D01*
X172524383Y-107514191D01*
X172311698Y-107438876D01*
X172261297Y-107429898D01*
X172094657Y-107400214D01*
X172094653Y-107400214D01*
X172089569Y-107399308D01*
X172017574Y-107398429D01*
X171869129Y-107396615D01*
X171869127Y-107396615D01*
X171863959Y-107396552D01*
X171640929Y-107430680D01*
X171426468Y-107500777D01*
X171226335Y-107604960D01*
X171222202Y-107608063D01*
X171222199Y-107608065D01*
X171151154Y-107661407D01*
X171045905Y-107740430D01*
X170890024Y-107903550D01*
X170887112Y-107907819D01*
X170887106Y-107907827D01*
X170793503Y-108045043D01*
X170738592Y-108090046D01*
X170668067Y-108098217D01*
X170604320Y-108066963D01*
X170583623Y-108042479D01*
X170513634Y-107934291D01*
X170513632Y-107934288D01*
X170510826Y-107929951D01*
X170358977Y-107763071D01*
X170354926Y-107759872D01*
X170354922Y-107759868D01*
X170185966Y-107626434D01*
X170185962Y-107626432D01*
X170181911Y-107623232D01*
X169984383Y-107514191D01*
X169771698Y-107438876D01*
X169721297Y-107429898D01*
X169554657Y-107400214D01*
X169554653Y-107400214D01*
X169549569Y-107399308D01*
X169477574Y-107398429D01*
X169329129Y-107396615D01*
X169329127Y-107396615D01*
X169323959Y-107396552D01*
X169100929Y-107430680D01*
X168886468Y-107500777D01*
X168686335Y-107604960D01*
X168682202Y-107608063D01*
X168682199Y-107608065D01*
X168611154Y-107661407D01*
X168505905Y-107740430D01*
X168350024Y-107903550D01*
X168347112Y-107907819D01*
X168347106Y-107907827D01*
X168253503Y-108045043D01*
X168198592Y-108090046D01*
X168128067Y-108098217D01*
X168064320Y-108066963D01*
X168043623Y-108042479D01*
X167973634Y-107934291D01*
X167973632Y-107934288D01*
X167970826Y-107929951D01*
X167818977Y-107763071D01*
X167814926Y-107759872D01*
X167814922Y-107759868D01*
X167645966Y-107626434D01*
X167645962Y-107626432D01*
X167641911Y-107623232D01*
X167444383Y-107514191D01*
X167231698Y-107438876D01*
X167181297Y-107429898D01*
X167014657Y-107400214D01*
X167014653Y-107400214D01*
X167009569Y-107399308D01*
X166937574Y-107398429D01*
X166789129Y-107396615D01*
X166789127Y-107396615D01*
X166783959Y-107396552D01*
X166560929Y-107430680D01*
X166346468Y-107500777D01*
X166146335Y-107604960D01*
X166142202Y-107608063D01*
X166142199Y-107608065D01*
X166071154Y-107661407D01*
X165965905Y-107740430D01*
X165810024Y-107903550D01*
X165807112Y-107907819D01*
X165807106Y-107907827D01*
X165713503Y-108045043D01*
X165658592Y-108090046D01*
X165588067Y-108098217D01*
X165524320Y-108066963D01*
X165503623Y-108042479D01*
X165433634Y-107934291D01*
X165433632Y-107934288D01*
X165430826Y-107929951D01*
X165278977Y-107763071D01*
X165274926Y-107759872D01*
X165274922Y-107759868D01*
X165105966Y-107626434D01*
X165105962Y-107626432D01*
X165101911Y-107623232D01*
X164904383Y-107514191D01*
X164691698Y-107438876D01*
X164641297Y-107429898D01*
X164474657Y-107400214D01*
X164474653Y-107400214D01*
X164469569Y-107399308D01*
X164397574Y-107398429D01*
X164249129Y-107396615D01*
X164249127Y-107396615D01*
X164243959Y-107396552D01*
X164020929Y-107430680D01*
X163806468Y-107500777D01*
X163606335Y-107604960D01*
X163602202Y-107608063D01*
X163602199Y-107608065D01*
X163531154Y-107661407D01*
X163425905Y-107740430D01*
X163270024Y-107903550D01*
X163267112Y-107907819D01*
X163267106Y-107907827D01*
X163173503Y-108045043D01*
X163118592Y-108090046D01*
X163048067Y-108098217D01*
X162984320Y-108066963D01*
X162963623Y-108042479D01*
X162893634Y-107934291D01*
X162893632Y-107934288D01*
X162890826Y-107929951D01*
X162738977Y-107763071D01*
X162734926Y-107759872D01*
X162734922Y-107759868D01*
X162565966Y-107626434D01*
X162565962Y-107626432D01*
X162561911Y-107623232D01*
X162364383Y-107514191D01*
X162151698Y-107438876D01*
X162101297Y-107429898D01*
X161934657Y-107400214D01*
X161934653Y-107400214D01*
X161929569Y-107399308D01*
X161857574Y-107398429D01*
X161709129Y-107396615D01*
X161709127Y-107396615D01*
X161703959Y-107396552D01*
X161480929Y-107430680D01*
X161266468Y-107500777D01*
X161066335Y-107604960D01*
X161062202Y-107608063D01*
X161062199Y-107608065D01*
X160991154Y-107661407D01*
X160885905Y-107740430D01*
X160730024Y-107903550D01*
X160727112Y-107907819D01*
X160727106Y-107907827D01*
X160633503Y-108045043D01*
X160578592Y-108090046D01*
X160508067Y-108098217D01*
X160444320Y-108066963D01*
X160423623Y-108042479D01*
X160353634Y-107934291D01*
X160353632Y-107934288D01*
X160350826Y-107929951D01*
X160198977Y-107763071D01*
X160194926Y-107759872D01*
X160194922Y-107759868D01*
X160025966Y-107626434D01*
X160025962Y-107626432D01*
X160021911Y-107623232D01*
X159824383Y-107514191D01*
X159611698Y-107438876D01*
X159561297Y-107429898D01*
X159394657Y-107400214D01*
X159394653Y-107400214D01*
X159389569Y-107399308D01*
X159317574Y-107398429D01*
X159169129Y-107396615D01*
X159169127Y-107396615D01*
X159163959Y-107396552D01*
X158940929Y-107430680D01*
X158726468Y-107500777D01*
X158526335Y-107604960D01*
X158522202Y-107608063D01*
X158522199Y-107608065D01*
X158451154Y-107661407D01*
X158345905Y-107740430D01*
X158190024Y-107903550D01*
X158062878Y-108089940D01*
X158060704Y-108094624D01*
X158060702Y-108094627D01*
X157989402Y-108248231D01*
X157967881Y-108294593D01*
X157907585Y-108512013D01*
X157883609Y-108736362D01*
X155554037Y-108736362D01*
X155538315Y-108545132D01*
X155483349Y-108326304D01*
X155393380Y-108119391D01*
X155345282Y-108045043D01*
X155273634Y-107934291D01*
X155273632Y-107934288D01*
X155270826Y-107929951D01*
X155118977Y-107763071D01*
X155114926Y-107759872D01*
X155114922Y-107759868D01*
X155022633Y-107686983D01*
X154986408Y-107658374D01*
X154945345Y-107600457D01*
X154938500Y-107559492D01*
X154938500Y-103822703D01*
X172390743Y-103822703D01*
X172428268Y-104107734D01*
X172504129Y-104385036D01*
X172616923Y-104649476D01*
X172764561Y-104896161D01*
X172944313Y-105120528D01*
X173152851Y-105318423D01*
X173386317Y-105486186D01*
X173390112Y-105488195D01*
X173390113Y-105488196D01*
X173411869Y-105499715D01*
X173640392Y-105620712D01*
X173910373Y-105719511D01*
X174191264Y-105780755D01*
X174219841Y-105783004D01*
X174414282Y-105798307D01*
X174414291Y-105798307D01*
X174416739Y-105798500D01*
X174572271Y-105798500D01*
X174574407Y-105798354D01*
X174574418Y-105798354D01*
X174782548Y-105784165D01*
X174782554Y-105784164D01*
X174786825Y-105783873D01*
X174791020Y-105783004D01*
X174791022Y-105783004D01*
X174927584Y-105754723D01*
X175068342Y-105725574D01*
X175339343Y-105629607D01*
X175594812Y-105497750D01*
X175598313Y-105495289D01*
X175598317Y-105495287D01*
X175712418Y-105415095D01*
X175830023Y-105332441D01*
X176040622Y-105136740D01*
X176222713Y-104914268D01*
X176372927Y-104669142D01*
X176488483Y-104405898D01*
X176567244Y-104129406D01*
X176607751Y-103844784D01*
X176607845Y-103826951D01*
X176609235Y-103561583D01*
X176609235Y-103561576D01*
X176609257Y-103557297D01*
X176571732Y-103272266D01*
X176495871Y-102994964D01*
X176469598Y-102933368D01*
X176384763Y-102734476D01*
X176384761Y-102734472D01*
X176383077Y-102730524D01*
X176244523Y-102499017D01*
X176237643Y-102487521D01*
X176237640Y-102487517D01*
X176235439Y-102483839D01*
X176055687Y-102259472D01*
X175902918Y-102114500D01*
X175850258Y-102064527D01*
X175850255Y-102064525D01*
X175847149Y-102061577D01*
X175613683Y-101893814D01*
X175591843Y-101882250D01*
X175549614Y-101859891D01*
X175359608Y-101759288D01*
X175137708Y-101678084D01*
X175093658Y-101661964D01*
X175093656Y-101661963D01*
X175089627Y-101660489D01*
X174808736Y-101599245D01*
X174777685Y-101596801D01*
X174585718Y-101581693D01*
X174585709Y-101581693D01*
X174583261Y-101581500D01*
X174427729Y-101581500D01*
X174425593Y-101581646D01*
X174425582Y-101581646D01*
X174217452Y-101595835D01*
X174217446Y-101595836D01*
X174213175Y-101596127D01*
X174208980Y-101596996D01*
X174208978Y-101596996D01*
X174072417Y-101625276D01*
X173931658Y-101654426D01*
X173660657Y-101750393D01*
X173656848Y-101752359D01*
X173459922Y-101854000D01*
X173405188Y-101882250D01*
X173401687Y-101884711D01*
X173401683Y-101884713D01*
X173396908Y-101888069D01*
X173169977Y-102047559D01*
X173127112Y-102087392D01*
X172990203Y-102214616D01*
X172959378Y-102243260D01*
X172777287Y-102465732D01*
X172627073Y-102710858D01*
X172511517Y-102974102D01*
X172432756Y-103250594D01*
X172392249Y-103535216D01*
X172392227Y-103539505D01*
X172392226Y-103539512D01*
X172390765Y-103818417D01*
X172390743Y-103822703D01*
X154938500Y-103822703D01*
X154938500Y-93287063D01*
X154939933Y-93268114D01*
X154942097Y-93253886D01*
X154943198Y-93246651D01*
X154941781Y-93229221D01*
X154938915Y-93193991D01*
X154938500Y-93183777D01*
X154938500Y-93175707D01*
X154938078Y-93172087D01*
X154938077Y-93172069D01*
X154935208Y-93147461D01*
X154934775Y-93143086D01*
X154929454Y-93077661D01*
X154929453Y-93077658D01*
X154928860Y-93070363D01*
X154926604Y-93063399D01*
X154925413Y-93057440D01*
X154924029Y-93051585D01*
X154923182Y-93044319D01*
X154898265Y-92975673D01*
X154896848Y-92971545D01*
X154876607Y-92909064D01*
X154876606Y-92909062D01*
X154874351Y-92902101D01*
X154870555Y-92895846D01*
X154868049Y-92890372D01*
X154865330Y-92884942D01*
X154862833Y-92878063D01*
X154822809Y-92817016D01*
X154820472Y-92813312D01*
X154808927Y-92794285D01*
X154805539Y-92788703D01*
X154785509Y-92755693D01*
X154785505Y-92755688D01*
X154782595Y-92750892D01*
X154775197Y-92742516D01*
X154775223Y-92742493D01*
X154772574Y-92739503D01*
X154769866Y-92736264D01*
X154765856Y-92730148D01*
X154760549Y-92725121D01*
X154760546Y-92725117D01*
X154709617Y-92676872D01*
X154707175Y-92674494D01*
X151713770Y-89681089D01*
X151701384Y-89666677D01*
X151692851Y-89655082D01*
X151692846Y-89655077D01*
X151688508Y-89649182D01*
X151682930Y-89644443D01*
X151682927Y-89644440D01*
X151648232Y-89614965D01*
X151640716Y-89608035D01*
X151635021Y-89602340D01*
X151618736Y-89589456D01*
X151612749Y-89584719D01*
X151609345Y-89581928D01*
X151559297Y-89539409D01*
X151559295Y-89539408D01*
X151553715Y-89534667D01*
X151547199Y-89531339D01*
X151542150Y-89527972D01*
X151537021Y-89524805D01*
X151531284Y-89520266D01*
X151465125Y-89489345D01*
X151461225Y-89487439D01*
X151396192Y-89454231D01*
X151389084Y-89452492D01*
X151383441Y-89450393D01*
X151377678Y-89448476D01*
X151371050Y-89445378D01*
X151299583Y-89430513D01*
X151295299Y-89429543D01*
X151224390Y-89412192D01*
X151218788Y-89411844D01*
X151218785Y-89411844D01*
X151213236Y-89411500D01*
X151213238Y-89411464D01*
X151209245Y-89411225D01*
X151205053Y-89410851D01*
X151197885Y-89409360D01*
X151134120Y-89411085D01*
X151120479Y-89411454D01*
X151117072Y-89411500D01*
X134687070Y-89411500D01*
X134668120Y-89410067D01*
X134653885Y-89407901D01*
X134653881Y-89407901D01*
X134646651Y-89406801D01*
X134639359Y-89407394D01*
X134639356Y-89407394D01*
X134593982Y-89411085D01*
X134583767Y-89411500D01*
X134575707Y-89411500D01*
X134572073Y-89411924D01*
X134572067Y-89411924D01*
X134559042Y-89413443D01*
X134547480Y-89414791D01*
X134543132Y-89415221D01*
X134470364Y-89421140D01*
X134463403Y-89423395D01*
X134457463Y-89424582D01*
X134451588Y-89425971D01*
X134444319Y-89426818D01*
X134375670Y-89451736D01*
X134371542Y-89453153D01*
X134309064Y-89473393D01*
X134309062Y-89473394D01*
X134302101Y-89475649D01*
X134295846Y-89479445D01*
X134290372Y-89481951D01*
X134284942Y-89484670D01*
X134278063Y-89487167D01*
X134271943Y-89491180D01*
X134271942Y-89491180D01*
X134217024Y-89527186D01*
X134213320Y-89529523D01*
X134150893Y-89567405D01*
X134142516Y-89574803D01*
X134142492Y-89574776D01*
X134139500Y-89577429D01*
X134136267Y-89580132D01*
X134130148Y-89584144D01*
X134100951Y-89614965D01*
X134076872Y-89640383D01*
X134074494Y-89642825D01*
X131083089Y-92634230D01*
X131068677Y-92646616D01*
X131057082Y-92655149D01*
X131057077Y-92655154D01*
X131051182Y-92659492D01*
X131046443Y-92665070D01*
X131046440Y-92665073D01*
X131016965Y-92699768D01*
X131010035Y-92707284D01*
X131004340Y-92712979D01*
X131002060Y-92715861D01*
X130986719Y-92735251D01*
X130983928Y-92738655D01*
X130941409Y-92788703D01*
X130936667Y-92794285D01*
X130933339Y-92800801D01*
X130929972Y-92805850D01*
X130926805Y-92810979D01*
X130922266Y-92816716D01*
X130891345Y-92882875D01*
X130889442Y-92886769D01*
X130856231Y-92951808D01*
X130854492Y-92958916D01*
X130852393Y-92964559D01*
X130850476Y-92970322D01*
X130847378Y-92976950D01*
X130845888Y-92984112D01*
X130845888Y-92984113D01*
X130832514Y-93048412D01*
X130831544Y-93052696D01*
X130814192Y-93123610D01*
X130813500Y-93134764D01*
X130813464Y-93134762D01*
X130813225Y-93138755D01*
X130812851Y-93142947D01*
X130811360Y-93150115D01*
X130811558Y-93157432D01*
X130813454Y-93227521D01*
X130813500Y-93230928D01*
X130813500Y-100407655D01*
X130793498Y-100475776D01*
X130763153Y-100508415D01*
X130671100Y-100577530D01*
X130666965Y-100580635D01*
X130512629Y-100742138D01*
X130405201Y-100899621D01*
X130350293Y-100944621D01*
X130279768Y-100952792D01*
X130216021Y-100921538D01*
X130195324Y-100897054D01*
X130114822Y-100772617D01*
X130114820Y-100772614D01*
X130112014Y-100768277D01*
X129961670Y-100603051D01*
X129838407Y-100505703D01*
X129797345Y-100447785D01*
X129790500Y-100406821D01*
X129790500Y-98111070D01*
X129791933Y-98092120D01*
X129794099Y-98077885D01*
X129794099Y-98077881D01*
X129795199Y-98070651D01*
X129790915Y-98017982D01*
X129790500Y-98007767D01*
X129790500Y-97999707D01*
X129787209Y-97971480D01*
X129786778Y-97967121D01*
X129781453Y-97901660D01*
X129780860Y-97894364D01*
X129778605Y-97887403D01*
X129777418Y-97881463D01*
X129776029Y-97875588D01*
X129775182Y-97868319D01*
X129750264Y-97799670D01*
X129748847Y-97795542D01*
X129728607Y-97733064D01*
X129728606Y-97733062D01*
X129726351Y-97726101D01*
X129722555Y-97719846D01*
X129720049Y-97714372D01*
X129717330Y-97708942D01*
X129714833Y-97702063D01*
X129674814Y-97641024D01*
X129672467Y-97637305D01*
X129641403Y-97586113D01*
X129634595Y-97574893D01*
X129627197Y-97566516D01*
X129627224Y-97566492D01*
X129624571Y-97563500D01*
X129621868Y-97560267D01*
X129617856Y-97554148D01*
X129561617Y-97500872D01*
X129559175Y-97498494D01*
X127583770Y-95523089D01*
X127571384Y-95508677D01*
X127562851Y-95497082D01*
X127562846Y-95497077D01*
X127558508Y-95491182D01*
X127552930Y-95486443D01*
X127552927Y-95486440D01*
X127518232Y-95456965D01*
X127510716Y-95450035D01*
X127505021Y-95444340D01*
X127488736Y-95431456D01*
X127482749Y-95426719D01*
X127479345Y-95423928D01*
X127429297Y-95381409D01*
X127429295Y-95381408D01*
X127423715Y-95376667D01*
X127417199Y-95373339D01*
X127412150Y-95369972D01*
X127407021Y-95366805D01*
X127401284Y-95362266D01*
X127335125Y-95331345D01*
X127331225Y-95329439D01*
X127266192Y-95296231D01*
X127259084Y-95294492D01*
X127253441Y-95292393D01*
X127247678Y-95290476D01*
X127241050Y-95287378D01*
X127169583Y-95272513D01*
X127165299Y-95271543D01*
X127130958Y-95263140D01*
X127094390Y-95254192D01*
X127088788Y-95253844D01*
X127088785Y-95253844D01*
X127083236Y-95253500D01*
X127083238Y-95253464D01*
X127079245Y-95253225D01*
X127075053Y-95252851D01*
X127067885Y-95251360D01*
X127004120Y-95253085D01*
X126990479Y-95253454D01*
X126987072Y-95253500D01*
X114621069Y-95253500D01*
X114602121Y-95252067D01*
X114594780Y-95250950D01*
X114587883Y-95249901D01*
X114587881Y-95249901D01*
X114580651Y-95248801D01*
X114573359Y-95249394D01*
X114573356Y-95249394D01*
X114527982Y-95253085D01*
X114517767Y-95253500D01*
X114509707Y-95253500D01*
X114496417Y-95255049D01*
X114481493Y-95256789D01*
X114477118Y-95257222D01*
X114411661Y-95262546D01*
X114411658Y-95262547D01*
X114404363Y-95263140D01*
X114397399Y-95265396D01*
X114391440Y-95266587D01*
X114385585Y-95267971D01*
X114378319Y-95268818D01*
X114309673Y-95293735D01*
X114305545Y-95295152D01*
X114243064Y-95315393D01*
X114243062Y-95315394D01*
X114236101Y-95317649D01*
X114229846Y-95321445D01*
X114224372Y-95323951D01*
X114218942Y-95326670D01*
X114212063Y-95329167D01*
X114205943Y-95333180D01*
X114205942Y-95333180D01*
X114151024Y-95369186D01*
X114147320Y-95371523D01*
X114084893Y-95409405D01*
X114076516Y-95416803D01*
X114076492Y-95416776D01*
X114073500Y-95419429D01*
X114070267Y-95422132D01*
X114064148Y-95426144D01*
X114034951Y-95456965D01*
X114010872Y-95482383D01*
X114008494Y-95484825D01*
X112257089Y-97236230D01*
X112242677Y-97248616D01*
X112231082Y-97257149D01*
X112231077Y-97257154D01*
X112225182Y-97261492D01*
X112220443Y-97267070D01*
X112220440Y-97267073D01*
X112190965Y-97301768D01*
X112184035Y-97309284D01*
X112178340Y-97314979D01*
X112176060Y-97317861D01*
X112160719Y-97337251D01*
X112157928Y-97340655D01*
X112115409Y-97390703D01*
X112110667Y-97396285D01*
X112107339Y-97402801D01*
X112103972Y-97407850D01*
X112100805Y-97412979D01*
X112096266Y-97418716D01*
X112065345Y-97484875D01*
X112063442Y-97488769D01*
X112030231Y-97553808D01*
X112028492Y-97560916D01*
X112026393Y-97566559D01*
X112024476Y-97572322D01*
X112021378Y-97578950D01*
X112019888Y-97586112D01*
X112019888Y-97586113D01*
X112006514Y-97650412D01*
X112005544Y-97654696D01*
X111988192Y-97725610D01*
X111987844Y-97731212D01*
X111987844Y-97731215D01*
X111987500Y-97736762D01*
X111987500Y-97736764D01*
X111987464Y-97736762D01*
X111987225Y-97740755D01*
X111986851Y-97744947D01*
X111985360Y-97752115D01*
X111985558Y-97759432D01*
X111987454Y-97829521D01*
X111987500Y-97832928D01*
X111987500Y-99271500D01*
X111967498Y-99339621D01*
X111913842Y-99386114D01*
X111861500Y-99397500D01*
X111847866Y-99397500D01*
X111785684Y-99404255D01*
X111649295Y-99455385D01*
X111532739Y-99542739D01*
X111445385Y-99659295D01*
X111394255Y-99795684D01*
X111387500Y-99857866D01*
X111387500Y-101654134D01*
X107696000Y-101654134D01*
X107696000Y-78479966D01*
X114320257Y-78479966D01*
X114350565Y-78614446D01*
X114353645Y-78624275D01*
X114433770Y-78821603D01*
X114438413Y-78830794D01*
X114549694Y-79012388D01*
X114555777Y-79020699D01*
X114695213Y-79181667D01*
X114702580Y-79188883D01*
X114866434Y-79324916D01*
X114874881Y-79330831D01*
X115058756Y-79438279D01*
X115068042Y-79442729D01*
X115267001Y-79518703D01*
X115276899Y-79521579D01*
X115380250Y-79542606D01*
X115394299Y-79541410D01*
X115398000Y-79531065D01*
X115398000Y-79530517D01*
X115906000Y-79530517D01*
X115910064Y-79544359D01*
X115923478Y-79546393D01*
X115930184Y-79545534D01*
X115940262Y-79543392D01*
X116144255Y-79482191D01*
X116153842Y-79478433D01*
X116345095Y-79384739D01*
X116353945Y-79379464D01*
X116527328Y-79255792D01*
X116535200Y-79249139D01*
X116686052Y-79098812D01*
X116692730Y-79090965D01*
X116817003Y-78918020D01*
X116822313Y-78909183D01*
X116916670Y-78718267D01*
X116920469Y-78708672D01*
X116982377Y-78504910D01*
X116984555Y-78494837D01*
X116985986Y-78483962D01*
X116983775Y-78469778D01*
X116970617Y-78466000D01*
X115924115Y-78466000D01*
X115908876Y-78470475D01*
X115907671Y-78471865D01*
X115906000Y-78479548D01*
X115906000Y-79530517D01*
X115398000Y-79530517D01*
X115398000Y-78484115D01*
X115393525Y-78468876D01*
X115392135Y-78467671D01*
X115384452Y-78466000D01*
X114335225Y-78466000D01*
X114321694Y-78469973D01*
X114320257Y-78479966D01*
X107696000Y-78479966D01*
X107696000Y-75638695D01*
X114289251Y-75638695D01*
X114289548Y-75643848D01*
X114289548Y-75643851D01*
X114295011Y-75738590D01*
X114302110Y-75861715D01*
X114303247Y-75866761D01*
X114303248Y-75866767D01*
X114310848Y-75900488D01*
X114351222Y-76079639D01*
X114397470Y-76193534D01*
X114417759Y-76243500D01*
X114435266Y-76286616D01*
X114437965Y-76291020D01*
X114532346Y-76445036D01*
X114551987Y-76477088D01*
X114698250Y-76645938D01*
X114870126Y-76788632D01*
X114943955Y-76831774D01*
X114992679Y-76883412D01*
X115005750Y-76953195D01*
X114979019Y-77018967D01*
X114938562Y-77052327D01*
X114930457Y-77056546D01*
X114921738Y-77062036D01*
X114751433Y-77189905D01*
X114743726Y-77196748D01*
X114596590Y-77350717D01*
X114590104Y-77358727D01*
X114470098Y-77534649D01*
X114465000Y-77543623D01*
X114375338Y-77736783D01*
X114371775Y-77746470D01*
X114316389Y-77946183D01*
X114317912Y-77954607D01*
X114330292Y-77958000D01*
X116970344Y-77958000D01*
X116983875Y-77954027D01*
X116985180Y-77944947D01*
X116943214Y-77777875D01*
X116939894Y-77768124D01*
X116854972Y-77572814D01*
X116850105Y-77563739D01*
X116734426Y-77384926D01*
X116728136Y-77376757D01*
X116584806Y-77219240D01*
X116577273Y-77212215D01*
X116410139Y-77080222D01*
X116401556Y-77074520D01*
X116364602Y-77054120D01*
X116314631Y-77003687D01*
X116299859Y-76934245D01*
X116324975Y-76867839D01*
X116352327Y-76841232D01*
X116375797Y-76824491D01*
X116531860Y-76713173D01*
X116552054Y-76693050D01*
X116686435Y-76559137D01*
X116690096Y-76555489D01*
X116749594Y-76472689D01*
X116817435Y-76378277D01*
X116820453Y-76374077D01*
X116894874Y-76223498D01*
X116917136Y-76178453D01*
X116917137Y-76178451D01*
X116919430Y-76173811D01*
X116984370Y-75960069D01*
X117013529Y-75738590D01*
X117013611Y-75735240D01*
X117015074Y-75675365D01*
X117015074Y-75675361D01*
X117015156Y-75672000D01*
X116996852Y-75449361D01*
X116942431Y-75232702D01*
X116853354Y-75027840D01*
X116732014Y-74840277D01*
X116581670Y-74675051D01*
X116577619Y-74671852D01*
X116577615Y-74671848D01*
X116410414Y-74539800D01*
X116410410Y-74539798D01*
X116406359Y-74536598D01*
X116365053Y-74513796D01*
X116315084Y-74463364D01*
X116300312Y-74393921D01*
X116325428Y-74327516D01*
X116352780Y-74300909D01*
X116396603Y-74269650D01*
X116531860Y-74173173D01*
X116594775Y-74110478D01*
X116686435Y-74019137D01*
X116690096Y-74015489D01*
X116742203Y-73942974D01*
X116798198Y-73899326D01*
X116844526Y-73890500D01*
X119247629Y-73890500D01*
X119315750Y-73910502D01*
X119336724Y-73927405D01*
X132766230Y-87356911D01*
X132778616Y-87371323D01*
X132787149Y-87382918D01*
X132787154Y-87382923D01*
X132791492Y-87388818D01*
X132797070Y-87393557D01*
X132797073Y-87393560D01*
X132831768Y-87423035D01*
X132839284Y-87429965D01*
X132844979Y-87435660D01*
X132847861Y-87437940D01*
X132867251Y-87453281D01*
X132870655Y-87456072D01*
X132920703Y-87498591D01*
X132926285Y-87503333D01*
X132932801Y-87506661D01*
X132937838Y-87510020D01*
X132942977Y-87513194D01*
X132948716Y-87517734D01*
X132955349Y-87520834D01*
X133014837Y-87548636D01*
X133018791Y-87550569D01*
X133083808Y-87583769D01*
X133090924Y-87585510D01*
X133096554Y-87587604D01*
X133102321Y-87589523D01*
X133108950Y-87592621D01*
X133116110Y-87594110D01*
X133116112Y-87594111D01*
X133180396Y-87607482D01*
X133184680Y-87608452D01*
X133255610Y-87625808D01*
X133261212Y-87626156D01*
X133261215Y-87626156D01*
X133266764Y-87626500D01*
X133266762Y-87626536D01*
X133270752Y-87626775D01*
X133274950Y-87627150D01*
X133282115Y-87628640D01*
X133359504Y-87626546D01*
X133362912Y-87626500D01*
X157666930Y-87626500D01*
X157685880Y-87627933D01*
X157700115Y-87630099D01*
X157700119Y-87630099D01*
X157707349Y-87631199D01*
X157714641Y-87630606D01*
X157714644Y-87630606D01*
X157760018Y-87626915D01*
X157770233Y-87626500D01*
X157778293Y-87626500D01*
X157795680Y-87624473D01*
X157806507Y-87623211D01*
X157810882Y-87622778D01*
X157876339Y-87617454D01*
X157876342Y-87617453D01*
X157883637Y-87616860D01*
X157890601Y-87614604D01*
X157896560Y-87613413D01*
X157902415Y-87612029D01*
X157909681Y-87611182D01*
X157978327Y-87586265D01*
X157982455Y-87584848D01*
X158044936Y-87564607D01*
X158044938Y-87564606D01*
X158051899Y-87562351D01*
X158058154Y-87558555D01*
X158063628Y-87556049D01*
X158069058Y-87553330D01*
X158075937Y-87550833D01*
X158136976Y-87510814D01*
X158140680Y-87508477D01*
X158203107Y-87470595D01*
X158211484Y-87463197D01*
X158211508Y-87463224D01*
X158214500Y-87460571D01*
X158217733Y-87457868D01*
X158223852Y-87453856D01*
X158277128Y-87397617D01*
X158279506Y-87395175D01*
X159798319Y-85876362D01*
X170710609Y-85876362D01*
X170710906Y-85881514D01*
X170710906Y-85881518D01*
X170716618Y-85980578D01*
X170723597Y-86101614D01*
X170724734Y-86106660D01*
X170724735Y-86106666D01*
X170745984Y-86200952D01*
X170773200Y-86321720D01*
X170775142Y-86326502D01*
X170775143Y-86326506D01*
X170811822Y-86416835D01*
X170858086Y-86530769D01*
X170975975Y-86723147D01*
X171123702Y-86893687D01*
X171297299Y-87037810D01*
X171301751Y-87040412D01*
X171301756Y-87040415D01*
X171391091Y-87092618D01*
X171492103Y-87151645D01*
X171702884Y-87232134D01*
X171707952Y-87233165D01*
X171707955Y-87233166D01*
X171816404Y-87255230D01*
X171923981Y-87277117D01*
X171929156Y-87277307D01*
X171929158Y-87277307D01*
X172144292Y-87285196D01*
X172144296Y-87285196D01*
X172149456Y-87285385D01*
X172154576Y-87284729D01*
X172154578Y-87284729D01*
X172223985Y-87275838D01*
X172373253Y-87256716D01*
X172378202Y-87255231D01*
X172378208Y-87255230D01*
X172584413Y-87193365D01*
X172584412Y-87193365D01*
X172589363Y-87191880D01*
X172684419Y-87145312D01*
X172787331Y-87094897D01*
X172787336Y-87094894D01*
X172791982Y-87092618D01*
X172796192Y-87089615D01*
X172796197Y-87089612D01*
X172971455Y-86964601D01*
X172971459Y-86964597D01*
X172975667Y-86961596D01*
X173135487Y-86802333D01*
X173256370Y-86634107D01*
X173312364Y-86590459D01*
X173383068Y-86584013D01*
X173446032Y-86616816D01*
X173466125Y-86641799D01*
X173513275Y-86718743D01*
X173513279Y-86718748D01*
X173515975Y-86723147D01*
X173663702Y-86893687D01*
X173837299Y-87037810D01*
X173841751Y-87040412D01*
X173841756Y-87040415D01*
X173931091Y-87092618D01*
X174032103Y-87151645D01*
X174242884Y-87232134D01*
X174247952Y-87233165D01*
X174247955Y-87233166D01*
X174356404Y-87255230D01*
X174463981Y-87277117D01*
X174469156Y-87277307D01*
X174469158Y-87277307D01*
X174684292Y-87285196D01*
X174684296Y-87285196D01*
X174689456Y-87285385D01*
X174694576Y-87284729D01*
X174694578Y-87284729D01*
X174763985Y-87275838D01*
X174913253Y-87256716D01*
X174918202Y-87255231D01*
X174918208Y-87255230D01*
X175124413Y-87193365D01*
X175124412Y-87193365D01*
X175129363Y-87191880D01*
X175224419Y-87145312D01*
X175327331Y-87094897D01*
X175327336Y-87094894D01*
X175331982Y-87092618D01*
X175336192Y-87089615D01*
X175336197Y-87089612D01*
X175511455Y-86964601D01*
X175511459Y-86964597D01*
X175515667Y-86961596D01*
X175675487Y-86802333D01*
X175807150Y-86619105D01*
X175907118Y-86416835D01*
X175972708Y-86200952D01*
X175987381Y-86089498D01*
X176001721Y-85980578D01*
X176001722Y-85980572D01*
X176002158Y-85977256D01*
X176003802Y-85910000D01*
X175985315Y-85685132D01*
X175930349Y-85466304D01*
X175840380Y-85259391D01*
X175792282Y-85185043D01*
X175720634Y-85074291D01*
X175720632Y-85074288D01*
X175717826Y-85069951D01*
X175565977Y-84903071D01*
X175561926Y-84899872D01*
X175561922Y-84899868D01*
X175392966Y-84766434D01*
X175392962Y-84766432D01*
X175388911Y-84763232D01*
X175365535Y-84750328D01*
X175315564Y-84699896D01*
X175300792Y-84630453D01*
X175325908Y-84564047D01*
X175353259Y-84537441D01*
X175354091Y-84536848D01*
X175403548Y-84501570D01*
X175511455Y-84424601D01*
X175511459Y-84424597D01*
X175515667Y-84421596D01*
X175675487Y-84262333D01*
X175807150Y-84079105D01*
X175907118Y-83876835D01*
X175972708Y-83660952D01*
X176002158Y-83437256D01*
X176003802Y-83370000D01*
X175985315Y-83145132D01*
X175930349Y-82926304D01*
X175840380Y-82719391D01*
X175792282Y-82645043D01*
X175720634Y-82534291D01*
X175720632Y-82534288D01*
X175717826Y-82529951D01*
X175565977Y-82363071D01*
X175561926Y-82359872D01*
X175561922Y-82359868D01*
X175392966Y-82226434D01*
X175392962Y-82226432D01*
X175388911Y-82223232D01*
X175365535Y-82210328D01*
X175315564Y-82159896D01*
X175300792Y-82090453D01*
X175325908Y-82024047D01*
X175353259Y-81997441D01*
X175511455Y-81884601D01*
X175511459Y-81884597D01*
X175515667Y-81881596D01*
X175675487Y-81722333D01*
X175807150Y-81539105D01*
X175907118Y-81336835D01*
X175972708Y-81120952D01*
X176002158Y-80897256D01*
X176003802Y-80830000D01*
X175985315Y-80605132D01*
X175930349Y-80386304D01*
X175840380Y-80179391D01*
X175792282Y-80105043D01*
X175720634Y-79994291D01*
X175720632Y-79994288D01*
X175717826Y-79989951D01*
X175565977Y-79823071D01*
X175561926Y-79819872D01*
X175561922Y-79819868D01*
X175392966Y-79686434D01*
X175392962Y-79686432D01*
X175388911Y-79683232D01*
X175191383Y-79574191D01*
X174978698Y-79498876D01*
X174885031Y-79482191D01*
X174761657Y-79460214D01*
X174761653Y-79460214D01*
X174756569Y-79459308D01*
X174684574Y-79458429D01*
X174536129Y-79456615D01*
X174536127Y-79456615D01*
X174530959Y-79456552D01*
X174307929Y-79490680D01*
X174093468Y-79560777D01*
X173893335Y-79664960D01*
X173889202Y-79668063D01*
X173889199Y-79668065D01*
X173864734Y-79686434D01*
X173712905Y-79800430D01*
X173557024Y-79963550D01*
X173554112Y-79967819D01*
X173554106Y-79967827D01*
X173460503Y-80105043D01*
X173405592Y-80150046D01*
X173335067Y-80158217D01*
X173271320Y-80126963D01*
X173250623Y-80102479D01*
X173180634Y-79994291D01*
X173180632Y-79994288D01*
X173177826Y-79989951D01*
X173025977Y-79823071D01*
X173021926Y-79819872D01*
X173021922Y-79819868D01*
X172852966Y-79686434D01*
X172852962Y-79686432D01*
X172848911Y-79683232D01*
X172651383Y-79574191D01*
X172438698Y-79498876D01*
X172345031Y-79482191D01*
X172221657Y-79460214D01*
X172221653Y-79460214D01*
X172216569Y-79459308D01*
X172144574Y-79458429D01*
X171996129Y-79456615D01*
X171996127Y-79456615D01*
X171990959Y-79456552D01*
X171767929Y-79490680D01*
X171553468Y-79560777D01*
X171353335Y-79664960D01*
X171349202Y-79668063D01*
X171349199Y-79668065D01*
X171324734Y-79686434D01*
X171172905Y-79800430D01*
X171017024Y-79963550D01*
X170889878Y-80149940D01*
X170887704Y-80154624D01*
X170887702Y-80154627D01*
X170816402Y-80308231D01*
X170794881Y-80354593D01*
X170734585Y-80572013D01*
X170710609Y-80796362D01*
X170710906Y-80801514D01*
X170710906Y-80801518D01*
X170716618Y-80900578D01*
X170723597Y-81021614D01*
X170724734Y-81026660D01*
X170724735Y-81026666D01*
X170745984Y-81120952D01*
X170773200Y-81241720D01*
X170775142Y-81246502D01*
X170775143Y-81246506D01*
X170811822Y-81336835D01*
X170858086Y-81450769D01*
X170860785Y-81455173D01*
X170967058Y-81628595D01*
X170975975Y-81643147D01*
X171123702Y-81813687D01*
X171297299Y-81957810D01*
X171301751Y-81960412D01*
X171301756Y-81960415D01*
X171351069Y-81989231D01*
X171399792Y-82040870D01*
X171412863Y-82110653D01*
X171386131Y-82176425D01*
X171355595Y-82203783D01*
X171353335Y-82204960D01*
X171172905Y-82340430D01*
X171017024Y-82503550D01*
X170889878Y-82689940D01*
X170887704Y-82694624D01*
X170887702Y-82694627D01*
X170816402Y-82848231D01*
X170794881Y-82894593D01*
X170734585Y-83112013D01*
X170710609Y-83336362D01*
X170710906Y-83341514D01*
X170710906Y-83341518D01*
X170716618Y-83440578D01*
X170723597Y-83561614D01*
X170724734Y-83566660D01*
X170724735Y-83566666D01*
X170745984Y-83660952D01*
X170773200Y-83781720D01*
X170775142Y-83786502D01*
X170775143Y-83786506D01*
X170811822Y-83876835D01*
X170858086Y-83990769D01*
X170975975Y-84183147D01*
X171123702Y-84353687D01*
X171297299Y-84497810D01*
X171301751Y-84500412D01*
X171301756Y-84500415D01*
X171351069Y-84529231D01*
X171399792Y-84580870D01*
X171412863Y-84650653D01*
X171386131Y-84716425D01*
X171355595Y-84743783D01*
X171353335Y-84744960D01*
X171172905Y-84880430D01*
X171017024Y-85043550D01*
X170889878Y-85229940D01*
X170887704Y-85234624D01*
X170887702Y-85234627D01*
X170816402Y-85388231D01*
X170794881Y-85434593D01*
X170734585Y-85652013D01*
X170710609Y-85876362D01*
X159798319Y-85876362D01*
X167368911Y-78305770D01*
X167383323Y-78293384D01*
X167394918Y-78284851D01*
X167394923Y-78284846D01*
X167400818Y-78280508D01*
X167405557Y-78274930D01*
X167405560Y-78274927D01*
X167435035Y-78240232D01*
X167441965Y-78232716D01*
X167447660Y-78227021D01*
X167456964Y-78215261D01*
X167465281Y-78204749D01*
X167468072Y-78201345D01*
X167510591Y-78151297D01*
X167510592Y-78151295D01*
X167515333Y-78145715D01*
X167518661Y-78139199D01*
X167522028Y-78134150D01*
X167525195Y-78129021D01*
X167529734Y-78123284D01*
X167560655Y-78057125D01*
X167562561Y-78053225D01*
X167595769Y-77988192D01*
X167597508Y-77981084D01*
X167599607Y-77975441D01*
X167601524Y-77969678D01*
X167604622Y-77963050D01*
X167619487Y-77891583D01*
X167620457Y-77887299D01*
X167627551Y-77858307D01*
X167637808Y-77816390D01*
X167638500Y-77805236D01*
X167638536Y-77805238D01*
X167638775Y-77801245D01*
X167639149Y-77797053D01*
X167640640Y-77789885D01*
X167638546Y-77712479D01*
X167638500Y-77709072D01*
X167638500Y-75882703D01*
X172390743Y-75882703D01*
X172428268Y-76167734D01*
X172504129Y-76445036D01*
X172505813Y-76448984D01*
X172609917Y-76693050D01*
X172616923Y-76709476D01*
X172628693Y-76729142D01*
X172751752Y-76934758D01*
X172764561Y-76956161D01*
X172944313Y-77180528D01*
X173060963Y-77291225D01*
X173146241Y-77372150D01*
X173152851Y-77378423D01*
X173309394Y-77490911D01*
X173373570Y-77537026D01*
X173386317Y-77546186D01*
X173390112Y-77548195D01*
X173390113Y-77548196D01*
X173411869Y-77559715D01*
X173640392Y-77680712D01*
X173732558Y-77714440D01*
X173879257Y-77768124D01*
X173910373Y-77779511D01*
X174191264Y-77840755D01*
X174219841Y-77843004D01*
X174414282Y-77858307D01*
X174414291Y-77858307D01*
X174416739Y-77858500D01*
X174572271Y-77858500D01*
X174574407Y-77858354D01*
X174574418Y-77858354D01*
X174782548Y-77844165D01*
X174782554Y-77844164D01*
X174786825Y-77843873D01*
X174791020Y-77843004D01*
X174791022Y-77843004D01*
X174946602Y-77810785D01*
X175068342Y-77785574D01*
X175339343Y-77689607D01*
X175571737Y-77569660D01*
X175591005Y-77559715D01*
X175591006Y-77559715D01*
X175594812Y-77557750D01*
X175598313Y-77555289D01*
X175598317Y-77555287D01*
X175763285Y-77439345D01*
X175830023Y-77392441D01*
X175934691Y-77295177D01*
X176037479Y-77199661D01*
X176037481Y-77199658D01*
X176040622Y-77196740D01*
X176222713Y-76974268D01*
X176372927Y-76729142D01*
X176383328Y-76705449D01*
X176486757Y-76469830D01*
X176488483Y-76465898D01*
X176567244Y-76189406D01*
X176607751Y-75904784D01*
X176607845Y-75886951D01*
X176609235Y-75621583D01*
X176609235Y-75621576D01*
X176609257Y-75617297D01*
X176571732Y-75332266D01*
X176495871Y-75054964D01*
X176394972Y-74818411D01*
X176384763Y-74794476D01*
X176384761Y-74794472D01*
X176383077Y-74790524D01*
X176235439Y-74543839D01*
X176055687Y-74319472D01*
X175847149Y-74121577D01*
X175613683Y-73953814D01*
X175591843Y-73942250D01*
X175510773Y-73899326D01*
X175359608Y-73819288D01*
X175173057Y-73751020D01*
X175093658Y-73721964D01*
X175093656Y-73721963D01*
X175089627Y-73720489D01*
X174808736Y-73659245D01*
X174777685Y-73656801D01*
X174585718Y-73641693D01*
X174585709Y-73641693D01*
X174583261Y-73641500D01*
X174427729Y-73641500D01*
X174425593Y-73641646D01*
X174425582Y-73641646D01*
X174217452Y-73655835D01*
X174217446Y-73655836D01*
X174213175Y-73656127D01*
X174208980Y-73656996D01*
X174208978Y-73656996D01*
X174081005Y-73683498D01*
X173931658Y-73714426D01*
X173660657Y-73810393D01*
X173405188Y-73942250D01*
X173401687Y-73944711D01*
X173401683Y-73944713D01*
X173391594Y-73951804D01*
X173169977Y-74107559D01*
X173154892Y-74121577D01*
X173018165Y-74248632D01*
X172959378Y-74303260D01*
X172777287Y-74525732D01*
X172627073Y-74770858D01*
X172625347Y-74774791D01*
X172625346Y-74774792D01*
X172514266Y-75027840D01*
X172511517Y-75034102D01*
X172432756Y-75310594D01*
X172392249Y-75595216D01*
X172392227Y-75599505D01*
X172392226Y-75599512D01*
X172390826Y-75866767D01*
X172390743Y-75882703D01*
X167638500Y-75882703D01*
X167638500Y-61719338D01*
X167658502Y-61651217D01*
X167691331Y-61616760D01*
X167764454Y-61564601D01*
X167768667Y-61561596D01*
X167928487Y-61402333D01*
X168049370Y-61234107D01*
X168105364Y-61190459D01*
X168176068Y-61184013D01*
X168239032Y-61216816D01*
X168259125Y-61241799D01*
X168306275Y-61318743D01*
X168306279Y-61318748D01*
X168308975Y-61323147D01*
X168456702Y-61493687D01*
X168630299Y-61637810D01*
X168634751Y-61640412D01*
X168634756Y-61640415D01*
X168770107Y-61719508D01*
X168825103Y-61751645D01*
X169035884Y-61832134D01*
X169040952Y-61833165D01*
X169040955Y-61833166D01*
X169089021Y-61842945D01*
X169256981Y-61877117D01*
X169262156Y-61877307D01*
X169262158Y-61877307D01*
X169477292Y-61885196D01*
X169477296Y-61885196D01*
X169482456Y-61885385D01*
X169487576Y-61884729D01*
X169487578Y-61884729D01*
X169556985Y-61875838D01*
X169706253Y-61856716D01*
X169711202Y-61855231D01*
X169711208Y-61855230D01*
X169917413Y-61793365D01*
X169917412Y-61793365D01*
X169922363Y-61791880D01*
X170039964Y-61734268D01*
X170120331Y-61694897D01*
X170120336Y-61694894D01*
X170124982Y-61692618D01*
X170129192Y-61689615D01*
X170129197Y-61689612D01*
X170304455Y-61564601D01*
X170304459Y-61564597D01*
X170308667Y-61561596D01*
X170468487Y-61402333D01*
X170589370Y-61234107D01*
X170645364Y-61190459D01*
X170716068Y-61184013D01*
X170779032Y-61216816D01*
X170799125Y-61241799D01*
X170846275Y-61318743D01*
X170846279Y-61318748D01*
X170848975Y-61323147D01*
X170996702Y-61493687D01*
X171170299Y-61637810D01*
X171174751Y-61640412D01*
X171174756Y-61640415D01*
X171310107Y-61719508D01*
X171365103Y-61751645D01*
X171575884Y-61832134D01*
X171580952Y-61833165D01*
X171580955Y-61833166D01*
X171629021Y-61842945D01*
X171796981Y-61877117D01*
X171802156Y-61877307D01*
X171802158Y-61877307D01*
X172017292Y-61885196D01*
X172017296Y-61885196D01*
X172022456Y-61885385D01*
X172027576Y-61884729D01*
X172027578Y-61884729D01*
X172096985Y-61875838D01*
X172246253Y-61856716D01*
X172251202Y-61855231D01*
X172251208Y-61855230D01*
X172457413Y-61793365D01*
X172457412Y-61793365D01*
X172462363Y-61791880D01*
X172579964Y-61734268D01*
X172660331Y-61694897D01*
X172660336Y-61694894D01*
X172664982Y-61692618D01*
X172669192Y-61689615D01*
X172669197Y-61689612D01*
X172844455Y-61564601D01*
X172844459Y-61564597D01*
X172848667Y-61561596D01*
X173008487Y-61402333D01*
X173140150Y-61219105D01*
X173240118Y-61016835D01*
X173305708Y-60800952D01*
X173335158Y-60577256D01*
X173336802Y-60510000D01*
X173318315Y-60285132D01*
X173263349Y-60066304D01*
X173173380Y-59859391D01*
X173123913Y-59782926D01*
X173053634Y-59674291D01*
X173053632Y-59674288D01*
X173050826Y-59669951D01*
X172898977Y-59503071D01*
X172894926Y-59499872D01*
X172894922Y-59499868D01*
X172725966Y-59366434D01*
X172725962Y-59366432D01*
X172721911Y-59363232D01*
X172524383Y-59254191D01*
X172311698Y-59178876D01*
X172282795Y-59173727D01*
X172094657Y-59140214D01*
X172094653Y-59140214D01*
X172089569Y-59139308D01*
X172017574Y-59138429D01*
X171869129Y-59136615D01*
X171869127Y-59136615D01*
X171863959Y-59136552D01*
X171640929Y-59170680D01*
X171426468Y-59240777D01*
X171226335Y-59344960D01*
X171222202Y-59348063D01*
X171222199Y-59348065D01*
X171197734Y-59366434D01*
X171045905Y-59480430D01*
X170890024Y-59643550D01*
X170887112Y-59647819D01*
X170887106Y-59647827D01*
X170793503Y-59785043D01*
X170738592Y-59830046D01*
X170668067Y-59838217D01*
X170604320Y-59806963D01*
X170583623Y-59782479D01*
X170513634Y-59674291D01*
X170513632Y-59674288D01*
X170510826Y-59669951D01*
X170358977Y-59503071D01*
X170354926Y-59499872D01*
X170354922Y-59499868D01*
X170185966Y-59366434D01*
X170185962Y-59366432D01*
X170181911Y-59363232D01*
X169984383Y-59254191D01*
X169771698Y-59178876D01*
X169742795Y-59173727D01*
X169554657Y-59140214D01*
X169554653Y-59140214D01*
X169549569Y-59139308D01*
X169477574Y-59138429D01*
X169329129Y-59136615D01*
X169329127Y-59136615D01*
X169323959Y-59136552D01*
X169100929Y-59170680D01*
X168886468Y-59240777D01*
X168686335Y-59344960D01*
X168682202Y-59348063D01*
X168682199Y-59348065D01*
X168657734Y-59366434D01*
X168505905Y-59480430D01*
X168350024Y-59643550D01*
X168347112Y-59647819D01*
X168347106Y-59647827D01*
X168253503Y-59785043D01*
X168198592Y-59830046D01*
X168128067Y-59838217D01*
X168064320Y-59806963D01*
X168043623Y-59782479D01*
X167973634Y-59674291D01*
X167973632Y-59674288D01*
X167970826Y-59669951D01*
X167818977Y-59503071D01*
X167814926Y-59499872D01*
X167814922Y-59499868D01*
X167645966Y-59366434D01*
X167645962Y-59366432D01*
X167641911Y-59363232D01*
X167444383Y-59254191D01*
X167231698Y-59178876D01*
X167202795Y-59173727D01*
X167014657Y-59140214D01*
X167014653Y-59140214D01*
X167009569Y-59139308D01*
X166937574Y-59138429D01*
X166789129Y-59136615D01*
X166789127Y-59136615D01*
X166783959Y-59136552D01*
X166560929Y-59170680D01*
X166346468Y-59240777D01*
X166146335Y-59344960D01*
X166142202Y-59348063D01*
X166142199Y-59348065D01*
X166117734Y-59366434D01*
X165965905Y-59480430D01*
X165810024Y-59643550D01*
X165807112Y-59647819D01*
X165807106Y-59647827D01*
X165713503Y-59785043D01*
X165658592Y-59830046D01*
X165588067Y-59838217D01*
X165524320Y-59806963D01*
X165503623Y-59782479D01*
X165433634Y-59674291D01*
X165433632Y-59674288D01*
X165430826Y-59669951D01*
X165278977Y-59503071D01*
X165274926Y-59499872D01*
X165274922Y-59499868D01*
X165105966Y-59366434D01*
X165105962Y-59366432D01*
X165101911Y-59363232D01*
X164904383Y-59254191D01*
X164691698Y-59178876D01*
X164662795Y-59173727D01*
X164474657Y-59140214D01*
X164474653Y-59140214D01*
X164469569Y-59139308D01*
X164397574Y-59138429D01*
X164249129Y-59136615D01*
X164249127Y-59136615D01*
X164243959Y-59136552D01*
X164020929Y-59170680D01*
X163806468Y-59240777D01*
X163606335Y-59344960D01*
X163602202Y-59348063D01*
X163602199Y-59348065D01*
X163577734Y-59366434D01*
X163425905Y-59480430D01*
X163270024Y-59643550D01*
X163267112Y-59647819D01*
X163267106Y-59647827D01*
X163173503Y-59785043D01*
X163118592Y-59830046D01*
X163048067Y-59838217D01*
X162984320Y-59806963D01*
X162963623Y-59782479D01*
X162893634Y-59674291D01*
X162893632Y-59674288D01*
X162890826Y-59669951D01*
X162738977Y-59503071D01*
X162734926Y-59499872D01*
X162734922Y-59499868D01*
X162565966Y-59366434D01*
X162565962Y-59366432D01*
X162561911Y-59363232D01*
X162364383Y-59254191D01*
X162151698Y-59178876D01*
X162122795Y-59173727D01*
X161934657Y-59140214D01*
X161934653Y-59140214D01*
X161929569Y-59139308D01*
X161857574Y-59138429D01*
X161709129Y-59136615D01*
X161709127Y-59136615D01*
X161703959Y-59136552D01*
X161480929Y-59170680D01*
X161266468Y-59240777D01*
X161066335Y-59344960D01*
X161062202Y-59348063D01*
X161062199Y-59348065D01*
X161037734Y-59366434D01*
X160885905Y-59480430D01*
X160730024Y-59643550D01*
X160727112Y-59647819D01*
X160727106Y-59647827D01*
X160633503Y-59785043D01*
X160578592Y-59830046D01*
X160508067Y-59838217D01*
X160444320Y-59806963D01*
X160423623Y-59782479D01*
X160353634Y-59674291D01*
X160353632Y-59674288D01*
X160350826Y-59669951D01*
X160198977Y-59503071D01*
X160194926Y-59499872D01*
X160194922Y-59499868D01*
X160025966Y-59366434D01*
X160025962Y-59366432D01*
X160021911Y-59363232D01*
X159824383Y-59254191D01*
X159611698Y-59178876D01*
X159582795Y-59173727D01*
X159394657Y-59140214D01*
X159394653Y-59140214D01*
X159389569Y-59139308D01*
X159317574Y-59138429D01*
X159169129Y-59136615D01*
X159169127Y-59136615D01*
X159163959Y-59136552D01*
X158940929Y-59170680D01*
X158726468Y-59240777D01*
X158526335Y-59344960D01*
X158522202Y-59348063D01*
X158522199Y-59348065D01*
X158497734Y-59366434D01*
X158345905Y-59480430D01*
X158190024Y-59643550D01*
X158187112Y-59647819D01*
X158187106Y-59647827D01*
X158093503Y-59785043D01*
X158038592Y-59830046D01*
X157968067Y-59838217D01*
X157904320Y-59806963D01*
X157883623Y-59782479D01*
X157813634Y-59674291D01*
X157813632Y-59674288D01*
X157810826Y-59669951D01*
X157658977Y-59503071D01*
X157654926Y-59499872D01*
X157654922Y-59499868D01*
X157485966Y-59366434D01*
X157485962Y-59366432D01*
X157481911Y-59363232D01*
X157284383Y-59254191D01*
X157071698Y-59178876D01*
X157042795Y-59173727D01*
X156854657Y-59140214D01*
X156854653Y-59140214D01*
X156849569Y-59139308D01*
X156777574Y-59138429D01*
X156629129Y-59136615D01*
X156629127Y-59136615D01*
X156623959Y-59136552D01*
X156400929Y-59170680D01*
X156186468Y-59240777D01*
X155986335Y-59344960D01*
X155982202Y-59348063D01*
X155982199Y-59348065D01*
X155957734Y-59366434D01*
X155805905Y-59480430D01*
X155650024Y-59643550D01*
X155647112Y-59647819D01*
X155647106Y-59647827D01*
X155553503Y-59785043D01*
X155498592Y-59830046D01*
X155428067Y-59838217D01*
X155364320Y-59806963D01*
X155343623Y-59782479D01*
X155273634Y-59674291D01*
X155273632Y-59674288D01*
X155270826Y-59669951D01*
X155118977Y-59503071D01*
X155114926Y-59499872D01*
X155114922Y-59499868D01*
X154945966Y-59366434D01*
X154945962Y-59366432D01*
X154941911Y-59363232D01*
X154744383Y-59254191D01*
X154531698Y-59178876D01*
X154502795Y-59173727D01*
X154314657Y-59140214D01*
X154314653Y-59140214D01*
X154309569Y-59139308D01*
X154237574Y-59138429D01*
X154089129Y-59136615D01*
X154089127Y-59136615D01*
X154083959Y-59136552D01*
X153860929Y-59170680D01*
X153646468Y-59240777D01*
X153446335Y-59344960D01*
X153442202Y-59348063D01*
X153442199Y-59348065D01*
X153417734Y-59366434D01*
X153265905Y-59480430D01*
X153110024Y-59643550D01*
X152982878Y-59829940D01*
X152980704Y-59834624D01*
X152980702Y-59834627D01*
X152909402Y-59988231D01*
X152887881Y-60034593D01*
X152827585Y-60252013D01*
X152803609Y-60476362D01*
X152803906Y-60481514D01*
X152803906Y-60481518D01*
X152809618Y-60580578D01*
X152816597Y-60701614D01*
X152817734Y-60706660D01*
X152817735Y-60706666D01*
X152838984Y-60800952D01*
X152866200Y-60921720D01*
X152868142Y-60926502D01*
X152868143Y-60926506D01*
X152911721Y-61033825D01*
X152951086Y-61130769D01*
X153068975Y-61323147D01*
X153216702Y-61493687D01*
X153390299Y-61637810D01*
X153394751Y-61640412D01*
X153394756Y-61640415D01*
X153530107Y-61719508D01*
X153585103Y-61751645D01*
X153795884Y-61832134D01*
X153800952Y-61833165D01*
X153800955Y-61833166D01*
X153849021Y-61842945D01*
X154016981Y-61877117D01*
X154022156Y-61877307D01*
X154022158Y-61877307D01*
X154237292Y-61885196D01*
X154237296Y-61885196D01*
X154242456Y-61885385D01*
X154247576Y-61884729D01*
X154247578Y-61884729D01*
X154316985Y-61875838D01*
X154466253Y-61856716D01*
X154471202Y-61855231D01*
X154471208Y-61855230D01*
X154677413Y-61793365D01*
X154677412Y-61793365D01*
X154682363Y-61791880D01*
X154799964Y-61734268D01*
X154880331Y-61694897D01*
X154880336Y-61694894D01*
X154884982Y-61692618D01*
X154889192Y-61689615D01*
X154889197Y-61689612D01*
X155064455Y-61564601D01*
X155064459Y-61564597D01*
X155068667Y-61561596D01*
X155228487Y-61402333D01*
X155349370Y-61234107D01*
X155405364Y-61190459D01*
X155476068Y-61184013D01*
X155539032Y-61216816D01*
X155559125Y-61241799D01*
X155606275Y-61318743D01*
X155606279Y-61318748D01*
X155608975Y-61323147D01*
X155756702Y-61493687D01*
X155930299Y-61637810D01*
X155934751Y-61640412D01*
X155934756Y-61640415D01*
X156070107Y-61719508D01*
X156125103Y-61751645D01*
X156335884Y-61832134D01*
X156340952Y-61833165D01*
X156340955Y-61833166D01*
X156389021Y-61842945D01*
X156556981Y-61877117D01*
X156562156Y-61877307D01*
X156562158Y-61877307D01*
X156777292Y-61885196D01*
X156777296Y-61885196D01*
X156782456Y-61885385D01*
X156787576Y-61884729D01*
X156787578Y-61884729D01*
X156856985Y-61875838D01*
X157006253Y-61856716D01*
X157011202Y-61855231D01*
X157011208Y-61855230D01*
X157217413Y-61793365D01*
X157217412Y-61793365D01*
X157222363Y-61791880D01*
X157339964Y-61734268D01*
X157420331Y-61694897D01*
X157420336Y-61694894D01*
X157424982Y-61692618D01*
X157429192Y-61689615D01*
X157429197Y-61689612D01*
X157604455Y-61564601D01*
X157604459Y-61564597D01*
X157608667Y-61561596D01*
X157768487Y-61402333D01*
X157889370Y-61234107D01*
X157945364Y-61190459D01*
X158016068Y-61184013D01*
X158079032Y-61216816D01*
X158099125Y-61241799D01*
X158146275Y-61318743D01*
X158146279Y-61318748D01*
X158148975Y-61323147D01*
X158296702Y-61493687D01*
X158470299Y-61637810D01*
X158474751Y-61640412D01*
X158474756Y-61640415D01*
X158610107Y-61719508D01*
X158665103Y-61751645D01*
X158875884Y-61832134D01*
X158880952Y-61833165D01*
X158880955Y-61833166D01*
X158929021Y-61842945D01*
X159096981Y-61877117D01*
X159102156Y-61877307D01*
X159102158Y-61877307D01*
X159317292Y-61885196D01*
X159317296Y-61885196D01*
X159322456Y-61885385D01*
X159327576Y-61884729D01*
X159327578Y-61884729D01*
X159396985Y-61875838D01*
X159546253Y-61856716D01*
X159551202Y-61855231D01*
X159551208Y-61855230D01*
X159757413Y-61793365D01*
X159757412Y-61793365D01*
X159762363Y-61791880D01*
X159879964Y-61734268D01*
X159960331Y-61694897D01*
X159960336Y-61694894D01*
X159964982Y-61692618D01*
X159969192Y-61689615D01*
X159969197Y-61689612D01*
X160144455Y-61564601D01*
X160144459Y-61564597D01*
X160148667Y-61561596D01*
X160308487Y-61402333D01*
X160429370Y-61234107D01*
X160485364Y-61190459D01*
X160556068Y-61184013D01*
X160619032Y-61216816D01*
X160639125Y-61241799D01*
X160686275Y-61318743D01*
X160686279Y-61318748D01*
X160688975Y-61323147D01*
X160836702Y-61493687D01*
X160995985Y-61625926D01*
X161035620Y-61684828D01*
X161041500Y-61722870D01*
X161041500Y-76085629D01*
X161021498Y-76153750D01*
X161004595Y-76174724D01*
X156948724Y-80230595D01*
X156886412Y-80264621D01*
X156859629Y-80267500D01*
X134732371Y-80267500D01*
X134664250Y-80247498D01*
X134643276Y-80230595D01*
X121975770Y-67563089D01*
X121963384Y-67548677D01*
X121954851Y-67537082D01*
X121954846Y-67537077D01*
X121950508Y-67531182D01*
X121944930Y-67526443D01*
X121944927Y-67526440D01*
X121910232Y-67496965D01*
X121902716Y-67490035D01*
X121897021Y-67484340D01*
X121890880Y-67479482D01*
X121874749Y-67466719D01*
X121871345Y-67463928D01*
X121821297Y-67421409D01*
X121821295Y-67421408D01*
X121815715Y-67416667D01*
X121809199Y-67413339D01*
X121804150Y-67409972D01*
X121799021Y-67406805D01*
X121793284Y-67402266D01*
X121727125Y-67371345D01*
X121723225Y-67369439D01*
X121658192Y-67336231D01*
X121651084Y-67334492D01*
X121645441Y-67332393D01*
X121639678Y-67330476D01*
X121633050Y-67327378D01*
X121561583Y-67312513D01*
X121557299Y-67311543D01*
X121486390Y-67294192D01*
X121480788Y-67293844D01*
X121480785Y-67293844D01*
X121475236Y-67293500D01*
X121475238Y-67293464D01*
X121471245Y-67293225D01*
X121467053Y-67292851D01*
X121459885Y-67291360D01*
X121393675Y-67293151D01*
X121382479Y-67293454D01*
X121379072Y-67293500D01*
X117136500Y-67293500D01*
X117068379Y-67273498D01*
X117021886Y-67219842D01*
X117010500Y-67167500D01*
X117010500Y-67153866D01*
X117003745Y-67091684D01*
X116952615Y-66955295D01*
X116865261Y-66838739D01*
X116748705Y-66751385D01*
X116612316Y-66700255D01*
X116550134Y-66693500D01*
X114753866Y-66693500D01*
X114691684Y-66700255D01*
X114555295Y-66751385D01*
X114438739Y-66838739D01*
X114351385Y-66955295D01*
X114300255Y-67091684D01*
X114293500Y-67153866D01*
X114293500Y-68950134D01*
X114300255Y-69012316D01*
X114351385Y-69148705D01*
X114438739Y-69265261D01*
X114555295Y-69352615D01*
X114563704Y-69355767D01*
X114563705Y-69355768D01*
X114672451Y-69396535D01*
X114729216Y-69439176D01*
X114753916Y-69505738D01*
X114738709Y-69575087D01*
X114719316Y-69601568D01*
X114592629Y-69734138D01*
X114466743Y-69918680D01*
X114431953Y-69993629D01*
X114381144Y-70103089D01*
X114372688Y-70121305D01*
X114312989Y-70336570D01*
X114289251Y-70558695D01*
X114289548Y-70563848D01*
X114289548Y-70563851D01*
X114299036Y-70728396D01*
X114302110Y-70781715D01*
X114303247Y-70786761D01*
X114303248Y-70786767D01*
X114314541Y-70836876D01*
X114351222Y-70999639D01*
X114435266Y-71206616D01*
X114551987Y-71397088D01*
X114698250Y-71565938D01*
X114870126Y-71708632D01*
X114940595Y-71749811D01*
X114943445Y-71751476D01*
X114992169Y-71803114D01*
X115005240Y-71872897D01*
X114978509Y-71938669D01*
X114938055Y-71972027D01*
X114925607Y-71978507D01*
X114921474Y-71981610D01*
X114921471Y-71981612D01*
X114897247Y-71999800D01*
X114746965Y-72112635D01*
X114592629Y-72274138D01*
X114466743Y-72458680D01*
X114428522Y-72541020D01*
X114381144Y-72643089D01*
X114372688Y-72661305D01*
X114312989Y-72876570D01*
X114289251Y-73098695D01*
X114289548Y-73103848D01*
X114289548Y-73103851D01*
X114292286Y-73151338D01*
X114302110Y-73321715D01*
X114303247Y-73326761D01*
X114303248Y-73326767D01*
X114303932Y-73329800D01*
X114351222Y-73539639D01*
X114399652Y-73658909D01*
X114417759Y-73703500D01*
X114435266Y-73746616D01*
X114551987Y-73937088D01*
X114698250Y-74105938D01*
X114870126Y-74248632D01*
X114940595Y-74289811D01*
X114943445Y-74291476D01*
X114992169Y-74343114D01*
X115005240Y-74412897D01*
X114978509Y-74478669D01*
X114938055Y-74512027D01*
X114925607Y-74518507D01*
X114921474Y-74521610D01*
X114921471Y-74521612D01*
X114751100Y-74649530D01*
X114746965Y-74652635D01*
X114592629Y-74814138D01*
X114466743Y-74998680D01*
X114442883Y-75050082D01*
X114379504Y-75186622D01*
X114372688Y-75201305D01*
X114312989Y-75416570D01*
X114289251Y-75638695D01*
X107696000Y-75638695D01*
X107696000Y-60642703D01*
X121590743Y-60642703D01*
X121628268Y-60927734D01*
X121704129Y-61205036D01*
X121705813Y-61208984D01*
X121756049Y-61326759D01*
X121816923Y-61469476D01*
X121869871Y-61557945D01*
X121951835Y-61694897D01*
X121964561Y-61716161D01*
X122144313Y-61940528D01*
X122352851Y-62138423D01*
X122586317Y-62306186D01*
X122590112Y-62308195D01*
X122590113Y-62308196D01*
X122611869Y-62319715D01*
X122840392Y-62440712D01*
X123110373Y-62539511D01*
X123391264Y-62600755D01*
X123419841Y-62603004D01*
X123614282Y-62618307D01*
X123614291Y-62618307D01*
X123616739Y-62618500D01*
X123772271Y-62618500D01*
X123774407Y-62618354D01*
X123774418Y-62618354D01*
X123982548Y-62604165D01*
X123982554Y-62604164D01*
X123986825Y-62603873D01*
X123991020Y-62603004D01*
X123991022Y-62603004D01*
X124127583Y-62574724D01*
X124268342Y-62545574D01*
X124539343Y-62449607D01*
X124794812Y-62317750D01*
X124798313Y-62315289D01*
X124798317Y-62315287D01*
X124912418Y-62235095D01*
X125030023Y-62152441D01*
X125240622Y-61956740D01*
X125422713Y-61734268D01*
X125568118Y-61496989D01*
X125570686Y-61492799D01*
X125572927Y-61489142D01*
X125611034Y-61402333D01*
X125686757Y-61229830D01*
X125688483Y-61225898D01*
X125691070Y-61216816D01*
X125743762Y-61031841D01*
X125781661Y-60971806D01*
X125846001Y-60941792D01*
X125916354Y-60951327D01*
X125970384Y-60997384D01*
X125981682Y-61018951D01*
X126027086Y-61130769D01*
X126144975Y-61323147D01*
X126292702Y-61493687D01*
X126451985Y-61625926D01*
X126491620Y-61684828D01*
X126497500Y-61722870D01*
X126497500Y-70257244D01*
X126494860Y-70282901D01*
X126494850Y-70282948D01*
X126494849Y-70282954D01*
X126493360Y-70290115D01*
X126493558Y-70297426D01*
X126493617Y-70299594D01*
X126492229Y-70321962D01*
X126490801Y-70331349D01*
X126491394Y-70338640D01*
X126491394Y-70338643D01*
X126496030Y-70395632D01*
X126496399Y-70402441D01*
X126498143Y-70466921D01*
X126500578Y-70476104D01*
X126504370Y-70498172D01*
X126505140Y-70507637D01*
X126507397Y-70514603D01*
X126512756Y-70531145D01*
X126510987Y-70531718D01*
X126511243Y-70532201D01*
X126512801Y-70531635D01*
X126513080Y-70532403D01*
X126513816Y-70534544D01*
X126513852Y-70534532D01*
X126514162Y-70535489D01*
X126514255Y-70535823D01*
X126514520Y-70536593D01*
X126525023Y-70569014D01*
X126526947Y-70575553D01*
X126541597Y-70630807D01*
X126541599Y-70630811D01*
X126543474Y-70637884D01*
X126546928Y-70644339D01*
X126547949Y-70646247D01*
X126556722Y-70666865D01*
X126557392Y-70668933D01*
X126559649Y-70675899D01*
X126563443Y-70682151D01*
X126563447Y-70682160D01*
X126593117Y-70731054D01*
X126596492Y-70736970D01*
X126626918Y-70793834D01*
X126631766Y-70799323D01*
X126631770Y-70799329D01*
X126633207Y-70800957D01*
X126646482Y-70818993D01*
X126651405Y-70827107D01*
X126658803Y-70835484D01*
X126697969Y-70874650D01*
X126703315Y-70880337D01*
X126744000Y-70926404D01*
X126749983Y-70930632D01*
X126754741Y-70933995D01*
X126771116Y-70947797D01*
X133314230Y-77490911D01*
X133326616Y-77505323D01*
X133335149Y-77516918D01*
X133335154Y-77516923D01*
X133339492Y-77522818D01*
X133345070Y-77527557D01*
X133345073Y-77527560D01*
X133379768Y-77557035D01*
X133387284Y-77563965D01*
X133392979Y-77569660D01*
X133395861Y-77571940D01*
X133415251Y-77587281D01*
X133418655Y-77590072D01*
X133468703Y-77632591D01*
X133474285Y-77637333D01*
X133480801Y-77640661D01*
X133485850Y-77644028D01*
X133490979Y-77647195D01*
X133496716Y-77651734D01*
X133562875Y-77682655D01*
X133566769Y-77684558D01*
X133631808Y-77717769D01*
X133638916Y-77719508D01*
X133644559Y-77721607D01*
X133650322Y-77723524D01*
X133656950Y-77726622D01*
X133664112Y-77728112D01*
X133664113Y-77728112D01*
X133728412Y-77741486D01*
X133732696Y-77742456D01*
X133803610Y-77759808D01*
X133809212Y-77760156D01*
X133809215Y-77760156D01*
X133814764Y-77760500D01*
X133814762Y-77760536D01*
X133818755Y-77760775D01*
X133822947Y-77761149D01*
X133830115Y-77762640D01*
X133907520Y-77760546D01*
X133910928Y-77760500D01*
X143975500Y-77760500D01*
X144043621Y-77780502D01*
X144090114Y-77834158D01*
X144101500Y-77886500D01*
X144101500Y-77900134D01*
X144108255Y-77962316D01*
X144159385Y-78098705D01*
X144246739Y-78215261D01*
X144363295Y-78302615D01*
X144499684Y-78353745D01*
X144561866Y-78360500D01*
X146358134Y-78360500D01*
X146420316Y-78353745D01*
X146556705Y-78302615D01*
X146673261Y-78215261D01*
X146760615Y-78098705D01*
X146811745Y-77962316D01*
X146818500Y-77900134D01*
X146818500Y-76103866D01*
X146811745Y-76041684D01*
X146760615Y-75905295D01*
X146673261Y-75788739D01*
X146556705Y-75701385D01*
X146544132Y-75696672D01*
X146438203Y-75656960D01*
X146381439Y-75614318D01*
X146356739Y-75547756D01*
X146371947Y-75478408D01*
X146393493Y-75449727D01*
X146426766Y-75416570D01*
X146498096Y-75345489D01*
X146504540Y-75336522D01*
X146625435Y-75168277D01*
X146628453Y-75164077D01*
X146638099Y-75144561D01*
X146725136Y-74968453D01*
X146725137Y-74968451D01*
X146727430Y-74963811D01*
X146792370Y-74750069D01*
X146821529Y-74528590D01*
X146821680Y-74522414D01*
X146823074Y-74465365D01*
X146823074Y-74465361D01*
X146823156Y-74462000D01*
X146804852Y-74239361D01*
X146750431Y-74022702D01*
X146661354Y-73817840D01*
X146598375Y-73720489D01*
X146542822Y-73634617D01*
X146542820Y-73634614D01*
X146540014Y-73630277D01*
X146389670Y-73465051D01*
X146385619Y-73461852D01*
X146385615Y-73461848D01*
X146218414Y-73329800D01*
X146218410Y-73329798D01*
X146214359Y-73326598D01*
X146173053Y-73303796D01*
X146123084Y-73253364D01*
X146108312Y-73183921D01*
X146133428Y-73117516D01*
X146160780Y-73090909D01*
X146204603Y-73059650D01*
X146339860Y-72963173D01*
X146498096Y-72805489D01*
X146557594Y-72722689D01*
X146625435Y-72628277D01*
X146628453Y-72624077D01*
X146653373Y-72573656D01*
X146725136Y-72428453D01*
X146725137Y-72428451D01*
X146727430Y-72423811D01*
X146792370Y-72210069D01*
X146821529Y-71988590D01*
X146821611Y-71985240D01*
X146823074Y-71925365D01*
X146823074Y-71925361D01*
X146823156Y-71922000D01*
X146804852Y-71699361D01*
X146750431Y-71482702D01*
X146661354Y-71277840D01*
X146540014Y-71090277D01*
X146389670Y-70925051D01*
X146385619Y-70921852D01*
X146385615Y-70921848D01*
X146218414Y-70789800D01*
X146218410Y-70789798D01*
X146214359Y-70786598D01*
X146205514Y-70781715D01*
X146172569Y-70763529D01*
X146122598Y-70713097D01*
X146107826Y-70643654D01*
X146132942Y-70577248D01*
X146160294Y-70550641D01*
X146335328Y-70425792D01*
X146343200Y-70419139D01*
X146494052Y-70268812D01*
X146500730Y-70260965D01*
X146625003Y-70088020D01*
X146630313Y-70079183D01*
X146724670Y-69888267D01*
X146728469Y-69878672D01*
X146790377Y-69674910D01*
X146792555Y-69664837D01*
X146793986Y-69653962D01*
X146791775Y-69639778D01*
X146778617Y-69636000D01*
X144143225Y-69636000D01*
X144129694Y-69639973D01*
X144128257Y-69649966D01*
X144158565Y-69784446D01*
X144161645Y-69794275D01*
X144241770Y-69991603D01*
X144246413Y-70000794D01*
X144357694Y-70182388D01*
X144363777Y-70190699D01*
X144503213Y-70351667D01*
X144510580Y-70358883D01*
X144674434Y-70494916D01*
X144682881Y-70500831D01*
X144751969Y-70541203D01*
X144800693Y-70592842D01*
X144813764Y-70662625D01*
X144787033Y-70728396D01*
X144746584Y-70761752D01*
X144733607Y-70768507D01*
X144729474Y-70771610D01*
X144729471Y-70771612D01*
X144584663Y-70880337D01*
X144554965Y-70902635D01*
X144400629Y-71064138D01*
X144274743Y-71248680D01*
X144259003Y-71282590D01*
X144205855Y-71397088D01*
X144180688Y-71451305D01*
X144120989Y-71666570D01*
X144097251Y-71888695D01*
X144097548Y-71893848D01*
X144097548Y-71893851D01*
X144103657Y-71999800D01*
X144110110Y-72111715D01*
X144111247Y-72116761D01*
X144111248Y-72116767D01*
X144131119Y-72204939D01*
X144159222Y-72329639D01*
X144195735Y-72419560D01*
X144227045Y-72496667D01*
X144243266Y-72536616D01*
X144245965Y-72541020D01*
X144308513Y-72643089D01*
X144359987Y-72727088D01*
X144506250Y-72895938D01*
X144678126Y-73038632D01*
X144748595Y-73079811D01*
X144751445Y-73081476D01*
X144800169Y-73133114D01*
X144813240Y-73202897D01*
X144786509Y-73268669D01*
X144746055Y-73302027D01*
X144733607Y-73308507D01*
X144729474Y-73311610D01*
X144729471Y-73311612D01*
X144705247Y-73329800D01*
X144554965Y-73442635D01*
X144400629Y-73604138D01*
X144370363Y-73648507D01*
X144315455Y-73693507D01*
X144266277Y-73703500D01*
X134518371Y-73703500D01*
X134450250Y-73683498D01*
X134429276Y-73666595D01*
X130589405Y-69826724D01*
X130555379Y-69764412D01*
X130552500Y-69737629D01*
X130552500Y-69449200D01*
X130553536Y-69435502D01*
X130553808Y-69434390D01*
X130554500Y-69423236D01*
X130554536Y-69423238D01*
X130554775Y-69419245D01*
X130555149Y-69415053D01*
X130556640Y-69407885D01*
X130554546Y-69330479D01*
X130554500Y-69327072D01*
X130554500Y-69116183D01*
X144124389Y-69116183D01*
X144125912Y-69124607D01*
X144138292Y-69128000D01*
X145187885Y-69128000D01*
X145203124Y-69123525D01*
X145204329Y-69122135D01*
X145206000Y-69114452D01*
X145206000Y-69109885D01*
X145714000Y-69109885D01*
X145718475Y-69125124D01*
X145719865Y-69126329D01*
X145727548Y-69128000D01*
X146778344Y-69128000D01*
X146791875Y-69124027D01*
X146793180Y-69114947D01*
X146751214Y-68947875D01*
X146747894Y-68938124D01*
X146662972Y-68742814D01*
X146658105Y-68733739D01*
X146542426Y-68554926D01*
X146536136Y-68546757D01*
X146392806Y-68389240D01*
X146385273Y-68382215D01*
X146218139Y-68250222D01*
X146209552Y-68244517D01*
X146023117Y-68141599D01*
X146013705Y-68137369D01*
X145812959Y-68066280D01*
X145802988Y-68063646D01*
X145731837Y-68050972D01*
X145718540Y-68052432D01*
X145714000Y-68066989D01*
X145714000Y-69109885D01*
X145206000Y-69109885D01*
X145206000Y-68065102D01*
X145202082Y-68051758D01*
X145187806Y-68049771D01*
X145149324Y-68055660D01*
X145139288Y-68058051D01*
X144936868Y-68124212D01*
X144927359Y-68128209D01*
X144738463Y-68226542D01*
X144729738Y-68232036D01*
X144559433Y-68359905D01*
X144551726Y-68366748D01*
X144404590Y-68520717D01*
X144398104Y-68528727D01*
X144278098Y-68704649D01*
X144273000Y-68713623D01*
X144183338Y-68906783D01*
X144179775Y-68916470D01*
X144124389Y-69116183D01*
X130554500Y-69116183D01*
X130554500Y-61719338D01*
X130574502Y-61651217D01*
X130607331Y-61616760D01*
X130680454Y-61564601D01*
X130684667Y-61561596D01*
X130844487Y-61402333D01*
X130965370Y-61234107D01*
X131021364Y-61190459D01*
X131092068Y-61184013D01*
X131155032Y-61216816D01*
X131175125Y-61241799D01*
X131222275Y-61318743D01*
X131222279Y-61318748D01*
X131224975Y-61323147D01*
X131372702Y-61493687D01*
X131546299Y-61637810D01*
X131550751Y-61640412D01*
X131550756Y-61640415D01*
X131686107Y-61719508D01*
X131741103Y-61751645D01*
X131951884Y-61832134D01*
X131956952Y-61833165D01*
X131956955Y-61833166D01*
X132005021Y-61842945D01*
X132172981Y-61877117D01*
X132178156Y-61877307D01*
X132178158Y-61877307D01*
X132393292Y-61885196D01*
X132393296Y-61885196D01*
X132398456Y-61885385D01*
X132403576Y-61884729D01*
X132403578Y-61884729D01*
X132472985Y-61875838D01*
X132622253Y-61856716D01*
X132627202Y-61855231D01*
X132627208Y-61855230D01*
X132833413Y-61793365D01*
X132833412Y-61793365D01*
X132838363Y-61791880D01*
X132955964Y-61734268D01*
X133036331Y-61694897D01*
X133036336Y-61694894D01*
X133040982Y-61692618D01*
X133045192Y-61689615D01*
X133045197Y-61689612D01*
X133220455Y-61564601D01*
X133220459Y-61564597D01*
X133224667Y-61561596D01*
X133384487Y-61402333D01*
X133505686Y-61233667D01*
X133561680Y-61190019D01*
X133632384Y-61183573D01*
X133695348Y-61216376D01*
X133715441Y-61241358D01*
X133762682Y-61318448D01*
X133768765Y-61326759D01*
X133909665Y-61489417D01*
X133917032Y-61496633D01*
X134082606Y-61634095D01*
X134091053Y-61640010D01*
X134276859Y-61748586D01*
X134286146Y-61753036D01*
X134487198Y-61829810D01*
X134497091Y-61832684D01*
X134604248Y-61854485D01*
X134618300Y-61853290D01*
X134622000Y-61842945D01*
X134622000Y-61842229D01*
X135130000Y-61842229D01*
X135134064Y-61856071D01*
X135147479Y-61858105D01*
X135157025Y-61856882D01*
X135167095Y-61854742D01*
X135373225Y-61792900D01*
X135382832Y-61789134D01*
X135576076Y-61694464D01*
X135584934Y-61689185D01*
X135760141Y-61564211D01*
X135768003Y-61557567D01*
X135920445Y-61405656D01*
X135927122Y-61397811D01*
X136045086Y-61233646D01*
X136101081Y-61189998D01*
X136171784Y-61183552D01*
X136234749Y-61216355D01*
X136254842Y-61241337D01*
X136304975Y-61323147D01*
X136452702Y-61493687D01*
X136626299Y-61637810D01*
X136630751Y-61640412D01*
X136630756Y-61640415D01*
X136766107Y-61719508D01*
X136821103Y-61751645D01*
X137031884Y-61832134D01*
X137036952Y-61833165D01*
X137036955Y-61833166D01*
X137085021Y-61842945D01*
X137252981Y-61877117D01*
X137258156Y-61877307D01*
X137258158Y-61877307D01*
X137473292Y-61885196D01*
X137473296Y-61885196D01*
X137478456Y-61885385D01*
X137483576Y-61884729D01*
X137483578Y-61884729D01*
X137552985Y-61875838D01*
X137702253Y-61856716D01*
X137707202Y-61855231D01*
X137707208Y-61855230D01*
X137913413Y-61793365D01*
X137913412Y-61793365D01*
X137918363Y-61791880D01*
X138035964Y-61734268D01*
X138116331Y-61694897D01*
X138116336Y-61694894D01*
X138120982Y-61692618D01*
X138125192Y-61689615D01*
X138125197Y-61689612D01*
X138300455Y-61564601D01*
X138300459Y-61564597D01*
X138304667Y-61561596D01*
X138464487Y-61402333D01*
X138585370Y-61234107D01*
X138641364Y-61190459D01*
X138712068Y-61184013D01*
X138775032Y-61216816D01*
X138795125Y-61241799D01*
X138842275Y-61318743D01*
X138842279Y-61318748D01*
X138844975Y-61323147D01*
X138992702Y-61493687D01*
X139166299Y-61637810D01*
X139170751Y-61640412D01*
X139170756Y-61640415D01*
X139306107Y-61719508D01*
X139361103Y-61751645D01*
X139571884Y-61832134D01*
X139576952Y-61833165D01*
X139576955Y-61833166D01*
X139625021Y-61842945D01*
X139792981Y-61877117D01*
X139798156Y-61877307D01*
X139798158Y-61877307D01*
X140013292Y-61885196D01*
X140013296Y-61885196D01*
X140018456Y-61885385D01*
X140023576Y-61884729D01*
X140023578Y-61884729D01*
X140092985Y-61875838D01*
X140242253Y-61856716D01*
X140247202Y-61855231D01*
X140247208Y-61855230D01*
X140453413Y-61793365D01*
X140453412Y-61793365D01*
X140458363Y-61791880D01*
X140575964Y-61734268D01*
X140656331Y-61694897D01*
X140656336Y-61694894D01*
X140660982Y-61692618D01*
X140665192Y-61689615D01*
X140665197Y-61689612D01*
X140840455Y-61564601D01*
X140840459Y-61564597D01*
X140844667Y-61561596D01*
X141004487Y-61402333D01*
X141125370Y-61234107D01*
X141181364Y-61190459D01*
X141252068Y-61184013D01*
X141315032Y-61216816D01*
X141335125Y-61241799D01*
X141382275Y-61318743D01*
X141382279Y-61318748D01*
X141384975Y-61323147D01*
X141532702Y-61493687D01*
X141706299Y-61637810D01*
X141710751Y-61640412D01*
X141710756Y-61640415D01*
X141846107Y-61719508D01*
X141901103Y-61751645D01*
X142111884Y-61832134D01*
X142116952Y-61833165D01*
X142116955Y-61833166D01*
X142165021Y-61842945D01*
X142332981Y-61877117D01*
X142338156Y-61877307D01*
X142338158Y-61877307D01*
X142553292Y-61885196D01*
X142553296Y-61885196D01*
X142558456Y-61885385D01*
X142563576Y-61884729D01*
X142563578Y-61884729D01*
X142632985Y-61875838D01*
X142782253Y-61856716D01*
X142787202Y-61855231D01*
X142787208Y-61855230D01*
X142993413Y-61793365D01*
X142993412Y-61793365D01*
X142998363Y-61791880D01*
X143115964Y-61734268D01*
X143196331Y-61694897D01*
X143196336Y-61694894D01*
X143200982Y-61692618D01*
X143205192Y-61689615D01*
X143205197Y-61689612D01*
X143380455Y-61564601D01*
X143380459Y-61564597D01*
X143384667Y-61561596D01*
X143544487Y-61402333D01*
X143665370Y-61234107D01*
X143721364Y-61190459D01*
X143792068Y-61184013D01*
X143855032Y-61216816D01*
X143875125Y-61241799D01*
X143922275Y-61318743D01*
X143922279Y-61318748D01*
X143924975Y-61323147D01*
X144072702Y-61493687D01*
X144246299Y-61637810D01*
X144250751Y-61640412D01*
X144250756Y-61640415D01*
X144386107Y-61719508D01*
X144441103Y-61751645D01*
X144651884Y-61832134D01*
X144656952Y-61833165D01*
X144656955Y-61833166D01*
X144705021Y-61842945D01*
X144872981Y-61877117D01*
X144878156Y-61877307D01*
X144878158Y-61877307D01*
X145093292Y-61885196D01*
X145093296Y-61885196D01*
X145098456Y-61885385D01*
X145103576Y-61884729D01*
X145103578Y-61884729D01*
X145172985Y-61875838D01*
X145322253Y-61856716D01*
X145327202Y-61855231D01*
X145327208Y-61855230D01*
X145533413Y-61793365D01*
X145533412Y-61793365D01*
X145538363Y-61791880D01*
X145655964Y-61734268D01*
X145736331Y-61694897D01*
X145736336Y-61694894D01*
X145740982Y-61692618D01*
X145745192Y-61689615D01*
X145745197Y-61689612D01*
X145920455Y-61564601D01*
X145920459Y-61564597D01*
X145924667Y-61561596D01*
X146084487Y-61402333D01*
X146205370Y-61234107D01*
X146261364Y-61190459D01*
X146332068Y-61184013D01*
X146395032Y-61216816D01*
X146415125Y-61241799D01*
X146462275Y-61318743D01*
X146462279Y-61318748D01*
X146464975Y-61323147D01*
X146612702Y-61493687D01*
X146786299Y-61637810D01*
X146790751Y-61640412D01*
X146790756Y-61640415D01*
X146926107Y-61719508D01*
X146981103Y-61751645D01*
X147191884Y-61832134D01*
X147196952Y-61833165D01*
X147196955Y-61833166D01*
X147245021Y-61842945D01*
X147412981Y-61877117D01*
X147418156Y-61877307D01*
X147418158Y-61877307D01*
X147633292Y-61885196D01*
X147633296Y-61885196D01*
X147638456Y-61885385D01*
X147643576Y-61884729D01*
X147643578Y-61884729D01*
X147712985Y-61875838D01*
X147862253Y-61856716D01*
X147867202Y-61855231D01*
X147867208Y-61855230D01*
X148073413Y-61793365D01*
X148073412Y-61793365D01*
X148078363Y-61791880D01*
X148195964Y-61734268D01*
X148276331Y-61694897D01*
X148276336Y-61694894D01*
X148280982Y-61692618D01*
X148285192Y-61689615D01*
X148285197Y-61689612D01*
X148460455Y-61564601D01*
X148460459Y-61564597D01*
X148464667Y-61561596D01*
X148624487Y-61402333D01*
X148745370Y-61234107D01*
X148801364Y-61190459D01*
X148872068Y-61184013D01*
X148935032Y-61216816D01*
X148955125Y-61241799D01*
X149002275Y-61318743D01*
X149002279Y-61318748D01*
X149004975Y-61323147D01*
X149152702Y-61493687D01*
X149326299Y-61637810D01*
X149330751Y-61640412D01*
X149330756Y-61640415D01*
X149466107Y-61719508D01*
X149521103Y-61751645D01*
X149731884Y-61832134D01*
X149736952Y-61833165D01*
X149736955Y-61833166D01*
X149785021Y-61842945D01*
X149952981Y-61877117D01*
X149958156Y-61877307D01*
X149958158Y-61877307D01*
X150173292Y-61885196D01*
X150173296Y-61885196D01*
X150178456Y-61885385D01*
X150183576Y-61884729D01*
X150183578Y-61884729D01*
X150252985Y-61875838D01*
X150402253Y-61856716D01*
X150407202Y-61855231D01*
X150407208Y-61855230D01*
X150613413Y-61793365D01*
X150613412Y-61793365D01*
X150618363Y-61791880D01*
X150735964Y-61734268D01*
X150816331Y-61694897D01*
X150816336Y-61694894D01*
X150820982Y-61692618D01*
X150825192Y-61689615D01*
X150825197Y-61689612D01*
X151000455Y-61564601D01*
X151000459Y-61564597D01*
X151004667Y-61561596D01*
X151164487Y-61402333D01*
X151296150Y-61219105D01*
X151396118Y-61016835D01*
X151461708Y-60800952D01*
X151491158Y-60577256D01*
X151492802Y-60510000D01*
X151474315Y-60285132D01*
X151419349Y-60066304D01*
X151329380Y-59859391D01*
X151279913Y-59782926D01*
X151209634Y-59674291D01*
X151209632Y-59674288D01*
X151206826Y-59669951D01*
X151054977Y-59503071D01*
X151050926Y-59499872D01*
X151050922Y-59499868D01*
X150881966Y-59366434D01*
X150881962Y-59366432D01*
X150877911Y-59363232D01*
X150680383Y-59254191D01*
X150467698Y-59178876D01*
X150438795Y-59173727D01*
X150250657Y-59140214D01*
X150250653Y-59140214D01*
X150245569Y-59139308D01*
X150173574Y-59138429D01*
X150025129Y-59136615D01*
X150025127Y-59136615D01*
X150019959Y-59136552D01*
X149796929Y-59170680D01*
X149582468Y-59240777D01*
X149382335Y-59344960D01*
X149378202Y-59348063D01*
X149378199Y-59348065D01*
X149353734Y-59366434D01*
X149201905Y-59480430D01*
X149046024Y-59643550D01*
X149043112Y-59647819D01*
X149043106Y-59647827D01*
X148949503Y-59785043D01*
X148894592Y-59830046D01*
X148824067Y-59838217D01*
X148760320Y-59806963D01*
X148739623Y-59782479D01*
X148669634Y-59674291D01*
X148669632Y-59674288D01*
X148666826Y-59669951D01*
X148514977Y-59503071D01*
X148510926Y-59499872D01*
X148510922Y-59499868D01*
X148341966Y-59366434D01*
X148341962Y-59366432D01*
X148337911Y-59363232D01*
X148140383Y-59254191D01*
X147927698Y-59178876D01*
X147898795Y-59173727D01*
X147710657Y-59140214D01*
X147710653Y-59140214D01*
X147705569Y-59139308D01*
X147633574Y-59138429D01*
X147485129Y-59136615D01*
X147485127Y-59136615D01*
X147479959Y-59136552D01*
X147256929Y-59170680D01*
X147042468Y-59240777D01*
X146842335Y-59344960D01*
X146838202Y-59348063D01*
X146838199Y-59348065D01*
X146813734Y-59366434D01*
X146661905Y-59480430D01*
X146506024Y-59643550D01*
X146503112Y-59647819D01*
X146503106Y-59647827D01*
X146409503Y-59785043D01*
X146354592Y-59830046D01*
X146284067Y-59838217D01*
X146220320Y-59806963D01*
X146199623Y-59782479D01*
X146129634Y-59674291D01*
X146129632Y-59674288D01*
X146126826Y-59669951D01*
X145974977Y-59503071D01*
X145970926Y-59499872D01*
X145970922Y-59499868D01*
X145801966Y-59366434D01*
X145801962Y-59366432D01*
X145797911Y-59363232D01*
X145600383Y-59254191D01*
X145387698Y-59178876D01*
X145358795Y-59173727D01*
X145170657Y-59140214D01*
X145170653Y-59140214D01*
X145165569Y-59139308D01*
X145093574Y-59138429D01*
X144945129Y-59136615D01*
X144945127Y-59136615D01*
X144939959Y-59136552D01*
X144716929Y-59170680D01*
X144502468Y-59240777D01*
X144302335Y-59344960D01*
X144298202Y-59348063D01*
X144298199Y-59348065D01*
X144273734Y-59366434D01*
X144121905Y-59480430D01*
X143966024Y-59643550D01*
X143963112Y-59647819D01*
X143963106Y-59647827D01*
X143869503Y-59785043D01*
X143814592Y-59830046D01*
X143744067Y-59838217D01*
X143680320Y-59806963D01*
X143659623Y-59782479D01*
X143589634Y-59674291D01*
X143589632Y-59674288D01*
X143586826Y-59669951D01*
X143434977Y-59503071D01*
X143430926Y-59499872D01*
X143430922Y-59499868D01*
X143261966Y-59366434D01*
X143261962Y-59366432D01*
X143257911Y-59363232D01*
X143060383Y-59254191D01*
X142847698Y-59178876D01*
X142818795Y-59173727D01*
X142630657Y-59140214D01*
X142630653Y-59140214D01*
X142625569Y-59139308D01*
X142553574Y-59138429D01*
X142405129Y-59136615D01*
X142405127Y-59136615D01*
X142399959Y-59136552D01*
X142176929Y-59170680D01*
X141962468Y-59240777D01*
X141762335Y-59344960D01*
X141758202Y-59348063D01*
X141758199Y-59348065D01*
X141733734Y-59366434D01*
X141581905Y-59480430D01*
X141426024Y-59643550D01*
X141423112Y-59647819D01*
X141423106Y-59647827D01*
X141329503Y-59785043D01*
X141274592Y-59830046D01*
X141204067Y-59838217D01*
X141140320Y-59806963D01*
X141119623Y-59782479D01*
X141049634Y-59674291D01*
X141049632Y-59674288D01*
X141046826Y-59669951D01*
X140894977Y-59503071D01*
X140890926Y-59499872D01*
X140890922Y-59499868D01*
X140721966Y-59366434D01*
X140721962Y-59366432D01*
X140717911Y-59363232D01*
X140520383Y-59254191D01*
X140307698Y-59178876D01*
X140278795Y-59173727D01*
X140090657Y-59140214D01*
X140090653Y-59140214D01*
X140085569Y-59139308D01*
X140013574Y-59138429D01*
X139865129Y-59136615D01*
X139865127Y-59136615D01*
X139859959Y-59136552D01*
X139636929Y-59170680D01*
X139422468Y-59240777D01*
X139222335Y-59344960D01*
X139218202Y-59348063D01*
X139218199Y-59348065D01*
X139193734Y-59366434D01*
X139041905Y-59480430D01*
X138886024Y-59643550D01*
X138883112Y-59647819D01*
X138883106Y-59647827D01*
X138789503Y-59785043D01*
X138734592Y-59830046D01*
X138664067Y-59838217D01*
X138600320Y-59806963D01*
X138579623Y-59782479D01*
X138509634Y-59674291D01*
X138509632Y-59674288D01*
X138506826Y-59669951D01*
X138354977Y-59503071D01*
X138350926Y-59499872D01*
X138350922Y-59499868D01*
X138181966Y-59366434D01*
X138181962Y-59366432D01*
X138177911Y-59363232D01*
X137980383Y-59254191D01*
X137767698Y-59178876D01*
X137738795Y-59173727D01*
X137550657Y-59140214D01*
X137550653Y-59140214D01*
X137545569Y-59139308D01*
X137473574Y-59138429D01*
X137325129Y-59136615D01*
X137325127Y-59136615D01*
X137319959Y-59136552D01*
X137096929Y-59170680D01*
X136882468Y-59240777D01*
X136682335Y-59344960D01*
X136678202Y-59348063D01*
X136678199Y-59348065D01*
X136653734Y-59366434D01*
X136501905Y-59480430D01*
X136346024Y-59643550D01*
X136343112Y-59647819D01*
X136343106Y-59647827D01*
X136249198Y-59785490D01*
X136194287Y-59830493D01*
X136123762Y-59838664D01*
X136060015Y-59807410D01*
X136039318Y-59782926D01*
X135969239Y-59674601D01*
X135962947Y-59666430D01*
X135818113Y-59507260D01*
X135810580Y-59500234D01*
X135641691Y-59366855D01*
X135633104Y-59361150D01*
X135444711Y-59257151D01*
X135435299Y-59252921D01*
X135232445Y-59181086D01*
X135222474Y-59178452D01*
X135147837Y-59165157D01*
X135134540Y-59166617D01*
X135130000Y-59181174D01*
X135130000Y-61842229D01*
X134622000Y-61842229D01*
X134622000Y-59179343D01*
X134618082Y-59165999D01*
X134603806Y-59164012D01*
X134562161Y-59170385D01*
X134552125Y-59172776D01*
X134347576Y-59239633D01*
X134338079Y-59243625D01*
X134147189Y-59342995D01*
X134138464Y-59348490D01*
X133966373Y-59477700D01*
X133958666Y-59484543D01*
X133809984Y-59640129D01*
X133803498Y-59648139D01*
X133709798Y-59785498D01*
X133654887Y-59830501D01*
X133584362Y-59838672D01*
X133520615Y-59807418D01*
X133499918Y-59782934D01*
X133429634Y-59674291D01*
X133429632Y-59674288D01*
X133426826Y-59669951D01*
X133274977Y-59503071D01*
X133270926Y-59499872D01*
X133270922Y-59499868D01*
X133101966Y-59366434D01*
X133101962Y-59366432D01*
X133097911Y-59363232D01*
X132900383Y-59254191D01*
X132687698Y-59178876D01*
X132658795Y-59173727D01*
X132470657Y-59140214D01*
X132470653Y-59140214D01*
X132465569Y-59139308D01*
X132393574Y-59138429D01*
X132245129Y-59136615D01*
X132245127Y-59136615D01*
X132239959Y-59136552D01*
X132016929Y-59170680D01*
X131802468Y-59240777D01*
X131602335Y-59344960D01*
X131598202Y-59348063D01*
X131598199Y-59348065D01*
X131573734Y-59366434D01*
X131421905Y-59480430D01*
X131266024Y-59643550D01*
X131263112Y-59647819D01*
X131263106Y-59647827D01*
X131169503Y-59785043D01*
X131114592Y-59830046D01*
X131044067Y-59838217D01*
X130980320Y-59806963D01*
X130959623Y-59782479D01*
X130889634Y-59674291D01*
X130889632Y-59674288D01*
X130886826Y-59669951D01*
X130734977Y-59503071D01*
X130730926Y-59499872D01*
X130730922Y-59499868D01*
X130561966Y-59366434D01*
X130561962Y-59366432D01*
X130557911Y-59363232D01*
X130360383Y-59254191D01*
X130147698Y-59178876D01*
X130118795Y-59173727D01*
X129930657Y-59140214D01*
X129930653Y-59140214D01*
X129925569Y-59139308D01*
X129853574Y-59138429D01*
X129705129Y-59136615D01*
X129705127Y-59136615D01*
X129699959Y-59136552D01*
X129476929Y-59170680D01*
X129262468Y-59240777D01*
X129062335Y-59344960D01*
X129058202Y-59348063D01*
X129058199Y-59348065D01*
X129033734Y-59366434D01*
X128881905Y-59480430D01*
X128726024Y-59643550D01*
X128723112Y-59647819D01*
X128723106Y-59647827D01*
X128629503Y-59785043D01*
X128574592Y-59830046D01*
X128504067Y-59838217D01*
X128440320Y-59806963D01*
X128419623Y-59782479D01*
X128349634Y-59674291D01*
X128349632Y-59674288D01*
X128346826Y-59669951D01*
X128194977Y-59503071D01*
X128190926Y-59499872D01*
X128190922Y-59499868D01*
X128021966Y-59366434D01*
X128021962Y-59366432D01*
X128017911Y-59363232D01*
X127820383Y-59254191D01*
X127607698Y-59178876D01*
X127578795Y-59173727D01*
X127390657Y-59140214D01*
X127390653Y-59140214D01*
X127385569Y-59139308D01*
X127313574Y-59138429D01*
X127165129Y-59136615D01*
X127165127Y-59136615D01*
X127159959Y-59136552D01*
X126936929Y-59170680D01*
X126722468Y-59240777D01*
X126522335Y-59344960D01*
X126518202Y-59348063D01*
X126518199Y-59348065D01*
X126493734Y-59366434D01*
X126341905Y-59480430D01*
X126186024Y-59643550D01*
X126058878Y-59829940D01*
X126056704Y-59834624D01*
X126056702Y-59834627D01*
X125978023Y-60004126D01*
X125931199Y-60057493D01*
X125862956Y-60077073D01*
X125794960Y-60056649D01*
X125748801Y-60002707D01*
X125742202Y-59984323D01*
X125706835Y-59855043D01*
X125695871Y-59814964D01*
X125636001Y-59674601D01*
X125584763Y-59554476D01*
X125584761Y-59554472D01*
X125583077Y-59550524D01*
X125473153Y-59366855D01*
X125437643Y-59307521D01*
X125437640Y-59307517D01*
X125435439Y-59303839D01*
X125255687Y-59079472D01*
X125047149Y-58881577D01*
X124813683Y-58713814D01*
X124791843Y-58702250D01*
X124768654Y-58689972D01*
X124559608Y-58579288D01*
X124289627Y-58480489D01*
X124008736Y-58419245D01*
X123977685Y-58416801D01*
X123785718Y-58401693D01*
X123785709Y-58401693D01*
X123783261Y-58401500D01*
X123627729Y-58401500D01*
X123625593Y-58401646D01*
X123625582Y-58401646D01*
X123417452Y-58415835D01*
X123417446Y-58415836D01*
X123413175Y-58416127D01*
X123408980Y-58416996D01*
X123408978Y-58416996D01*
X123272417Y-58445276D01*
X123131658Y-58474426D01*
X122860657Y-58570393D01*
X122605188Y-58702250D01*
X122601687Y-58704711D01*
X122601683Y-58704713D01*
X122591594Y-58711804D01*
X122369977Y-58867559D01*
X122159378Y-59063260D01*
X121977287Y-59285732D01*
X121827073Y-59530858D01*
X121711517Y-59794102D01*
X121632756Y-60070594D01*
X121592249Y-60355216D01*
X121592227Y-60359505D01*
X121592226Y-60359512D01*
X121591068Y-60580578D01*
X121590743Y-60642703D01*
X107696000Y-60642703D01*
X107696000Y-54482000D01*
X107716002Y-54413879D01*
X107769658Y-54367386D01*
X107822000Y-54356000D01*
X180722000Y-54356000D01*
X180790121Y-54376002D01*
G37*
%TD.AperFunction*%
%TD*%
M02*
