M48
; DRILL file {KiCad (6.0.9)} date Wed Nov 16 17:06:05 2022
; FORMAT={-:-/ absolute / inch / decimal}
; #@! TF.CreationDate,2022-11-16T17:06:05-08:00
; #@! TF.GenerationSoftware,Kicad,Pcbnew,(6.0.9)
; #@! TF.FileFunction,Plated,1,2,PTH
FMAT,2
INCH
; #@! TA.AperFunction,Plated,PTH,ViaDrill
T1C0.0118
; #@! TA.AperFunction,Plated,PTH,ComponentDrill
T2C0.0394
; #@! TA.AperFunction,Plated,PTH,ComponentDrill
T3C0.0400
%
G90
G05
T1
X4.42Y-3.31
X4.78Y-2.56
X4.82Y-4.05
X4.83Y-3.65
X4.84Y-3.09
X5.29Y-3.69
X5.38Y-2.55
X5.62Y-4.1
X5.79Y-3.63
X5.85Y-2.55
X5.94Y-4.1
X6.18Y-3.6
X6.24Y-2.98
X6.26Y-2.56
X6.5Y-4.11
X6.64Y-3.59
X6.72Y-3.01
X6.76Y-2.57
T2
X4.4388Y-3.9668
X4.5388Y-3.9668
X4.5532Y-2.6792
X4.5532Y-2.7792
X4.5532Y-2.8792
X4.5532Y-2.9792
X4.5532Y-3.0792
X5.08Y-4.0
X5.18Y-4.0
X5.28Y-4.0
X5.7268Y-2.7316
X5.7268Y-2.8316
X5.7268Y-2.9316
X5.7268Y-3.0316
T3
X5.0101Y-2.3823
X5.1101Y-2.3823
X5.2101Y-2.3823
X5.3101Y-2.3823
X5.3701Y-4.2823
X5.4101Y-2.3823
X5.4701Y-4.2823
X5.5101Y-2.3823
X5.5701Y-4.2823
X5.6101Y-2.3823
X5.6701Y-4.2823
X5.7101Y-2.3823
X5.7701Y-4.2823
X5.8101Y-2.3823
X5.8701Y-4.2823
X5.9101Y-2.3823
X5.9701Y-4.2823
X6.0701Y-2.3823
X6.0701Y-4.2823
X6.1701Y-2.3823
X6.2701Y-2.3823
X6.2701Y-4.2823
X6.3701Y-2.3823
X6.3701Y-4.2823
X6.4701Y-2.3823
X6.4701Y-4.2823
X6.5701Y-2.3823
X6.5701Y-4.2823
X6.6701Y-2.3823
X6.6701Y-4.2823
X6.7701Y-2.3823
X6.7701Y-4.2823
X6.7751Y-3.1823
X6.7751Y-3.2823
X6.7751Y-3.3823
X6.8751Y-3.1823
X6.8751Y-3.2823
X6.8751Y-3.3823
T0
M30
