%TF.GenerationSoftware,KiCad,Pcbnew,(6.0.9)*%
%TF.CreationDate,2022-11-16T17:04:13-08:00*%
%TF.ProjectId,ECE 411,45434520-3431-4312-9e6b-696361645f70,rev?*%
%TF.SameCoordinates,Original*%
%TF.FileFunction,Legend,Top*%
%TF.FilePolarity,Positive*%
%FSLAX46Y46*%
G04 Gerber Fmt 4.6, Leading zero omitted, Abs format (unit mm)*
G04 Created by KiCad (PCBNEW (6.0.9)) date 2022-11-16 17:04:13*
%MOMM*%
%LPD*%
G01*
G04 APERTURE LIST*
%ADD10C,0.150000*%
%ADD11C,0.300000*%
%ADD12C,0.120000*%
%ADD13R,1.700000X1.700000*%
%ADD14O,1.700000X1.700000*%
%ADD15C,3.200000*%
%ADD16O,1.727200X1.727200*%
G04 APERTURE END LIST*
D10*
X115062095Y-97544000D02*
X114966857Y-97496380D01*
X114824000Y-97496380D01*
X114681142Y-97544000D01*
X114585904Y-97639238D01*
X114538285Y-97734476D01*
X114490666Y-97924952D01*
X114490666Y-98067809D01*
X114538285Y-98258285D01*
X114585904Y-98353523D01*
X114681142Y-98448761D01*
X114824000Y-98496380D01*
X114919238Y-98496380D01*
X115062095Y-98448761D01*
X115109714Y-98401142D01*
X115109714Y-98067809D01*
X114919238Y-98067809D01*
X115538285Y-98496380D02*
X115538285Y-97496380D01*
X116109714Y-98496380D01*
X116109714Y-97496380D01*
X116585904Y-98496380D02*
X116585904Y-97496380D01*
X116824000Y-97496380D01*
X116966857Y-97544000D01*
X117062095Y-97639238D01*
X117109714Y-97734476D01*
X117157333Y-97924952D01*
X117157333Y-98067809D01*
X117109714Y-98258285D01*
X117062095Y-98353523D01*
X116966857Y-98448761D01*
X116824000Y-98496380D01*
X116585904Y-98496380D01*
X134112095Y-98052000D02*
X134016857Y-98004380D01*
X133874000Y-98004380D01*
X133731142Y-98052000D01*
X133635904Y-98147238D01*
X133588285Y-98242476D01*
X133540666Y-98432952D01*
X133540666Y-98575809D01*
X133588285Y-98766285D01*
X133635904Y-98861523D01*
X133731142Y-98956761D01*
X133874000Y-99004380D01*
X133969238Y-99004380D01*
X134112095Y-98956761D01*
X134159714Y-98909142D01*
X134159714Y-98575809D01*
X133969238Y-98575809D01*
X134588285Y-99004380D02*
X134588285Y-98004380D01*
X135159714Y-99004380D01*
X135159714Y-98004380D01*
X135635904Y-99004380D02*
X135635904Y-98004380D01*
X135874000Y-98004380D01*
X136016857Y-98052000D01*
X136112095Y-98147238D01*
X136159714Y-98242476D01*
X136207333Y-98432952D01*
X136207333Y-98575809D01*
X136159714Y-98766285D01*
X136112095Y-98861523D01*
X136016857Y-98956761D01*
X135874000Y-99004380D01*
X135635904Y-99004380D01*
X114554095Y-82050000D02*
X114458857Y-82002380D01*
X114316000Y-82002380D01*
X114173142Y-82050000D01*
X114077904Y-82145238D01*
X114030285Y-82240476D01*
X113982666Y-82430952D01*
X113982666Y-82573809D01*
X114030285Y-82764285D01*
X114077904Y-82859523D01*
X114173142Y-82954761D01*
X114316000Y-83002380D01*
X114411238Y-83002380D01*
X114554095Y-82954761D01*
X114601714Y-82907142D01*
X114601714Y-82573809D01*
X114411238Y-82573809D01*
X115030285Y-83002380D02*
X115030285Y-82002380D01*
X115601714Y-83002380D01*
X115601714Y-82002380D01*
X116077904Y-83002380D02*
X116077904Y-82002380D01*
X116316000Y-82002380D01*
X116458857Y-82050000D01*
X116554095Y-82145238D01*
X116601714Y-82240476D01*
X116649333Y-82430952D01*
X116649333Y-82573809D01*
X116601714Y-82764285D01*
X116554095Y-82859523D01*
X116458857Y-82954761D01*
X116316000Y-83002380D01*
X116077904Y-83002380D01*
X144018095Y-66048000D02*
X143922857Y-66000380D01*
X143780000Y-66000380D01*
X143637142Y-66048000D01*
X143541904Y-66143238D01*
X143494285Y-66238476D01*
X143446666Y-66428952D01*
X143446666Y-66571809D01*
X143494285Y-66762285D01*
X143541904Y-66857523D01*
X143637142Y-66952761D01*
X143780000Y-67000380D01*
X143875238Y-67000380D01*
X144018095Y-66952761D01*
X144065714Y-66905142D01*
X144065714Y-66571809D01*
X143875238Y-66571809D01*
X144494285Y-67000380D02*
X144494285Y-66000380D01*
X145065714Y-67000380D01*
X145065714Y-66000380D01*
X145541904Y-67000380D02*
X145541904Y-66000380D01*
X145780000Y-66000380D01*
X145922857Y-66048000D01*
X146018095Y-66143238D01*
X146065714Y-66238476D01*
X146113333Y-66428952D01*
X146113333Y-66571809D01*
X146065714Y-66762285D01*
X146018095Y-66857523D01*
X145922857Y-66952761D01*
X145780000Y-67000380D01*
X145541904Y-67000380D01*
D11*
X138226000Y-89296857D02*
X138726000Y-89296857D01*
X138940285Y-90082571D02*
X138226000Y-90082571D01*
X138226000Y-88582571D01*
X138940285Y-88582571D01*
X140440285Y-89939714D02*
X140368857Y-90011142D01*
X140154571Y-90082571D01*
X140011714Y-90082571D01*
X139797428Y-90011142D01*
X139654571Y-89868285D01*
X139583142Y-89725428D01*
X139511714Y-89439714D01*
X139511714Y-89225428D01*
X139583142Y-88939714D01*
X139654571Y-88796857D01*
X139797428Y-88654000D01*
X140011714Y-88582571D01*
X140154571Y-88582571D01*
X140368857Y-88654000D01*
X140440285Y-88725428D01*
X141083142Y-89296857D02*
X141583142Y-89296857D01*
X141797428Y-90082571D02*
X141083142Y-90082571D01*
X141083142Y-88582571D01*
X141797428Y-88582571D01*
X144226000Y-89082571D02*
X144226000Y-90082571D01*
X143868857Y-88511142D02*
X143511714Y-89582571D01*
X144440285Y-89582571D01*
X145797428Y-90082571D02*
X144940285Y-90082571D01*
X145368857Y-90082571D02*
X145368857Y-88582571D01*
X145226000Y-88796857D01*
X145083142Y-88939714D01*
X144940285Y-89011142D01*
X147226000Y-90082571D02*
X146368857Y-90082571D01*
X146797428Y-90082571D02*
X146797428Y-88582571D01*
X146654571Y-88796857D01*
X146511714Y-88939714D01*
X146368857Y-89011142D01*
X148797428Y-88582571D02*
X149654571Y-88582571D01*
X149226000Y-90082571D02*
X149226000Y-88582571D01*
X150726000Y-90011142D02*
X150583142Y-90082571D01*
X150297428Y-90082571D01*
X150154571Y-90011142D01*
X150083142Y-89868285D01*
X150083142Y-89296857D01*
X150154571Y-89154000D01*
X150297428Y-89082571D01*
X150583142Y-89082571D01*
X150726000Y-89154000D01*
X150797428Y-89296857D01*
X150797428Y-89439714D01*
X150083142Y-89582571D01*
X152083142Y-90082571D02*
X152083142Y-89296857D01*
X152011714Y-89154000D01*
X151868857Y-89082571D01*
X151583142Y-89082571D01*
X151440285Y-89154000D01*
X152083142Y-90011142D02*
X151940285Y-90082571D01*
X151583142Y-90082571D01*
X151440285Y-90011142D01*
X151368857Y-89868285D01*
X151368857Y-89725428D01*
X151440285Y-89582571D01*
X151583142Y-89511142D01*
X151940285Y-89511142D01*
X152083142Y-89439714D01*
X152797428Y-90082571D02*
X152797428Y-89082571D01*
X152797428Y-89225428D02*
X152868857Y-89154000D01*
X153011714Y-89082571D01*
X153226000Y-89082571D01*
X153368857Y-89154000D01*
X153440285Y-89296857D01*
X153440285Y-90082571D01*
X153440285Y-89296857D02*
X153511714Y-89154000D01*
X153654571Y-89082571D01*
X153868857Y-89082571D01*
X154011714Y-89154000D01*
X154083142Y-89296857D01*
X154083142Y-90082571D01*
X155797428Y-88582571D02*
X156726000Y-88582571D01*
X156226000Y-89154000D01*
X156440285Y-89154000D01*
X156583142Y-89225428D01*
X156654571Y-89296857D01*
X156726000Y-89439714D01*
X156726000Y-89796857D01*
X156654571Y-89939714D01*
X156583142Y-90011142D01*
X156440285Y-90082571D01*
X156011714Y-90082571D01*
X155868857Y-90011142D01*
X155797428Y-89939714D01*
X158440285Y-88725428D02*
X158511714Y-88654000D01*
X158654571Y-88582571D01*
X159011714Y-88582571D01*
X159154571Y-88654000D01*
X159226000Y-88725428D01*
X159297428Y-88868285D01*
X159297428Y-89011142D01*
X159226000Y-89225428D01*
X158368857Y-90082571D01*
X159297428Y-90082571D01*
X160226000Y-88582571D02*
X160368857Y-88582571D01*
X160511714Y-88654000D01*
X160583142Y-88725428D01*
X160654571Y-88868285D01*
X160726000Y-89154000D01*
X160726000Y-89511142D01*
X160654571Y-89796857D01*
X160583142Y-89939714D01*
X160511714Y-90011142D01*
X160368857Y-90082571D01*
X160226000Y-90082571D01*
X160083142Y-90011142D01*
X160011714Y-89939714D01*
X159940285Y-89796857D01*
X159868857Y-89511142D01*
X159868857Y-89154000D01*
X159940285Y-88868285D01*
X160011714Y-88725428D01*
X160083142Y-88654000D01*
X160226000Y-88582571D01*
X161297428Y-88725428D02*
X161368857Y-88654000D01*
X161511714Y-88582571D01*
X161868857Y-88582571D01*
X162011714Y-88654000D01*
X162083142Y-88725428D01*
X162154571Y-88868285D01*
X162154571Y-89011142D01*
X162083142Y-89225428D01*
X161226000Y-90082571D01*
X162154571Y-90082571D01*
X162726000Y-88725428D02*
X162797428Y-88654000D01*
X162940285Y-88582571D01*
X163297428Y-88582571D01*
X163440285Y-88654000D01*
X163511714Y-88725428D01*
X163583142Y-88868285D01*
X163583142Y-89011142D01*
X163511714Y-89225428D01*
X162654571Y-90082571D01*
X163583142Y-90082571D01*
X165297428Y-88511142D02*
X164011714Y-90439714D01*
X166583142Y-90082571D02*
X165726000Y-90082571D01*
X166154571Y-90082571D02*
X166154571Y-88582571D01*
X166011714Y-88796857D01*
X165868857Y-88939714D01*
X165726000Y-89011142D01*
X168011714Y-90082571D02*
X167154571Y-90082571D01*
X167583142Y-90082571D02*
X167583142Y-88582571D01*
X167440285Y-88796857D01*
X167297428Y-88939714D01*
X167154571Y-89011142D01*
X169726000Y-88511142D02*
X168440285Y-90439714D01*
X171011714Y-90082571D02*
X170154571Y-90082571D01*
X170583142Y-90082571D02*
X170583142Y-88582571D01*
X170440285Y-88796857D01*
X170297428Y-88939714D01*
X170154571Y-89011142D01*
X172368857Y-88582571D02*
X171654571Y-88582571D01*
X171583142Y-89296857D01*
X171654571Y-89225428D01*
X171797428Y-89154000D01*
X172154571Y-89154000D01*
X172297428Y-89225428D01*
X172368857Y-89296857D01*
X172440285Y-89439714D01*
X172440285Y-89796857D01*
X172368857Y-89939714D01*
X172297428Y-90011142D01*
X172154571Y-90082571D01*
X171797428Y-90082571D01*
X171654571Y-90011142D01*
X171583142Y-89939714D01*
X174011714Y-88582571D02*
X174511714Y-90082571D01*
X175011714Y-88582571D01*
X176297428Y-90082571D02*
X175440285Y-90082571D01*
X175868857Y-90082571D02*
X175868857Y-88582571D01*
X175726000Y-88796857D01*
X175583142Y-88939714D01*
X175440285Y-89011142D01*
X152547428Y-92069000D02*
X153261714Y-92069000D01*
X152404571Y-92497571D02*
X152904571Y-90997571D01*
X153404571Y-92497571D01*
X154118857Y-92497571D02*
X153976000Y-92426142D01*
X153904571Y-92283285D01*
X153904571Y-90997571D01*
X155261714Y-92426142D02*
X155118857Y-92497571D01*
X154833142Y-92497571D01*
X154690285Y-92426142D01*
X154618857Y-92283285D01*
X154618857Y-91711857D01*
X154690285Y-91569000D01*
X154833142Y-91497571D01*
X155118857Y-91497571D01*
X155261714Y-91569000D01*
X155333142Y-91711857D01*
X155333142Y-91854714D01*
X154618857Y-91997571D01*
X155833142Y-92497571D02*
X156618857Y-91497571D01*
X155833142Y-91497571D02*
X156618857Y-92497571D01*
X158333142Y-92497571D02*
X158333142Y-90997571D01*
X159190285Y-92497571D02*
X158547428Y-91640428D01*
X159190285Y-90997571D02*
X158333142Y-91854714D01*
X159833142Y-92497571D02*
X159833142Y-91497571D01*
X159833142Y-90997571D02*
X159761714Y-91069000D01*
X159833142Y-91140428D01*
X159904571Y-91069000D01*
X159833142Y-90997571D01*
X159833142Y-91140428D01*
X160547428Y-92497571D02*
X160547428Y-91497571D01*
X160547428Y-91640428D02*
X160618857Y-91569000D01*
X160761714Y-91497571D01*
X160976000Y-91497571D01*
X161118857Y-91569000D01*
X161190285Y-91711857D01*
X161190285Y-92497571D01*
X161190285Y-91711857D02*
X161261714Y-91569000D01*
X161404571Y-91497571D01*
X161618857Y-91497571D01*
X161761714Y-91569000D01*
X161833142Y-91711857D01*
X161833142Y-92497571D01*
X151476000Y-94769714D02*
X151404571Y-94841142D01*
X151190285Y-94912571D01*
X151047428Y-94912571D01*
X150833142Y-94841142D01*
X150690285Y-94698285D01*
X150618857Y-94555428D01*
X150547428Y-94269714D01*
X150547428Y-94055428D01*
X150618857Y-93769714D01*
X150690285Y-93626857D01*
X150833142Y-93484000D01*
X151047428Y-93412571D01*
X151190285Y-93412571D01*
X151404571Y-93484000D01*
X151476000Y-93555428D01*
X152690285Y-94841142D02*
X152547428Y-94912571D01*
X152261714Y-94912571D01*
X152118857Y-94841142D01*
X152047428Y-94698285D01*
X152047428Y-94126857D01*
X152118857Y-93984000D01*
X152261714Y-93912571D01*
X152547428Y-93912571D01*
X152690285Y-93984000D01*
X152761714Y-94126857D01*
X152761714Y-94269714D01*
X152047428Y-94412571D01*
X153618857Y-94912571D02*
X153476000Y-94841142D01*
X153404571Y-94698285D01*
X153404571Y-93412571D01*
X154190285Y-94912571D02*
X154190285Y-93912571D01*
X154190285Y-93412571D02*
X154118857Y-93484000D01*
X154190285Y-93555428D01*
X154261714Y-93484000D01*
X154190285Y-93412571D01*
X154190285Y-93555428D01*
X154904571Y-93912571D02*
X154904571Y-94912571D01*
X154904571Y-94055428D02*
X154976000Y-93984000D01*
X155118857Y-93912571D01*
X155333142Y-93912571D01*
X155476000Y-93984000D01*
X155547428Y-94126857D01*
X155547428Y-94912571D01*
X156904571Y-94912571D02*
X156904571Y-94126857D01*
X156833142Y-93984000D01*
X156690285Y-93912571D01*
X156404571Y-93912571D01*
X156261714Y-93984000D01*
X156904571Y-94841142D02*
X156761714Y-94912571D01*
X156404571Y-94912571D01*
X156261714Y-94841142D01*
X156190285Y-94698285D01*
X156190285Y-94555428D01*
X156261714Y-94412571D01*
X156404571Y-94341142D01*
X156761714Y-94341142D01*
X156904571Y-94269714D01*
X158618857Y-93412571D02*
X158976000Y-94912571D01*
X159261714Y-93841142D01*
X159547428Y-94912571D01*
X159904571Y-93412571D01*
X161118857Y-94912571D02*
X161118857Y-94126857D01*
X161047428Y-93984000D01*
X160904571Y-93912571D01*
X160618857Y-93912571D01*
X160476000Y-93984000D01*
X161118857Y-94841142D02*
X160976000Y-94912571D01*
X160618857Y-94912571D01*
X160476000Y-94841142D01*
X160404571Y-94698285D01*
X160404571Y-94555428D01*
X160476000Y-94412571D01*
X160618857Y-94341142D01*
X160976000Y-94341142D01*
X161118857Y-94269714D01*
X161833142Y-93912571D02*
X161833142Y-94912571D01*
X161833142Y-94055428D02*
X161904571Y-93984000D01*
X162047428Y-93912571D01*
X162261714Y-93912571D01*
X162404571Y-93984000D01*
X162476000Y-94126857D01*
X162476000Y-94912571D01*
X163833142Y-93912571D02*
X163833142Y-95126857D01*
X163761714Y-95269714D01*
X163690285Y-95341142D01*
X163547428Y-95412571D01*
X163333142Y-95412571D01*
X163190285Y-95341142D01*
X163833142Y-94841142D02*
X163690285Y-94912571D01*
X163404571Y-94912571D01*
X163261714Y-94841142D01*
X163190285Y-94769714D01*
X163118857Y-94626857D01*
X163118857Y-94198285D01*
X163190285Y-94055428D01*
X163261714Y-93984000D01*
X163404571Y-93912571D01*
X163690285Y-93912571D01*
X163833142Y-93984000D01*
X148261714Y-97327571D02*
X148261714Y-95827571D01*
X148618857Y-95827571D01*
X148833142Y-95899000D01*
X148976000Y-96041857D01*
X149047428Y-96184714D01*
X149118857Y-96470428D01*
X149118857Y-96684714D01*
X149047428Y-96970428D01*
X148976000Y-97113285D01*
X148833142Y-97256142D01*
X148618857Y-97327571D01*
X148261714Y-97327571D01*
X149761714Y-97327571D02*
X149761714Y-96327571D01*
X149761714Y-96470428D02*
X149833142Y-96399000D01*
X149976000Y-96327571D01*
X150190285Y-96327571D01*
X150333142Y-96399000D01*
X150404571Y-96541857D01*
X150404571Y-97327571D01*
X150404571Y-96541857D02*
X150476000Y-96399000D01*
X150618857Y-96327571D01*
X150833142Y-96327571D01*
X150976000Y-96399000D01*
X151047428Y-96541857D01*
X151047428Y-97327571D01*
X151618857Y-96327571D02*
X151976000Y-97327571D01*
X152333142Y-96327571D02*
X151976000Y-97327571D01*
X151833142Y-97684714D01*
X151761714Y-97756142D01*
X151618857Y-97827571D01*
X152690285Y-96327571D02*
X153261714Y-96327571D01*
X152904571Y-95827571D02*
X152904571Y-97113285D01*
X152976000Y-97256142D01*
X153118857Y-97327571D01*
X153261714Y-97327571D01*
X153761714Y-97327571D02*
X153761714Y-96327571D01*
X153761714Y-96613285D02*
X153833142Y-96470428D01*
X153904571Y-96399000D01*
X154047428Y-96327571D01*
X154190285Y-96327571D01*
X154904571Y-97327571D02*
X154761714Y-97256142D01*
X154690285Y-97184714D01*
X154618857Y-97041857D01*
X154618857Y-96613285D01*
X154690285Y-96470428D01*
X154761714Y-96399000D01*
X154904571Y-96327571D01*
X155118857Y-96327571D01*
X155261714Y-96399000D01*
X155333142Y-96470428D01*
X155404571Y-96613285D01*
X155404571Y-97041857D01*
X155333142Y-97184714D01*
X155261714Y-97256142D01*
X155118857Y-97327571D01*
X154904571Y-97327571D01*
X157190285Y-97327571D02*
X157190285Y-95827571D01*
X157761714Y-95827571D01*
X157904571Y-95899000D01*
X157976000Y-95970428D01*
X158047428Y-96113285D01*
X158047428Y-96327571D01*
X157976000Y-96470428D01*
X157904571Y-96541857D01*
X157761714Y-96613285D01*
X157190285Y-96613285D01*
X158690285Y-97327571D02*
X158690285Y-96327571D01*
X158690285Y-96613285D02*
X158761714Y-96470428D01*
X158833142Y-96399000D01*
X158976000Y-96327571D01*
X159118857Y-96327571D01*
X159476000Y-96327571D02*
X159833142Y-97327571D01*
X160190285Y-96327571D02*
X159833142Y-97327571D01*
X159690285Y-97684714D01*
X159618857Y-97756142D01*
X159476000Y-97827571D01*
X160690285Y-97256142D02*
X160833142Y-97327571D01*
X161118857Y-97327571D01*
X161261714Y-97256142D01*
X161333142Y-97113285D01*
X161333142Y-97041857D01*
X161261714Y-96899000D01*
X161118857Y-96827571D01*
X160904571Y-96827571D01*
X160761714Y-96756142D01*
X160690285Y-96613285D01*
X160690285Y-96541857D01*
X160761714Y-96399000D01*
X160904571Y-96327571D01*
X161118857Y-96327571D01*
X161261714Y-96399000D01*
X161761714Y-96327571D02*
X162333142Y-96327571D01*
X161976000Y-95827571D02*
X161976000Y-97113285D01*
X162047428Y-97256142D01*
X162190285Y-97327571D01*
X162333142Y-97327571D01*
X163476000Y-96327571D02*
X163476000Y-97327571D01*
X162833142Y-96327571D02*
X162833142Y-97113285D01*
X162904571Y-97256142D01*
X163047428Y-97327571D01*
X163261714Y-97327571D01*
X163404571Y-97256142D01*
X163476000Y-97184714D01*
X164190285Y-96327571D02*
X164190285Y-97827571D01*
X164190285Y-96399000D02*
X164333142Y-96327571D01*
X164618857Y-96327571D01*
X164761714Y-96399000D01*
X164833142Y-96470428D01*
X164904571Y-96613285D01*
X164904571Y-97041857D01*
X164833142Y-97184714D01*
X164761714Y-97256142D01*
X164618857Y-97327571D01*
X164333142Y-97327571D01*
X164190285Y-97256142D01*
X166190285Y-97327571D02*
X166190285Y-96541857D01*
X166118857Y-96399000D01*
X165976000Y-96327571D01*
X165690285Y-96327571D01*
X165547428Y-96399000D01*
X166190285Y-97256142D02*
X166047428Y-97327571D01*
X165690285Y-97327571D01*
X165547428Y-97256142D01*
X165476000Y-97113285D01*
X165476000Y-96970428D01*
X165547428Y-96827571D01*
X165690285Y-96756142D01*
X166047428Y-96756142D01*
X166190285Y-96684714D01*
X152511714Y-99742571D02*
X152511714Y-98242571D01*
X152511714Y-98956857D02*
X153368857Y-98956857D01*
X153368857Y-99742571D02*
X153368857Y-98242571D01*
X154726000Y-98742571D02*
X154726000Y-99742571D01*
X154083142Y-98742571D02*
X154083142Y-99528285D01*
X154154571Y-99671142D01*
X154297428Y-99742571D01*
X154511714Y-99742571D01*
X154654571Y-99671142D01*
X154726000Y-99599714D01*
X155440285Y-99742571D02*
X155440285Y-98742571D01*
X155440285Y-98242571D02*
X155368857Y-98314000D01*
X155440285Y-98385428D01*
X155511714Y-98314000D01*
X155440285Y-98242571D01*
X155440285Y-98385428D01*
X156154571Y-99742571D02*
X156154571Y-98242571D01*
X156154571Y-98814000D02*
X156297428Y-98742571D01*
X156583142Y-98742571D01*
X156726000Y-98814000D01*
X156797428Y-98885428D01*
X156868857Y-99028285D01*
X156868857Y-99456857D01*
X156797428Y-99599714D01*
X156726000Y-99671142D01*
X156583142Y-99742571D01*
X156297428Y-99742571D01*
X156154571Y-99671142D01*
X157726000Y-99742571D02*
X157583142Y-99671142D01*
X157511714Y-99599714D01*
X157440285Y-99456857D01*
X157440285Y-99028285D01*
X157511714Y-98885428D01*
X157583142Y-98814000D01*
X157726000Y-98742571D01*
X157940285Y-98742571D01*
X158083142Y-98814000D01*
X158154571Y-98885428D01*
X158226000Y-99028285D01*
X158226000Y-99456857D01*
X158154571Y-99599714D01*
X158083142Y-99671142D01*
X157940285Y-99742571D01*
X157726000Y-99742571D01*
X160297428Y-99028285D02*
X160297428Y-99742571D01*
X159797428Y-98242571D02*
X160297428Y-99028285D01*
X160797428Y-98242571D01*
X161940285Y-98742571D02*
X161940285Y-99742571D01*
X161297428Y-98742571D02*
X161297428Y-99528285D01*
X161368857Y-99671142D01*
X161511714Y-99742571D01*
X161726000Y-99742571D01*
X161868857Y-99671142D01*
X161940285Y-99599714D01*
D10*
%TO.C,J1*%
X110938666Y-64734380D02*
X110938666Y-65448666D01*
X110891047Y-65591523D01*
X110795809Y-65686761D01*
X110652952Y-65734380D01*
X110557714Y-65734380D01*
X111938666Y-65734380D02*
X111367238Y-65734380D01*
X111652952Y-65734380D02*
X111652952Y-64734380D01*
X111557714Y-64877238D01*
X111462476Y-64972476D01*
X111367238Y-65020095D01*
%TO.C,J4*%
X149506666Y-79224380D02*
X149506666Y-79938666D01*
X149459047Y-80081523D01*
X149363809Y-80176761D01*
X149220952Y-80224380D01*
X149125714Y-80224380D01*
X150411428Y-79557714D02*
X150411428Y-80224380D01*
X150173333Y-79176761D02*
X149935238Y-79891047D01*
X150554285Y-79891047D01*
%TO.C,J3*%
X136334380Y-101933333D02*
X137048666Y-101933333D01*
X137191523Y-101980952D01*
X137286761Y-102076190D01*
X137334380Y-102219047D01*
X137334380Y-102314285D01*
X136334380Y-101552380D02*
X136334380Y-100933333D01*
X136715333Y-101266666D01*
X136715333Y-101123809D01*
X136762952Y-101028571D01*
X136810571Y-100980952D01*
X136905809Y-100933333D01*
X137143904Y-100933333D01*
X137239142Y-100980952D01*
X137286761Y-101028571D01*
X137334380Y-101123809D01*
X137334380Y-101409523D01*
X137286761Y-101504761D01*
X137239142Y-101552380D01*
%TO.C,J2*%
X109428380Y-105469333D02*
X110142666Y-105469333D01*
X110285523Y-105516952D01*
X110380761Y-105612190D01*
X110428380Y-105755047D01*
X110428380Y-105850285D01*
X109523619Y-105040761D02*
X109476000Y-104993142D01*
X109428380Y-104897904D01*
X109428380Y-104659809D01*
X109476000Y-104564571D01*
X109523619Y-104516952D01*
X109618857Y-104469333D01*
X109714095Y-104469333D01*
X109856952Y-104516952D01*
X110428380Y-105088380D01*
X110428380Y-104469333D01*
%TO.C,XA1*%
X109761904Y-56406380D02*
X110428571Y-57406380D01*
X110428571Y-56406380D02*
X109761904Y-57406380D01*
X110761904Y-57120666D02*
X111238095Y-57120666D01*
X110666666Y-57406380D02*
X111000000Y-56406380D01*
X111333333Y-57406380D01*
X112190476Y-57406380D02*
X111619047Y-57406380D01*
X111904761Y-57406380D02*
X111904761Y-56406380D01*
X111809523Y-56549238D01*
X111714285Y-56644476D01*
X111619047Y-56692095D01*
X170944000Y-79663142D02*
X170991619Y-79710761D01*
X170944000Y-79758380D01*
X170896380Y-79710761D01*
X170944000Y-79663142D01*
X170944000Y-79758380D01*
D12*
%TO.C,J1*%
X105562000Y-68731520D02*
X114192000Y-68731520D01*
X116762000Y-66722000D02*
X116762000Y-68052000D01*
X114192000Y-77852000D02*
X114602000Y-77852000D01*
X105562000Y-68259140D02*
X114192000Y-68259140D01*
X105562000Y-66722000D02*
X105562000Y-79542000D01*
X105562000Y-67904855D02*
X114192000Y-67904855D01*
X105562000Y-74402000D02*
X114192000Y-74402000D01*
X114192000Y-75312000D02*
X114602000Y-75312000D01*
X105562000Y-68022950D02*
X114192000Y-68022950D01*
X114192000Y-70232000D02*
X114602000Y-70232000D01*
X105562000Y-69203900D02*
X114192000Y-69203900D01*
X115652000Y-66722000D02*
X116762000Y-66722000D01*
X105562000Y-68377235D02*
X114192000Y-68377235D01*
X105562000Y-66722000D02*
X114192000Y-66722000D01*
X105562000Y-66960095D02*
X114192000Y-66960095D01*
X105562000Y-69085805D02*
X114192000Y-69085805D01*
X105562000Y-71862000D02*
X114192000Y-71862000D01*
X114192000Y-72772000D02*
X114602000Y-72772000D01*
X114192000Y-78572000D02*
X114602000Y-78572000D01*
X114192000Y-70952000D02*
X114602000Y-70952000D01*
X105562000Y-68495330D02*
X114192000Y-68495330D01*
X105562000Y-76942000D02*
X114192000Y-76942000D01*
X105562000Y-67314380D02*
X114192000Y-67314380D01*
X105562000Y-67786760D02*
X114192000Y-67786760D01*
X105562000Y-68141045D02*
X114192000Y-68141045D01*
X105562000Y-67668665D02*
X114192000Y-67668665D01*
X114192000Y-67692000D02*
X114542000Y-67692000D01*
X105562000Y-69322000D02*
X114192000Y-69322000D01*
X114192000Y-66722000D02*
X114192000Y-79542000D01*
X105562000Y-66842000D02*
X114192000Y-66842000D01*
X114192000Y-68412000D02*
X114542000Y-68412000D01*
X114192000Y-76032000D02*
X114602000Y-76032000D01*
X105562000Y-67550570D02*
X114192000Y-67550570D01*
X105562000Y-67078190D02*
X114192000Y-67078190D01*
X114192000Y-73492000D02*
X114602000Y-73492000D01*
X105562000Y-67432475D02*
X114192000Y-67432475D01*
X105562000Y-68613425D02*
X114192000Y-68613425D01*
X105562000Y-79542000D02*
X114192000Y-79542000D01*
X105562000Y-67196285D02*
X114192000Y-67196285D01*
X105562000Y-68849615D02*
X114192000Y-68849615D01*
X105562000Y-68967710D02*
X114192000Y-68967710D01*
%TO.C,J4*%
X155550000Y-75732000D02*
X146920000Y-75732000D01*
X155550000Y-76322480D02*
X146920000Y-76322480D01*
X155550000Y-77267240D02*
X146920000Y-77267240D01*
X155550000Y-76912955D02*
X146920000Y-76912955D01*
X155550000Y-75850100D02*
X146920000Y-75850100D01*
X146920000Y-69742000D02*
X146510000Y-69742000D01*
X155550000Y-77621525D02*
X146920000Y-77621525D01*
X155550000Y-76086290D02*
X146920000Y-76086290D01*
X155550000Y-78332000D02*
X155550000Y-68052000D01*
X155550000Y-75968195D02*
X146920000Y-75968195D01*
X146920000Y-74822000D02*
X146510000Y-74822000D01*
X146920000Y-69022000D02*
X146510000Y-69022000D01*
X146920000Y-78332000D02*
X146920000Y-68052000D01*
X155550000Y-77503430D02*
X146920000Y-77503430D01*
X155550000Y-76794860D02*
X146920000Y-76794860D01*
X155550000Y-77031050D02*
X146920000Y-77031050D01*
X146920000Y-77362000D02*
X146570000Y-77362000D01*
X146920000Y-76642000D02*
X146570000Y-76642000D01*
X146920000Y-72282000D02*
X146510000Y-72282000D01*
X155550000Y-77385335D02*
X146920000Y-77385335D01*
X155550000Y-77739620D02*
X146920000Y-77739620D01*
X146920000Y-71562000D02*
X146510000Y-71562000D01*
X145460000Y-78332000D02*
X144350000Y-78332000D01*
X155550000Y-76204385D02*
X146920000Y-76204385D01*
X155550000Y-70652000D02*
X146920000Y-70652000D01*
X155550000Y-77857715D02*
X146920000Y-77857715D01*
X146920000Y-74102000D02*
X146510000Y-74102000D01*
X155550000Y-78332000D02*
X146920000Y-78332000D01*
X155550000Y-68052000D02*
X146920000Y-68052000D01*
X155550000Y-77149145D02*
X146920000Y-77149145D01*
X155550000Y-76440575D02*
X146920000Y-76440575D01*
X155550000Y-77975810D02*
X146920000Y-77975810D01*
X155550000Y-73192000D02*
X146920000Y-73192000D01*
X155550000Y-78212000D02*
X146920000Y-78212000D01*
X144350000Y-78332000D02*
X144350000Y-77002000D01*
X155550000Y-76676765D02*
X146920000Y-76676765D01*
X155550000Y-78093905D02*
X146920000Y-78093905D01*
X155550000Y-76558670D02*
X146920000Y-76558670D01*
%TO.C,J3*%
X135442000Y-101600000D02*
X135442000Y-102930000D01*
X135442000Y-102930000D02*
X134112000Y-102930000D01*
X132842000Y-100270000D02*
X132842000Y-102930000D01*
X132842000Y-102930000D02*
X127702000Y-102930000D01*
X127702000Y-100270000D02*
X127702000Y-102930000D01*
X132842000Y-100270000D02*
X127702000Y-100270000D01*
%TO.C,J2*%
X111772190Y-110846000D02*
X111772190Y-102216000D01*
X112953140Y-110846000D02*
X112953140Y-102216000D01*
X111416000Y-110846000D02*
X116616000Y-110846000D01*
X111416000Y-102216000D02*
X116616000Y-102216000D01*
X113543615Y-110846000D02*
X113543615Y-102216000D01*
X115646000Y-102216000D02*
X115646000Y-101806000D01*
X112716950Y-110846000D02*
X112716950Y-102216000D01*
X113425520Y-110846000D02*
X113425520Y-102216000D01*
X112598855Y-110846000D02*
X112598855Y-102216000D01*
X113307425Y-110846000D02*
X113307425Y-102216000D01*
X113779805Y-110846000D02*
X113779805Y-102216000D01*
X112480760Y-110846000D02*
X112480760Y-102216000D01*
X116616000Y-110846000D02*
X116616000Y-102216000D01*
X112835045Y-110846000D02*
X112835045Y-102216000D01*
X112386000Y-102216000D02*
X112386000Y-101866000D01*
X113897900Y-110846000D02*
X113897900Y-102216000D01*
X111416000Y-110846000D02*
X111416000Y-102216000D01*
X112362665Y-110846000D02*
X112362665Y-102216000D01*
X114926000Y-102216000D02*
X114926000Y-101806000D01*
X112008380Y-110846000D02*
X112008380Y-102216000D01*
X114016000Y-110846000D02*
X114016000Y-102216000D01*
X111890285Y-110846000D02*
X111890285Y-102216000D01*
X111416000Y-99646000D02*
X112746000Y-99646000D01*
X113189330Y-110846000D02*
X113189330Y-102216000D01*
X113661710Y-110846000D02*
X113661710Y-102216000D01*
X111536000Y-110846000D02*
X111536000Y-102216000D01*
X111416000Y-100756000D02*
X111416000Y-99646000D01*
X111654095Y-110846000D02*
X111654095Y-102216000D01*
X112126475Y-110846000D02*
X112126475Y-102216000D01*
X113106000Y-102216000D02*
X113106000Y-101866000D01*
X113071235Y-110846000D02*
X113071235Y-102216000D01*
X112244570Y-110846000D02*
X112244570Y-102216000D01*
D10*
%TO.C,XA1*%
X108460000Y-111310000D02*
X174500000Y-111310000D01*
X108460000Y-57970000D02*
X108460000Y-111310000D01*
X174500000Y-110040000D02*
X177040000Y-107500000D01*
X108460000Y-57970000D02*
X172976000Y-57970000D01*
X172976000Y-57970000D02*
X174500000Y-59494000D01*
X177040000Y-107500000D02*
X177040000Y-73210000D01*
X174500000Y-70670000D02*
X174500000Y-59494000D01*
X177040000Y-73210000D02*
X174500000Y-70670000D01*
X174500000Y-111310000D02*
X174500000Y-110040000D01*
%TD*%
%LPC*%
D13*
%TO.C,J1*%
X115652000Y-68052000D03*
D14*
X115652000Y-70592000D03*
X115652000Y-73132000D03*
X115652000Y-75672000D03*
X115652000Y-78212000D03*
%TD*%
D13*
%TO.C,J4*%
X145460000Y-77002000D03*
D14*
X145460000Y-74462000D03*
X145460000Y-71922000D03*
X145460000Y-69382000D03*
%TD*%
D13*
%TO.C,J3*%
X134112000Y-101600000D03*
D14*
X131572000Y-101600000D03*
X129032000Y-101600000D03*
%TD*%
D13*
%TO.C,J2*%
X112746000Y-100756000D03*
D14*
X115286000Y-100756000D03*
%TD*%
D15*
%TO.C,XA1*%
X122430000Y-108770000D03*
X174500000Y-103690000D03*
X123700000Y-60510000D03*
X174500000Y-75750000D03*
D16*
X136400000Y-108770000D03*
X144020000Y-108770000D03*
X146560000Y-108770000D03*
X174627000Y-80830000D03*
X159260000Y-108770000D03*
X161800000Y-108770000D03*
X164340000Y-108770000D03*
X166880000Y-108770000D03*
X169420000Y-108770000D03*
X171960000Y-108770000D03*
X132336000Y-60510000D03*
X171960000Y-60510000D03*
X169420000Y-60510000D03*
X166880000Y-60510000D03*
X164340000Y-60510000D03*
X161800000Y-60510000D03*
X159260000Y-60510000D03*
X156720000Y-60510000D03*
X154180000Y-60510000D03*
X150116000Y-60510000D03*
X147576000Y-60510000D03*
X145036000Y-60510000D03*
X142496000Y-60510000D03*
X139956000Y-60510000D03*
X137416000Y-60510000D03*
X134876000Y-60510000D03*
X149100000Y-108770000D03*
X151640000Y-108770000D03*
X174627000Y-85910000D03*
X138940000Y-108770000D03*
X172087000Y-80830000D03*
X174627000Y-83370000D03*
X141480000Y-108770000D03*
X172087000Y-85910000D03*
X172087000Y-83370000D03*
X127256000Y-60510000D03*
X129796000Y-60510000D03*
X154180000Y-108770000D03*
%TD*%
M02*
